STARTFONT 2.1
FONT -Adobe-New Century Schoolbook-Bold-I-Normal--20-140-100-100-P-111-ISO10646-1
SIZE 14 100 100
FONTBOUNDINGBOX 26 33 -5 -9
COMMENT $Xorg: $
COMMENT ISO10646-1 extension by Markus Kuhn <mkuhn@acm.org>, 2001-03-20
COMMENT 
COMMENT +
COMMENT  Copyright 1984-1989, 1994 Adobe Systems Incorporated.
COMMENT  Copyright 1988, 1994 Digital Equipment Corporation.
COMMENT
COMMENT  Adobe is a trademark of Adobe Systems Incorporated which may be
COMMENT  registered in certain jurisdictions.
COMMENT  Permission to use these trademarks is hereby granted only in
COMMENT  association with the images described in this file.
COMMENT
COMMENT  Permission to use, copy, modify, distribute and sell this software
COMMENT  and its documentation for any purpose and without fee is hereby
COMMENT  granted, provided that the above copyright notices appear in all
COMMENT  copies and that both those copyright notices and this permission
COMMENT  notice appear in supporting documentation, and that the names of
COMMENT  Adobe Systems and Digital Equipment Corporation not be used in
COMMENT  advertising or publicity pertaining to distribution of the software
COMMENT  without specific, written prior permission.  Adobe Systems and
COMMENT  Digital Equipment Corporation make no representations about the
COMMENT  suitability of this software for any purpose.  It is provided "as
COMMENT  is" without express or implied warranty.
COMMENT -
STARTPROPERTIES 23
COMMENT Begin LogicalFontDescription
FONTNAME_REGISTRY ""
FAMILY_NAME "New Century Schoolbook"
FOUNDRY "Adobe"
WEIGHT_NAME "Bold"
SLANT "I"
SETWIDTH_NAME "Normal"
ADD_STYLE_NAME ""
PIXEL_SIZE 20
POINT_SIZE 140
RESOLUTION_X 100
RESOLUTION_Y 100
SPACING "P"
AVERAGE_WIDTH 111
CHARSET_REGISTRY "ISO10646"
CHARSET_ENCODING "1"
COMMENT END LogicalFontDescription
FULL_NAME "New Century Schoolbook Bold Italic"
COPYRIGHT "Copyright (c) 1987 Adobe Systems, Inc., Portions Copyright 1988 Digital Equipment Corp."

STARTCHAR char0
ENCODING 0
SWIDTH 870 0
DWIDTH 17 0
BBX 15 13 0 0
BITMAP
AAAA
0000
8002
0000
8002
0000
8002
0000
8002
0000
8002
0000
AAAA
ENDCHAR
STARTCHAR space
ENCODING 32
SWIDTH 287 0
DWIDTH 5 0
BBX 1 1 0 0
BITMAP
00
ENDCHAR
STARTCHAR exclam
ENCODING 33
SWIDTH 333 0
DWIDTH 8 0
BBX 7 14 0 0
BITMAP
0C
1E
1E
1C
1C
38
38
30
30
00
60
F0
F0
60
ENDCHAR
STARTCHAR quotedbl
ENCODING 34
SWIDTH 400 0
DWIDTH 9 0
BBX 6 6 1 8
BITMAP
CC
CC
CC
CC
88
88
ENDCHAR
STARTCHAR numbersign
ENCODING 35
SWIDTH 606 0
DWIDTH 11 0
BBX 10 14 0 0
BITMAP
0900
0900
0900
7FC0
7FC0
1200
1200
1200
FF80
FF80
2400
2400
2400
2400
ENDCHAR
STARTCHAR dollar
ENCODING 36
SWIDTH 574 0
DWIDTH 10 0
BBX 10 18 -1 -2
BITMAP
0200
0200
0F80
3AC0
32C0
64C0
7400
7C00
3F00
1F80
0BC0
09C0
C9C0
C980
CB00
7E00
1000
1000
ENDCHAR
STARTCHAR percent
ENCODING 37
SWIDTH 889 0
DWIDTH 15 0
BBX 14 15 0 -1
BITMAP
38C0
6740
64C0
C480
C580
C900
CB38
7264
0664
04C4
0CC4
08C8
18C8
1070
1000
ENDCHAR
STARTCHAR ampersand
ENCODING 38
SWIDTH 889 0
DWIDTH 18 0
BBX 17 14 0 0
BITMAP
01E000
073000
0E3000
0E2000
0F4000
078000
0F8F00
33C600
63C400
E1E800
E0F080
E0F900
F1FE00
3E3C00
ENDCHAR
STARTCHAR quotesingle
ENCODING 39
SWIDTH 287 0
DWIDTH 5 0
BBX 2 6 1 8
BITMAP
C0
C0
C0
C0
C0
C0
ENDCHAR
STARTCHAR parenleft
ENCODING 40
SWIDTH 407 0
DWIDTH 7 0
BBX 6 16 0 -2
BITMAP
0C
18
30
30
60
60
60
C0
C0
C0
C0
C0
60
60
30
18
ENDCHAR
STARTCHAR parenright
ENCODING 41
SWIDTH 407 0
DWIDTH 8 0
BBX 6 16 0 -2
BITMAP
60
30
18
18
0C
0C
0C
0C
0C
18
18
18
30
30
60
C0
ENDCHAR
STARTCHAR asterisk
ENCODING 42
SWIDTH 500 0
DWIDTH 9 0
BBX 8 8 0 6
BITMAP
0C
6C
6B
1F
F8
D6
36
30
ENDCHAR
STARTCHAR plus
ENCODING 43
SWIDTH 606 0
DWIDTH 10 0
BBX 10 10 -1 1
BITMAP
0C00
0C00
0C00
0C00
FFC0
FFC0
0C00
0C00
0C00
0C00
ENDCHAR
STARTCHAR comma
ENCODING 44
SWIDTH 287 0
DWIDTH 5 0
BBX 4 7 -1 -3
BITMAP
60
F0
F0
70
20
40
80
ENDCHAR
STARTCHAR hyphen
ENCODING 45
SWIDTH 333 0
DWIDTH 6 0
BBX 5 2 0 5
BITMAP
F8
F8
ENDCHAR
STARTCHAR period
ENCODING 46
SWIDTH 287 0
DWIDTH 5 0
BBX 4 4 -1 0
BITMAP
60
F0
F0
60
ENDCHAR
STARTCHAR slash
ENCODING 47
SWIDTH 278 0
DWIDTH 7 0
BBX 6 14 0 0
BITMAP
0C
0C
0C
18
18
18
30
30
30
60
60
60
C0
C0
ENDCHAR
STARTCHAR zero
ENCODING 48
SWIDTH 574 0
DWIDTH 10 0
BBX 9 14 0 0
BITMAP
0E00
3B00
7380
7380
7380
E380
E380
E380
E380
E700
E700
E700
6E00
3800
ENDCHAR
STARTCHAR one
ENCODING 49
SWIDTH 574 0
DWIDTH 10 0
BBX 7 14 0 0
BITMAP
06
0E
7E
1E
1C
1C
1C
1C
38
38
38
38
38
FE
ENDCHAR
STARTCHAR two
ENCODING 50
SWIDTH 574 0
DWIDTH 10 0
BBX 9 14 -1 0
BITMAP
1F00
2780
7380
7380
3380
0380
0700
0600
0C00
1800
3080
7F80
FF00
FF00
ENDCHAR
STARTCHAR three
ENCODING 51
SWIDTH 574 0
DWIDTH 10 0
BBX 9 14 0 0
BITMAP
1E00
2300
7380
7380
3380
0700
0C00
0600
0700
6700
E700
C700
CE00
7C00
ENDCHAR
STARTCHAR four
ENCODING 52
SWIDTH 574 0
DWIDTH 10 0
BBX 9 14 0 0
BITMAP
0180
0380
0700
0F00
1700
1700
2600
4E00
4E00
8E00
FF80
0E00
0E00
3F80
ENDCHAR
STARTCHAR five
ENCODING 53
SWIDTH 574 0
DWIDTH 10 0
BBX 10 14 -1 0
BITMAP
1FC0
1F80
1F00
3000
2000
3F00
2780
0380
0380
6380
E300
C700
C600
7800
ENDCHAR
STARTCHAR six
ENCODING 54
SWIDTH 574 0
DWIDTH 10 0
BBX 9 14 0 0
BITMAP
0F00
3980
3380
7300
7000
E000
EF00
F380
E380
E380
E300
E700
6600
3800
ENDCHAR
STARTCHAR seven
ENCODING 55
SWIDTH 574 0
DWIDTH 10 0
BBX 9 14 0 0
BITMAP
7F80
7F80
FF80
8300
0600
0600
0C00
0C00
1C00
1C00
3800
3800
3800
3000
ENDCHAR
STARTCHAR eight
ENCODING 56
SWIDTH 574 0
DWIDTH 10 0
BBX 9 14 0 0
BITMAP
0F00
3980
3080
7080
7900
3E00
1E00
3F00
6780
C380
C380
C300
E600
7800
ENDCHAR
STARTCHAR nine
ENCODING 57
SWIDTH 574 0
DWIDTH 10 0
BBX 9 14 0 0
BITMAP
0E00
3300
7380
6380
E380
E380
E780
7B80
0380
0700
6700
E600
CE00
7800
ENDCHAR
STARTCHAR colon
ENCODING 58
SWIDTH 287 0
DWIDTH 5 0
BBX 5 9 -1 0
BITMAP
30
78
78
30
00
60
F0
F0
60
ENDCHAR
STARTCHAR semicolon
ENCODING 59
SWIDTH 287 0
DWIDTH 5 0
BBX 5 12 -1 -3
BITMAP
30
78
78
30
00
60
F0
F0
70
20
40
80
ENDCHAR
STARTCHAR less
ENCODING 60
SWIDTH 606 0
DWIDTH 10 0
BBX 9 9 0 1
BITMAP
0180
0780
1E00
7800
E000
7800
1E00
0780
0180
ENDCHAR
STARTCHAR equal
ENCODING 61
SWIDTH 606 0
DWIDTH 10 0
BBX 9 6 0 3
BITMAP
FF80
FF80
0000
0000
FF80
FF80
ENDCHAR
STARTCHAR greater
ENCODING 62
SWIDTH 606 0
DWIDTH 10 0
BBX 9 9 0 1
BITMAP
C000
F000
3C00
0F00
0380
0F00
3C00
F000
C000
ENDCHAR
STARTCHAR question
ENCODING 63
SWIDTH 481 0
DWIDTH 8 0
BBX 7 14 1 0
BITMAP
7C
CE
8E
1E
3C
78
F0
E4
78
00
60
F0
F0
60
ENDCHAR
STARTCHAR at
ENCODING 64
SWIDTH 747 0
DWIDTH 15 0
BBX 14 14 0 0
BITMAP
07F0
1C18
300C
6764
4CE4
CC64
98C4
98CC
98C8
99D8
CE70
4000
7030
1FE0
ENDCHAR
STARTCHAR A
ENCODING 65
SWIDTH 741 0
DWIDTH 13 0
BBX 14 14 -2 0
BITMAP
0080
0180
01C0
03C0
03C0
05E0
0CE0
08E0
18F0
1070
3FF0
2078
6078
F0FC
ENDCHAR
STARTCHAR B
ENCODING 66
SWIDTH 759 0
DWIDTH 15 0
BBX 14 14 0 0
BITMAP
3FF8
1E3C
1C3C
1C3C
1C38
1C70
1FC0
3CF0
3878
3878
3878
3878
78F0
FFC0
ENDCHAR
STARTCHAR C
ENCODING 67
SWIDTH 759 0
DWIDTH 14 0
BBX 13 14 0 0
BITMAP
07E8
1E38
3C18
7810
7810
F800
F000
F000
F000
F000
7810
7810
3C60
0FC0
ENDCHAR
STARTCHAR D
ENCODING 68
SWIDTH 833 0
DWIDTH 16 0
BBX 15 14 0 0
BITMAP
3FE0
1E78
1C1C
1C1C
1C1E
1C1E
1C1E
3C1E
381E
383C
383C
3878
78F0
FFC0
ENDCHAR
STARTCHAR E
ENCODING 69
SWIDTH 741 0
DWIDTH 15 0
BBX 14 14 0 0
BITMAP
3FFC
1E1C
1C08
1C08
1C28
1C60
1FE0
3CC0
3840
3848
3818
3830
7870
FFF0
ENDCHAR
STARTCHAR F
ENCODING 70
SWIDTH 704 0
DWIDTH 15 0
BBX 14 14 0 0
BITMAP
3FFC
1E1C
1C08
1C08
1C28
1C60
1FE0
3CC0
3840
3840
3800
3800
7800
FC00
ENDCHAR
STARTCHAR G
ENCODING 71
SWIDTH 815 0
DWIDTH 15 0
BBX 14 14 0 0
BITMAP
07F4
1E1C
3C0C
7808
7808
F000
F000
F000
F0FC
F038
7038
7870
38F0
0FD0
ENDCHAR
STARTCHAR H
ENCODING 72
SWIDTH 870 0
DWIDTH 17 0
BBX 16 14 0 0
BITMAP
3F3F
1E1E
1C1C
1C1C
1C1C
1C1C
1FFC
3C38
3838
3838
3838
3838
7878
FCFC
ENDCHAR
STARTCHAR I
ENCODING 73
SWIDTH 444 0
DWIDTH 9 0
BBX 8 14 0 0
BITMAP
3F
1E
1C
1C
1C
1C
1C
3C
38
38
38
38
78
FC
ENDCHAR
STARTCHAR J
ENCODING 74
SWIDTH 667 0
DWIDTH 12 0
BBX 13 14 -1 0
BITMAP
03F8
01F0
00E0
00E0
00E0
00E0
01E0
01E0
01C0
61C0
F3C0
F3C0
6780
3E00
ENDCHAR
STARTCHAR K
ENCODING 75
SWIDTH 778 0
DWIDTH 16 0
BBX 16 14 0 0
BITMAP
3F1F
1E0C
1C18
1C30
1C60
1CC0
1DC0
3FC0
3DE0
38E0
38F0
3870
7878
FCFC
ENDCHAR
STARTCHAR L
ENCODING 76
SWIDTH 704 0
DWIDTH 14 0
BBX 13 14 0 0
BITMAP
3F00
1E00
1C00
1C00
1C00
1C00
3C00
3C00
3800
3808
3818
3830
7870
FFF0
ENDCHAR
STARTCHAR M
ENCODING 77
SWIDTH 944 0
DWIDTH 19 0
BBX 19 14 -1 0
BITMAP
3C03E0
1E03C0
1E07C0
1E07C0
1F0F80
170B80
171B80
139380
33B380
23E380
21C380
21C780
618780
F18FC0
ENDCHAR
STARTCHAR N
ENCODING 78
SWIDTH 852 0
DWIDTH 15 0
BBX 16 14 -1 0
BITMAP
380F
1C06
1E06
1E04
1F04
1784
13CC
11C8
30E8
20F8
2078
2038
6030
F010
ENDCHAR
STARTCHAR O
ENCODING 79
SWIDTH 833 0
DWIDTH 15 0
BBX 14 14 0 0
BITMAP
07C0
1C70
3838
783C
701C
F01C
E01C
E01C
E03C
E038
F078
7070
38E0
0F80
ENDCHAR
STARTCHAR P
ENCODING 80
SWIDTH 741 0
DWIDTH 14 0
BBX 13 14 0 0
BITMAP
3FF0
1E78
1C38
1C38
1C38
1C38
1C70
3FC0
3C00
3800
3800
3800
7800
FC00
ENDCHAR
STARTCHAR Q
ENCODING 81
SWIDTH 833 0
DWIDTH 15 0
BBX 14 17 0 -3
BITMAP
07C0
1C70
3838
7838
701C
F01C
E01C
E01C
E03C
E638
6978
71F0
39E0
0FC0
01C0
01D0
00E0
ENDCHAR
STARTCHAR R
ENCODING 82
SWIDTH 796 0
DWIDTH 15 0
BBX 14 14 0 0
BITMAP
3FF0
1E7C
1C3C
1C3C
1C38
1C70
1FC0
3CE0
38E0
38F0
3870
3874
787C
FC38
ENDCHAR
STARTCHAR S
ENCODING 83
SWIDTH 685 0
DWIDTH 13 0
BBX 12 14 0 0
BITMAP
0F90
1870
3030
7020
7820
7E00
3F80
1FC0
07E0
41E0
40E0
C0C0
E1C0
9F00
ENDCHAR
STARTCHAR T
ENCODING 84
SWIDTH 722 0
DWIDTH 13 0
BBX 13 14 0 0
BITMAP
7FF8
6738
C710
8710
8710
0700
0E00
0E00
0E00
0E00
0E00
0E00
1E00
3F00
ENDCHAR
STARTCHAR U
ENCODING 85
SWIDTH 833 0
DWIDTH 15 0
BBX 15 14 0 0
BITMAP
7E1E
3C0C
3C08
3808
3818
7810
7810
7010
7030
F020
F020
F060
78C0
3F80
ENDCHAR
STARTCHAR V
ENCODING 86
SWIDTH 741 0
DWIDTH 14 0
BBX 14 14 0 0
BITMAP
FC3C
7818
7810
3830
3820
3C60
3C40
1CC0
1C80
1D80
1F00
0E00
0E00
0C00
ENDCHAR
STARTCHAR W
ENCODING 87
SWIDTH 944 0
DWIDTH 20 0
BBX 20 14 0 0
BITMAP
FCFCF0
787860
787840
787840
38F8C0
38B880
3DBD80
3D3D00
1D1D00
1E1E00
1E1E00
1C1C00
0C0C00
080800
ENDCHAR
STARTCHAR X
ENCODING 88
SWIDTH 741 0
DWIDTH 14 0
BBX 16 14 -2 0
BITMAP
1F9F
0F0E
070C
0798
03B0
03E0
01C0
03C0
07E0
0CE0
18F0
3070
7078
F8FC
ENDCHAR
STARTCHAR Y
ENCODING 89
SWIDTH 704 0
DWIDTH 13 0
BBX 13 14 0 0
BITMAP
FC78
7830
3860
3CC0
1C80
1D80
0F00
0F00
0E00
0E00
0E00
1E00
1E00
3F00
ENDCHAR
STARTCHAR Z
ENCODING 90
SWIDTH 704 0
DWIDTH 14 0
BBX 13 14 0 0
BITMAP
3FF8
30F8
61F0
41E0
03C0
0780
0700
0F00
1E00
3C00
3C10
7830
F060
FFE0
ENDCHAR
STARTCHAR bracketleft
ENCODING 91
SWIDTH 407 0
DWIDTH 7 0
BBX 6 16 0 -2
BITMAP
3C
30
30
30
30
60
60
60
60
60
C0
C0
C0
C0
C0
F0
ENDCHAR
STARTCHAR backslash
ENCODING 92
SWIDTH 606 0
DWIDTH 11 0
BBX 8 14 1 0
BITMAP
C0
C0
60
60
30
30
18
18
0C
0C
06
06
03
03
ENDCHAR
STARTCHAR bracketright
ENCODING 93
SWIDTH 407 0
DWIDTH 7 0
BBX 6 16 0 -2
BITMAP
3C
0C
0C
0C
0C
18
18
18
18
18
30
30
30
30
30
F0
ENDCHAR
STARTCHAR asciicircum
ENCODING 94
SWIDTH 606 0
DWIDTH 10 0
BBX 9 9 0 5
BITMAP
0800
1C00
1C00
3600
3600
6300
6300
C180
C180
ENDCHAR
STARTCHAR underscore
ENCODING 95
SWIDTH 500 0
DWIDTH 11 0
BBX 11 2 0 -3
BITMAP
FFE0
FFE0
ENDCHAR
STARTCHAR grave
ENCODING 96
SWIDTH 333 0
DWIDTH 6 0
BBX 5 4 0 10
BITMAP
C0
E0
70
18
ENDCHAR
STARTCHAR a
ENCODING 97
SWIDTH 667 0
DWIDTH 12 0
BBX 11 9 0 0
BITMAP
0DC0
33C0
71C0
E1C0
E1C0
E380
E380
67A0
39C0
ENDCHAR
STARTCHAR b
ENCODING 98
SWIDTH 611 0
DWIDTH 11 0
BBX 10 14 0 0
BITMAP
7800
3800
3800
3800
7000
7700
7980
71C0
F1C0
E1C0
E1C0
E380
6300
3C00
ENDCHAR
STARTCHAR c
ENCODING 99
SWIDTH 537 0
DWIDTH 10 0
BBX 9 9 0 0
BITMAP
0F00
3180
7380
E300
E000
E000
E000
6300
3C00
ENDCHAR
STARTCHAR d
ENCODING 100
SWIDTH 667 0
DWIDTH 13 0
BBX 12 14 0 0
BITMAP
00F0
0070
0070
0070
00E0
0EE0
31E0
70E0
E0E0
E1C0
E1C0
E1C0
63D0
3CE0
ENDCHAR
STARTCHAR e
ENCODING 101
SWIDTH 519 0
DWIDTH 10 0
BBX 9 9 0 0
BITMAP
0F00
3180
7180
E380
E700
F800
E000
6300
3C00
ENDCHAR
STARTCHAR f
ENCODING 102
SWIDTH 389 0
DWIDTH 7 0
BBX 9 18 0 -4
BITMAP
0700
1D80
1980
3800
3800
FE00
7000
7000
7000
7000
7000
E000
E000
E000
E000
E000
E000
C000
ENDCHAR
STARTCHAR g
ENCODING 103
SWIDTH 611 0
DWIDTH 12 0
BBX 13 15 -1 -4
BITMAP
0018
0038
07C0
18E0
38E0
38E0
38C0
0F00
1800
3800
3F80
7FC0
C0C0
C1C0
7F00
ENDCHAR
STARTCHAR h
ENCODING 104
SWIDTH 685 0
DWIDTH 12 0
BBX 11 14 0 0
BITMAP
7800
3800
3800
3800
7000
7380
77C0
79C0
71C0
E1C0
E380
E380
E3A0
E3C0
ENDCHAR
STARTCHAR i
ENCODING 105
SWIDTH 389 0
DWIDTH 6 0
BBX 5 13 0 0
BITMAP
38
38
00
00
F0
70
70
70
E0
E0
E0
E8
F0
ENDCHAR
STARTCHAR j
ENCODING 106
SWIDTH 370 0
DWIDTH 5 0
BBX 10 17 -5 -4
BITMAP
01C0
01C0
0000
0000
0780
0380
0380
0700
0700
0700
0700
0E00
0E00
0E00
CE00
CC00
7000
ENDCHAR
STARTCHAR k
ENCODING 107
SWIDTH 648 0
DWIDTH 11 0
BBX 11 14 0 0
BITMAP
7800
3800
3800
3800
7000
7380
77C0
79C0
7180
F600
E700
E720
E3C0
E380
ENDCHAR
STARTCHAR l
ENCODING 108
SWIDTH 389 0
DWIDTH 6 0
BBX 5 14 0 0
BITMAP
78
38
38
38
70
70
70
70
70
E0
E0
E0
E8
F0
ENDCHAR
STARTCHAR m
ENCODING 109
SWIDTH 944 0
DWIDTH 18 0
BBX 17 9 0 0
BITMAP
F38E00
77DF00
79E700
71C700
71C700
E38E00
E38E00
E38E80
E38F00
ENDCHAR
STARTCHAR n
ENCODING 110
SWIDTH 685 0
DWIDTH 12 0
BBX 11 9 0 0
BITMAP
F380
77C0
79C0
71C0
71C0
E380
E380
E3A0
E3C0
ENDCHAR
STARTCHAR o
ENCODING 111
SWIDTH 574 0
DWIDTH 11 0
BBX 10 9 0 0
BITMAP
0F00
3180
71C0
E1C0
E1C0
E1C0
E380
6300
3C00
ENDCHAR
STARTCHAR p
ENCODING 112
SWIDTH 648 0
DWIDTH 12 0
BBX 12 13 -1 -4
BITMAP
3DC0
1E60
1C70
1C70
3870
3870
38E0
38C0
3F00
7000
7000
7000
F800
ENDCHAR
STARTCHAR q
ENCODING 113
SWIDTH 630 0
DWIDTH 12 0
BBX 11 13 0 -4
BITMAP
0E60
31E0
70E0
E0E0
E1C0
E1C0
E1C0
63C0
3DC0
0380
0380
0380
07C0
ENDCHAR
STARTCHAR r
ENCODING 114
SWIDTH 519 0
DWIDTH 9 0
BBX 9 9 0 0
BITMAP
F380
7780
7B00
7000
7000
E000
E000
E000
E000
ENDCHAR
STARTCHAR s
ENCODING 115
SWIDTH 481 0
DWIDTH 10 0
BBX 9 9 0 0
BITMAP
0F00
3380
7300
7800
3E00
0F00
6700
E600
7800
ENDCHAR
STARTCHAR t
ENCODING 116
SWIDTH 407 0
DWIDTH 8 0
BBX 7 12 1 0
BITMAP
38
38
38
FE
70
70
70
E0
E0
E0
E8
F0
ENDCHAR
STARTCHAR u
ENCODING 117
SWIDTH 685 0
DWIDTH 12 0
BBX 11 9 0 0
BITMAP
F1C0
71C0
71C0
71C0
E380
E380
E780
FBA0
73C0
ENDCHAR
STARTCHAR v
ENCODING 118
SWIDTH 556 0
DWIDTH 10 0
BBX 9 9 0 0
BITMAP
F300
7380
7180
7080
E080
E100
E300
7E00
3800
ENDCHAR
STARTCHAR w
ENCODING 119
SWIDTH 833 0
DWIDTH 16 0
BBX 15 9 0 0
BITMAP
F1CC
71CE
71C6
71C2
E382
E384
E38C
7DF8
38E0
ENDCHAR
STARTCHAR x
ENCODING 120
SWIDTH 574 0
DWIDTH 11 0
BBX 10 9 0 0
BITMAP
38C0
79C0
1E00
1C00
0E00
1E00
3740
E780
C300
ENDCHAR
STARTCHAR y
ENCODING 121
SWIDTH 519 0
DWIDTH 10 0
BBX 10 13 -1 -4
BITMAP
30C0
78C0
B840
1C80
1C80
0F00
0F00
0600
0600
0400
C800
F000
6000
ENDCHAR
STARTCHAR z
ENCODING 122
SWIDTH 519 0
DWIDTH 11 0
BBX 10 9 0 0
BITMAP
1EC0
3F80
4300
0600
0C00
1800
3080
7F00
DE00
ENDCHAR
STARTCHAR braceleft
ENCODING 123
SWIDTH 407 0
DWIDTH 8 0
BBX 7 16 0 -2
BITMAP
0E
18
18
18
30
30
30
C0
60
60
60
60
60
60
60
38
ENDCHAR
STARTCHAR bar
ENCODING 124
SWIDTH 606 0
DWIDTH 11 0
BBX 2 14 4 0
BITMAP
C0
C0
C0
C0
C0
C0
C0
C0
C0
C0
C0
C0
C0
C0
ENDCHAR
STARTCHAR braceright
ENCODING 125
SWIDTH 407 0
DWIDTH 8 0
BBX 7 16 0 -2
BITMAP
38
0C
0C
0C
0C
0C
0C
06
18
18
18
18
30
30
30
E0
ENDCHAR
STARTCHAR asciitilde
ENCODING 126
SWIDTH 606 0
DWIDTH 11 0
BBX 10 3 0 5
BITMAP
78C0
FFC0
C780
ENDCHAR
STARTCHAR space
ENCODING 160
SWIDTH 287 0
DWIDTH 5 0
BBX 1 1 0 0
BITMAP
00
ENDCHAR
STARTCHAR exclamdown
ENCODING 161
SWIDTH 333 0
DWIDTH 8 0
BBX 7 14 0 -4
BITMAP
0C
1E
1E
0C
00
18
18
38
38
70
70
F0
F0
60
ENDCHAR
STARTCHAR cent
ENCODING 162
SWIDTH 574 0
DWIDTH 11 0
BBX 10 13 0 -2
BITMAP
0100
0100
0F80
32C0
73C0
E580
E400
E400
E800
6980
3E00
1000
1000
ENDCHAR
STARTCHAR sterling
ENCODING 163
SWIDTH 574 0
DWIDTH 12 0
BBX 11 14 0 0
BITMAP
03C0
0E60
0CE0
1CC0
1C00
1C00
1C00
7FC0
0E00
0E00
0C00
7820
9FC0
EF80
ENDCHAR
STARTCHAR currency
ENCODING 164
SWIDTH 574 0
DWIDTH 12 0
BBX 11 9 0 2
BITMAP
DF60
FFE0
3180
60C0
60C0
60C0
3180
FFE0
DF60
ENDCHAR
STARTCHAR yen
ENCODING 165
SWIDTH 574 0
DWIDTH 13 0
BBX 12 14 1 0
BITMAP
FCF0
7060
7040
3880
3880
1D00
1D00
7FC0
0E00
7FC0
0C00
1C00
1C00
3E00
ENDCHAR
STARTCHAR brokenbar
ENCODING 166
SWIDTH 606 0
DWIDTH 11 0
BBX 2 14 4 0
BITMAP
C0
C0
C0
C0
C0
C0
00
00
C0
C0
C0
C0
C0
C0
ENDCHAR
STARTCHAR section
ENCODING 167
SWIDTH 500 0
DWIDTH 12 0
BBX 9 17 1 -3
BITMAP
0F00
1980
3380
3B00
3C00
5E00
CF00
E780
F380
7980
3D00
1E00
0E00
6600
E600
CC00
7800
ENDCHAR
STARTCHAR dieresis
ENCODING 168
SWIDTH 333 0
DWIDTH 7 0
BBX 6 2 1 11
BITMAP
CC
CC
ENDCHAR
STARTCHAR copyright
ENCODING 169
SWIDTH 747 0
DWIDTH 15 0
BBX 14 14 0 0
BITMAP
0780
1860
2010
47C8
4CC8
9844
9804
9804
9804
4C48
4788
2010
1860
0780
ENDCHAR
STARTCHAR ordfeminine
ENCODING 170
SWIDTH 412 0
DWIDTH 9 0
BBX 8 8 0 6
BITMAP
36
6E
C6
CC
DD
6E
00
FE
ENDCHAR
STARTCHAR guillemotleft
ENCODING 171
SWIDTH 481 0
DWIDTH 10 0
BBX 9 6 0 2
BITMAP
1980
3300
6600
CC00
6600
3300
ENDCHAR
STARTCHAR logicalnot
ENCODING 172
SWIDTH 606 0
DWIDTH 11 0
BBX 9 6 1 3
BITMAP
FF80
FF80
0180
0180
0180
0180
ENDCHAR
STARTCHAR hyphen
ENCODING 173
SWIDTH 333 0
DWIDTH 6 0
BBX 5 2 0 5
BITMAP
F8
F8
ENDCHAR
STARTCHAR registered
ENCODING 174
SWIDTH 747 0
DWIDTH 16 0
BBX 14 14 0 0
BITMAP
0780
1860
2010
5F88
4CC8
8CC4
8C84
8F04
8D84
4CC8
5EE8
2010
1860
0780
ENDCHAR
STARTCHAR macron
ENCODING 175
SWIDTH 333 0
DWIDTH 7 0
BBX 6 2 1 11
BITMAP
FC
FC
ENDCHAR
STARTCHAR degree
ENCODING 176
SWIDTH 400 0
DWIDTH 7 0
BBX 6 6 0 8
BITMAP
78
CC
84
84
CC
78
ENDCHAR
STARTCHAR plusminus
ENCODING 177
SWIDTH 606 0
DWIDTH 10 0
BBX 10 9 -1 1
BITMAP
0C00
0C00
FFC0
FFC0
0C00
0C00
0000
FFC0
FFC0
ENDCHAR
STARTCHAR twosuperior
ENCODING 178
SWIDTH 344 0
DWIDTH 6 0
BBX 7 8 -1 6
BITMAP
3C
66
66
0C
18
30
7C
FC
ENDCHAR
STARTCHAR threesuperior
ENCODING 179
SWIDTH 344 0
DWIDTH 6 0
BBX 7 8 -1 6
BITMAP
3C
66
06
38
0C
8C
CC
78
ENDCHAR
STARTCHAR acute
ENCODING 180
SWIDTH 333 0
DWIDTH 6 0
BBX 5 4 1 11
BITMAP
18
38
70
C0
ENDCHAR
STARTCHAR mu
ENCODING 181
SWIDTH 576 0
DWIDTH 12 0
BBX 13 13 -2 -4
BITMAP
3C70
1C70
1C70
1C70
38E0
38E0
39E0
7EE8
7CF0
6000
E000
F000
6000
ENDCHAR
STARTCHAR paragraph
ENCODING 182
SWIDTH 650 0
DWIDTH 12 0
BBX 11 14 0 0
BITMAP
3FE0
F6C0
E6C0
E6C0
E6C0
ED80
7D80
0D80
0D80
1B00
1B00
1B00
1B00
3F80
ENDCHAR
STARTCHAR periodcentered
ENCODING 183
SWIDTH 287 0
DWIDTH 7 0
BBX 4 4 1 4
BITMAP
60
F0
F0
60
ENDCHAR
STARTCHAR cedilla
ENCODING 184
SWIDTH 333 0
DWIDTH 5 0
BBX 4 4 0 -4
BITMAP
20
70
30
E0
ENDCHAR
STARTCHAR onesuperior
ENCODING 185
SWIDTH 344 0
DWIDTH 6 0
BBX 4 8 0 6
BITMAP
10
70
30
30
60
60
60
F0
ENDCHAR
STARTCHAR ordmasculine
ENCODING 186
SWIDTH 356 0
DWIDTH 8 0
BBX 7 8 0 6
BITMAP
3C
66
C6
C6
CC
78
00
FE
ENDCHAR
STARTCHAR guillemotright
ENCODING 187
SWIDTH 481 0
DWIDTH 10 0
BBX 9 6 0 2
BITMAP
6600
3300
1980
3300
6600
CC00
ENDCHAR
STARTCHAR onequarter
ENCODING 188
SWIDTH 861 0
DWIDTH 15 0
BBX 13 14 0 0
BITMAP
1060
7040
30C0
3080
6180
6100
6318
F238
0458
0CB0
0930
1BF8
1060
30F0
ENDCHAR
STARTCHAR onehalf
ENCODING 189
SWIDTH 861 0
DWIDTH 15 0
BBX 14 14 0 0
BITMAP
1060
7040
30C0
3080
6180
6100
6378
F2CC
04CC
0C18
0830
1860
10F8
31F8
ENDCHAR
STARTCHAR threequarters
ENCODING 190
SWIDTH 861 0
DWIDTH 15 0
BBX 14 14 -1 0
BITMAP
3C30
6620
0660
3840
0CC0
8C80
CD8C
791C
022C
0658
0498
0DFC
0830
1878
ENDCHAR
STARTCHAR questiondown
ENCODING 191
SWIDTH 481 0
DWIDTH 8 0
BBX 7 14 -1 -4
BITMAP
0C
1E
1E
0C
00
3C
4E
1E
3C
78
F0
E2
E6
7C
ENDCHAR
STARTCHAR Agrave
ENCODING 192
SWIDTH 741 0
DWIDTH 13 0
BBX 14 19 -2 0
BITMAP
0600
0700
0380
00C0
0000
0080
0180
01C0
03C0
03C0
05E0
0CE0
08E0
18F0
1070
3FF0
2078
6078
F0FC
ENDCHAR
STARTCHAR Aacute
ENCODING 193
SWIDTH 741 0
DWIDTH 13 0
BBX 14 19 -2 0
BITMAP
0030
0070
00E0
0180
0000
0080
0180
01C0
03C0
03C0
05E0
0CE0
08E0
18F0
1070
3FF0
2078
6078
F0FC
ENDCHAR
STARTCHAR Acircumflex
ENCODING 194
SWIDTH 741 0
DWIDTH 13 0
BBX 14 19 -2 0
BITMAP
00E0
01E0
0330
0630
0000
0080
0180
01C0
03C0
03C0
05E0
0CE0
08E0
18F0
1070
3FF0
2078
6078
F0FC
ENDCHAR
STARTCHAR Atilde
ENCODING 195
SWIDTH 741 0
DWIDTH 13 0
BBX 14 18 -2 0
BITMAP
0188
03F0
0460
0000
0080
0180
01C0
03C0
03C0
05E0
0CE0
08E0
18F0
1070
3FF0
2078
6078
F0FC
ENDCHAR
STARTCHAR Adieresis
ENCODING 196
SWIDTH 741 0
DWIDTH 13 0
BBX 14 17 -2 0
BITMAP
0330
0330
0000
0080
0180
01C0
03C0
03C0
05E0
0CE0
08E0
18F0
1070
3FF0
2078
6078
F0FC
ENDCHAR
STARTCHAR Aring
ENCODING 197
SWIDTH 741 0
DWIDTH 13 0
BBX 14 19 -2 0
BITMAP
00C0
0120
0120
00C0
0000
0080
0180
01C0
03C0
03C0
05E0
0CE0
08E0
18F0
1070
3FF0
2078
6078
F0FC
ENDCHAR
STARTCHAR AE
ENCODING 198
SWIDTH 889 0
DWIDTH 21 0
BBX 21 14 -1 0
BITMAP
03FFF8
009C38
019C10
011C10
023850
0638C0
043FC0
083980
1FF880
107090
307030
207060
60F0E0
F1FFE0
ENDCHAR
STARTCHAR Ccedilla
ENCODING 199
SWIDTH 759 0
DWIDTH 14 0
BBX 13 18 0 -4
BITMAP
07E8
1E38
3C18
7810
7810
F800
F000
F000
F000
F000
7810
7810
3C60
0FC0
0200
0700
0300
0E00
ENDCHAR
STARTCHAR Egrave
ENCODING 200
SWIDTH 741 0
DWIDTH 15 0
BBX 14 19 0 0
BITMAP
0600
0700
0380
00C0
0000
3FFC
1E1C
1C08
1C08
1C28
1C60
1FE0
3CC0
3840
3848
3818
3830
7870
FFF0
ENDCHAR
STARTCHAR Eacute
ENCODING 201
SWIDTH 741 0
DWIDTH 15 0
BBX 14 19 0 0
BITMAP
0030
0070
00E0
0180
0000
3FFC
1E1C
1C08
1C08
1C28
1C60
1FE0
3CC0
3840
3848
3818
3830
7870
FFF0
ENDCHAR
STARTCHAR Ecircumflex
ENCODING 202
SWIDTH 741 0
DWIDTH 15 0
BBX 14 19 0 0
BITMAP
00E0
01E0
0330
0630
0000
3FFC
1E1C
1C08
1C08
1C28
1C60
1FE0
3CC0
3840
3848
3818
3830
7870
FFF0
ENDCHAR
STARTCHAR Edieresis
ENCODING 203
SWIDTH 741 0
DWIDTH 15 0
BBX 14 17 0 0
BITMAP
0330
0330
0000
3FFC
1E1C
1C08
1C08
1C28
1C60
1FE0
3CC0
3840
3848
3818
3830
7870
FFF0
ENDCHAR
STARTCHAR Igrave
ENCODING 204
SWIDTH 444 0
DWIDTH 9 0
BBX 8 19 0 0
BITMAP
30
38
1C
06
00
3F
1E
1C
1C
1C
1C
1C
3C
38
38
38
38
78
FC
ENDCHAR
STARTCHAR Iacute
ENCODING 205
SWIDTH 444 0
DWIDTH 9 0
BBX 9 19 0 0
BITMAP
0180
0380
0700
0C00
0000
3F00
1E00
1C00
1C00
1C00
1C00
1C00
3C00
3800
3800
3800
3800
7800
FC00
ENDCHAR
STARTCHAR Icircumflex
ENCODING 206
SWIDTH 444 0
DWIDTH 9 0
BBX 9 19 0 0
BITMAP
0700
0F00
1980
3180
0000
3F00
1E00
1C00
1C00
1C00
1C00
1C00
3C00
3800
3800
3800
3800
7800
FC00
ENDCHAR
STARTCHAR Idieresis
ENCODING 207
SWIDTH 444 0
DWIDTH 9 0
BBX 8 17 0 0
BITMAP
33
33
00
3F
1E
1C
1C
1C
1C
1C
3C
38
38
38
38
78
FC
ENDCHAR
STARTCHAR Eth
ENCODING 208
SWIDTH 833 0
DWIDTH 16 0
BBX 15 14 0 0
BITMAP
3FE0
1E78
1C1C
1C1C
1C1E
1C1E
7F1E
3C1E
381E
383C
383C
3878
78F0
FFC0
ENDCHAR
STARTCHAR Ntilde
ENCODING 209
SWIDTH 852 0
DWIDTH 15 0
BBX 16 18 -1 0
BITMAP
00C4
01F8
0230
0000
380F
1C06
1E06
1E04
1F04
1784
13CC
11C8
30E8
20F8
2078
2038
6030
F010
ENDCHAR
STARTCHAR Ograve
ENCODING 210
SWIDTH 833 0
DWIDTH 15 0
BBX 14 19 0 0
BITMAP
0C00
0E00
0700
0180
0000
07C0
1C70
3838
783C
701C
F01C
E01C
E01C
E03C
E038
F078
7070
38E0
0F80
ENDCHAR
STARTCHAR Oacute
ENCODING 211
SWIDTH 833 0
DWIDTH 15 0
BBX 14 19 0 0
BITMAP
0060
00E0
01C0
0300
0000
07C0
1C70
3838
783C
701C
F01C
E01C
E01C
E03C
E038
F078
7070
38E0
0F80
ENDCHAR
STARTCHAR Ocircumflex
ENCODING 212
SWIDTH 833 0
DWIDTH 15 0
BBX 14 19 0 0
BITMAP
00E0
01E0
0330
0630
0000
07C0
1C70
3838
783C
701C
F01C
E01C
E01C
E03C
E038
F078
7070
38E0
0F80
ENDCHAR
STARTCHAR Otilde
ENCODING 213
SWIDTH 833 0
DWIDTH 15 0
BBX 14 18 0 0
BITMAP
0310
07E0
08C0
0000
07C0
1C70
3838
783C
701C
F01C
E01C
E01C
E03C
E038
F078
7070
38E0
0F80
ENDCHAR
STARTCHAR Odieresis
ENCODING 214
SWIDTH 833 0
DWIDTH 15 0
BBX 14 17 0 0
BITMAP
0660
0660
0000
07C0
1C70
3838
783C
701C
F01C
E01C
E01C
E03C
E038
F078
7070
38E0
0F80
ENDCHAR
STARTCHAR multiply
ENCODING 215
SWIDTH 606 0
DWIDTH 10 0
BBX 9 10 0 1
BITMAP
8080
C180
6300
3600
1C00
1C00
3600
6300
C180
8080
ENDCHAR
STARTCHAR Oslash
ENCODING 216
SWIDTH 833 0
DWIDTH 15 0
BBX 16 15 -1 0
BITMAP
0001
03F3
0E3E
1C1C
383E
386E
70CE
718E
730E
760E
7C1C
381C
7838
DC70
87C0
ENDCHAR
STARTCHAR Ugrave
ENCODING 217
SWIDTH 833 0
DWIDTH 15 0
BBX 15 19 0 0
BITMAP
0300
0380
01C0
0060
0000
7E1E
3C0C
3C08
3808
3818
7810
7810
7010
7030
F020
F020
F060
78C0
3F80
ENDCHAR
STARTCHAR Uacute
ENCODING 218
SWIDTH 833 0
DWIDTH 15 0
BBX 15 19 0 0
BITMAP
0018
0038
0070
00C0
0000
7E1E
3C0C
3C08
3808
3818
7810
7810
7010
7030
F020
F020
F060
78C0
3F80
ENDCHAR
STARTCHAR Ucircumflex
ENCODING 219
SWIDTH 833 0
DWIDTH 15 0
BBX 15 19 0 0
BITMAP
0070
00F0
0198
0318
0000
7E1E
3C0C
3C08
3808
3818
7810
7810
7010
7030
F020
F020
F060
78C0
3F80
ENDCHAR
STARTCHAR Udieresis
ENCODING 220
SWIDTH 833 0
DWIDTH 15 0
BBX 15 17 0 0
BITMAP
0330
0330
0000
7E1E
3C0C
3C08
3808
3818
7810
7810
7010
7030
F020
F020
F060
78C0
3F80
ENDCHAR
STARTCHAR Yacute
ENCODING 221
SWIDTH 704 0
DWIDTH 13 0
BBX 13 19 0 0
BITMAP
0060
00E0
01C0
0300
0000
FC78
7830
3860
3CC0
1C80
1D80
0F00
0F00
0E00
0E00
0E00
1E00
1E00
3F00
ENDCHAR
STARTCHAR Thorn
ENCODING 222
SWIDTH 741 0
DWIDTH 14 0
BBX 12 14 0 0
BITMAP
3E00
1C00
1C00
1FE0
1CF0
1C70
3C70
3870
3860
38E0
3F80
3800
7800
FC00
ENDCHAR
STARTCHAR germandbls
ENCODING 223
SWIDTH 574 0
DWIDTH 12 0
BBX 12 18 -1 -4
BITMAP
03C0
0E60
0C70
1C70
1C70
1CE0
3980
38C0
38E0
38E0
70E0
70E0
71C0
7700
E000
E000
E000
C000
ENDCHAR
STARTCHAR agrave
ENCODING 224
SWIDTH 667 0
DWIDTH 12 0
BBX 11 14 0 0
BITMAP
1800
1C00
0E00
0300
0000
0DC0
33C0
71C0
E1C0
E1C0
E380
E380
67A0
39C0
ENDCHAR
STARTCHAR aacute
ENCODING 225
SWIDTH 667 0
DWIDTH 12 0
BBX 11 14 0 0
BITMAP
0180
0380
0700
0C00
0000
0DC0
33C0
71C0
E1C0
E1C0
E380
E380
67A0
39C0
ENDCHAR
STARTCHAR acircumflex
ENCODING 226
SWIDTH 667 0
DWIDTH 12 0
BBX 11 14 0 0
BITMAP
0300
0700
0D80
1980
0000
0DC0
33C0
71C0
E1C0
E1C0
E380
E380
67A0
39C0
ENDCHAR
STARTCHAR atilde
ENCODING 227
SWIDTH 667 0
DWIDTH 12 0
BBX 11 12 0 0
BITMAP
0E80
1700
0000
0DC0
33C0
71C0
E1C0
E1C0
E380
E380
67A0
39C0
ENDCHAR
STARTCHAR adieresis
ENCODING 228
SWIDTH 667 0
DWIDTH 12 0
BBX 11 12 0 0
BITMAP
1980
1980
0000
0DC0
33C0
71C0
E1C0
E1C0
E380
E380
67A0
39C0
ENDCHAR
STARTCHAR aring
ENCODING 229
SWIDTH 667 0
DWIDTH 12 0
BBX 11 14 0 0
BITMAP
0600
0900
0900
0600
0000
0DC0
33C0
71C0
E1C0
E1C0
E380
E380
67A0
39C0
ENDCHAR
STARTCHAR ae
ENCODING 230
SWIDTH 815 0
DWIDTH 16 0
BBX 15 9 0 0
BITMAP
3E3C
7346
63C6
038E
0F9C
73E0
E380
E58C
78F0
ENDCHAR
STARTCHAR ccedilla
ENCODING 231
SWIDTH 537 0
DWIDTH 10 0
BBX 9 13 0 -4
BITMAP
0F00
3180
7380
E300
E000
E000
E000
6300
3C00
0800
1C00
0C00
3800
ENDCHAR
STARTCHAR egrave
ENCODING 232
SWIDTH 519 0
DWIDTH 10 0
BBX 9 14 0 0
BITMAP
3000
3800
1C00
0600
0000
0F00
3180
7180
E380
E700
F800
E000
6300
3C00
ENDCHAR
STARTCHAR eacute
ENCODING 233
SWIDTH 519 0
DWIDTH 10 0
BBX 9 14 0 0
BITMAP
0180
0380
0700
0C00
0000
0F00
3180
7180
E380
E700
F800
E000
6300
3C00
ENDCHAR
STARTCHAR ecircumflex
ENCODING 234
SWIDTH 519 0
DWIDTH 10 0
BBX 9 14 0 0
BITMAP
0300
0700
0D80
1980
0000
0F00
3180
7180
E380
E700
F800
E000
6300
3C00
ENDCHAR
STARTCHAR edieresis
ENCODING 235
SWIDTH 519 0
DWIDTH 10 0
BBX 9 12 0 0
BITMAP
1980
1980
0000
0F00
3180
7180
E380
E700
F800
E000
6300
3C00
ENDCHAR
STARTCHAR igrave
ENCODING 236
SWIDTH 389 0
DWIDTH 6 0
BBX 5 14 0 0
BITMAP
C0
E0
70
18
00
F0
70
70
70
E0
E0
E0
E8
70
ENDCHAR
STARTCHAR iacute
ENCODING 237
SWIDTH 389 0
DWIDTH 6 0
BBX 6 14 0 0
BITMAP
0C
1C
38
60
00
F0
70
70
70
E0
E0
E0
E8
70
ENDCHAR
STARTCHAR icircumflex
ENCODING 238
SWIDTH 389 0
DWIDTH 6 0
BBX 6 14 0 0
BITMAP
18
38
6C
CC
00
F0
70
70
70
E0
E0
E0
E8
70
ENDCHAR
STARTCHAR idieresis
ENCODING 239
SWIDTH 389 0
DWIDTH 6 0
BBX 6 12 0 0
BITMAP
CC
CC
00
F0
70
70
70
E0
E0
E0
E8
70
ENDCHAR
STARTCHAR eth
ENCODING 240
SWIDTH 574 0
DWIDTH 11 0
BBX 10 14 0 0
BITMAP
6000
1B00
1C00
6600
0300
0F80
3180
71C0
E1C0
E1C0
E1C0
E380
6300
3C00
ENDCHAR
STARTCHAR ntilde
ENCODING 241
SWIDTH 685 0
DWIDTH 12 0
BBX 11 12 0 0
BITMAP
0E80
1700
0000
F380
77C0
79C0
71C0
71C0
E380
E380
E3A0
E3C0
ENDCHAR
STARTCHAR ograve
ENCODING 242
SWIDTH 574 0
DWIDTH 11 0
BBX 10 14 0 0
BITMAP
3000
3800
1C00
0600
0000
0F00
3180
71C0
E1C0
E1C0
E1C0
E380
6300
3C00
ENDCHAR
STARTCHAR oacute
ENCODING 243
SWIDTH 574 0
DWIDTH 11 0
BBX 10 14 0 0
BITMAP
0180
0380
0700
0C00
0000
0F00
3180
71C0
E1C0
E1C0
E1C0
E380
6300
3C00
ENDCHAR
STARTCHAR ocircumflex
ENCODING 244
SWIDTH 574 0
DWIDTH 11 0
BBX 10 14 0 0
BITMAP
0300
0700
0D80
1980
0000
0F00
3180
71C0
E1C0
E1C0
E1C0
E380
6300
3C00
ENDCHAR
STARTCHAR otilde
ENCODING 245
SWIDTH 574 0
DWIDTH 11 0
BBX 10 12 0 0
BITMAP
0E80
1700
0000
0F00
3180
71C0
E1C0
E1C0
E1C0
E380
6300
3C00
ENDCHAR
STARTCHAR odieresis
ENCODING 246
SWIDTH 574 0
DWIDTH 11 0
BBX 10 12 0 0
BITMAP
1980
1980
0000
0F00
3180
71C0
E1C0
E1C0
E1C0
E380
6300
3C00
ENDCHAR
STARTCHAR divide
ENCODING 247
SWIDTH 606 0
DWIDTH 10 0
BBX 10 10 -1 1
BITMAP
0C00
0C00
0C00
0000
FFC0
FFC0
0000
0C00
0C00
0C00
ENDCHAR
STARTCHAR oslash
ENCODING 248
SWIDTH 574 0
DWIDTH 11 0
BBX 10 11 0 -1
BITMAP
0100
0F00
3380
75C0
E5C0
E9C0
E9C0
F380
7300
3C00
2000
ENDCHAR
STARTCHAR ugrave
ENCODING 249
SWIDTH 685 0
DWIDTH 12 0
BBX 11 14 0 0
BITMAP
1800
1C00
0E00
0300
0000
F1C0
71C0
71C0
71C0
E380
E380
E780
FBA0
73C0
ENDCHAR
STARTCHAR uacute
ENCODING 250
SWIDTH 685 0
DWIDTH 12 0
BBX 11 14 0 0
BITMAP
0180
0380
0700
0C00
0000
F1C0
71C0
71C0
71C0
E380
E380
E780
FBA0
73C0
ENDCHAR
STARTCHAR ucircumflex
ENCODING 251
SWIDTH 685 0
DWIDTH 12 0
BBX 11 14 0 0
BITMAP
0300
0700
0D80
1980
0000
F1C0
71C0
71C0
71C0
E380
E380
E780
FBA0
73C0
ENDCHAR
STARTCHAR udieresis
ENCODING 252
SWIDTH 685 0
DWIDTH 12 0
BBX 11 12 0 0
BITMAP
1980
1980
0000
F1C0
71C0
71C0
71C0
E380
E380
E780
FBA0
73C0
ENDCHAR
STARTCHAR yacute
ENCODING 253
SWIDTH 519 0
DWIDTH 10 0
BBX 10 18 -1 -4
BITMAP
00C0
01C0
0380
0600
0000
30C0
78C0
B840
1C80
1C80
0F00
0F00
0600
0600
0400
C800
F000
6000
ENDCHAR
STARTCHAR thorn
ENCODING 254
SWIDTH 648 0
DWIDTH 12 0
BBX 12 18 -1 -4
BITMAP
1E00
0E00
0E00
0E00
0C00
1DC0
1E60
1C70
1C70
3870
3870
38E0
38C0
3F00
7000
7000
7000
F800
ENDCHAR
STARTCHAR ydieresis
ENCODING 255
SWIDTH 519 0
DWIDTH 10 0
BBX 10 16 -1 -4
BITMAP
1980
1980
0000
30C0
78C0
B840
1C80
1C80
0F00
0F00
0600
0600
0400
0800
7000
6000
ENDCHAR
STARTCHAR Amacron
ENCODING 256
SWIDTH 741 0
DWIDTH 13 0
BBX 14 17 -2 0
BITMAP
07E0
07E0
0000
0080
0180
01C0
03C0
03C0
05E0
0CE0
08E0
18F0
1070
3FF0
2078
6078
F0FC
ENDCHAR
STARTCHAR amacron
ENCODING 257
SWIDTH 667 0
DWIDTH 12 0
BBX 11 12 0 0
BITMAP
1F80
1F80
0000
0DC0
33C0
71C0
E1C0
E1C0
E380
E380
67A0
39C0
ENDCHAR
STARTCHAR Abreve
ENCODING 258
SWIDTH 741 0
DWIDTH 13 0
BBX 14 18 -2 0
BITMAP
0440
07C0
0380
0000
0080
0180
01C0
03C0
03C0
05E0
0CE0
08E0
18F0
1070
3FF0
2078
6078
F0FC
ENDCHAR
STARTCHAR abreve
ENCODING 259
SWIDTH 667 0
DWIDTH 12 0
BBX 11 13 0 0
BITMAP
0880
0F80
0700
0000
0DC0
33C0
71C0
E1C0
E1C0
E380
E380
67A0
39C0
ENDCHAR
STARTCHAR Aogonek
ENCODING 260
SWIDTH 741 0
DWIDTH 13 0
BBX 14 18 -2 -4
BITMAP
0080
0180
01C0
03C0
03C0
05E0
0CE0
08E0
18F0
1070
3FF0
2078
6078
F0FC
0080
0300
0340
0180
ENDCHAR
STARTCHAR aogonek
ENCODING 261
SWIDTH 667 0
DWIDTH 12 0
BBX 11 13 0 -4
BITMAP
0DC0
33C0
71C0
E1C0
E1C0
E380
E380
67A0
39C0
0200
0C00
0D00
0600
ENDCHAR
STARTCHAR Cacute
ENCODING 262
SWIDTH 759 0
DWIDTH 14 0
BBX 13 19 0 0
BITMAP
00C0
01C0
0380
0600
0000
07E8
1E38
3C18
7810
7810
F800
F000
F000
F000
F000
7810
7810
3C60
0FC0
ENDCHAR
STARTCHAR cacute
ENCODING 263
SWIDTH 537 0
DWIDTH 10 0
BBX 9 14 0 0
BITMAP
0300
0700
0E00
1800
0000
0F00
3180
7380
E300
E000
E000
E000
6300
3C00
ENDCHAR
STARTCHAR Ccircumflex
ENCODING 264
SWIDTH 759 0
DWIDTH 14 0
BBX 13 19 0 0
BITMAP
0180
0380
06C0
0CC0
0000
07E8
1E38
3C18
7810
7810
F800
F000
F000
F000
F000
7810
7810
3C60
0FC0
ENDCHAR
STARTCHAR ccircumflex
ENCODING 265
SWIDTH 537 0
DWIDTH 10 0
BBX 9 14 0 0
BITMAP
0600
0E00
1B00
3300
0000
0F00
3180
7380
E300
E000
E000
E000
6300
3C00
ENDCHAR
STARTCHAR Cdotaccent
ENCODING 266
SWIDTH 759 0
DWIDTH 14 0
BBX 13 18 0 0
BITMAP
0300
0300
0300
0000
07E8
1E38
3C18
7810
7810
F800
F000
F000
F000
F000
7810
7810
3C60
0FC0
ENDCHAR
STARTCHAR cdotaccent
ENCODING 267
SWIDTH 537 0
DWIDTH 10 0
BBX 9 13 0 0
BITMAP
0C00
0C00
0C00
0000
0F00
3180
7380
E300
E000
E000
E000
6300
3C00
ENDCHAR
STARTCHAR Ccaron
ENCODING 268
SWIDTH 759 0
DWIDTH 14 0
BBX 13 19 0 0
BITMAP
0CC0
0D80
0700
0600
0000
07E8
1E38
3C18
7810
7810
F800
F000
F000
F000
F000
7810
7810
3C60
0FC0
ENDCHAR
STARTCHAR ccaron
ENCODING 269
SWIDTH 537 0
DWIDTH 10 0
BBX 9 14 0 0
BITMAP
1980
1B00
0E00
0C00
0000
0F00
3180
7380
E300
E000
E000
E000
6300
3C00
ENDCHAR
STARTCHAR Dcaron
ENCODING 270
SWIDTH 833 0
DWIDTH 16 0
BBX 15 19 0 0
BITMAP
0660
06C0
0380
0300
0000
3FE0
1E78
1C1C
1C1C
1C1E
1C1E
1C1E
3C1E
381E
383C
383C
3878
78F0
FFC0
ENDCHAR
STARTCHAR dcaron
ENCODING 271
SWIDTH 893 0
DWIDTH 17 0
BBX 16 14 0 0
BITMAP
00F6
007F
007F
0077
00E2
0EE4
31E8
70E0
E0E0
E1C0
E1C0
E1C0
63D0
3CE0
ENDCHAR
STARTCHAR Dcroat
ENCODING 272
SWIDTH 833 0
DWIDTH 16 0
BBX 15 14 0 0
BITMAP
3FE0
1E78
1C1C
1C1C
1C1E
1C1E
7F1E
3C1E
381E
383C
383C
3878
78F0
FFC0
ENDCHAR
STARTCHAR dcroat
ENCODING 273
SWIDTH 667 0
DWIDTH 13 0
BBX 13 14 0 0
BITMAP
00F0
0070
0070
07F8
07F8
0EE0
31E0
70E0
E0E0
E1C0
E1C0
E1C0
63D0
3CE0
ENDCHAR
STARTCHAR Emacron
ENCODING 274
SWIDTH 741 0
DWIDTH 15 0
BBX 14 17 0 0
BITMAP
0FC0
0FC0
0000
3FFC
1E1C
1C08
1C08
1C28
1C60
1FE0
3CC0
3840
3848
3818
3830
7870
FFF0
ENDCHAR
STARTCHAR emacron
ENCODING 275
SWIDTH 519 0
DWIDTH 10 0
BBX 9 12 0 0
BITMAP
3F00
3F00
0000
0F00
3180
7180
E380
E700
F800
E000
6300
3C00
ENDCHAR
STARTCHAR Ebreve
ENCODING 276
SWIDTH 741 0
DWIDTH 15 0
BBX 14 18 0 0
BITMAP
0440
07C0
0380
0000
3FFC
1E1C
1C08
1C08
1C28
1C60
1FE0
3CC0
3840
3848
3818
3830
7870
FFF0
ENDCHAR
STARTCHAR ebreve
ENCODING 277
SWIDTH 519 0
DWIDTH 10 0
BBX 9 13 0 0
BITMAP
1100
1F00
0E00
0000
0F00
3180
7180
E380
E700
F800
E000
6300
3C00
ENDCHAR
STARTCHAR Edotaccent
ENCODING 278
SWIDTH 741 0
DWIDTH 15 0
BBX 14 18 0 0
BITMAP
0300
0300
0300
0000
3FFC
1E1C
1C08
1C08
1C28
1C60
1FE0
3CC0
3840
3848
3818
3830
7870
FFF0
ENDCHAR
STARTCHAR edotaccent
ENCODING 279
SWIDTH 519 0
DWIDTH 10 0
BBX 9 13 0 0
BITMAP
0C00
0C00
0C00
0000
0F00
3180
7180
E380
E700
F800
E000
6300
3C00
ENDCHAR
STARTCHAR Eogonek
ENCODING 280
SWIDTH 741 0
DWIDTH 15 0
BBX 14 18 0 -4
BITMAP
3FFC
1E1C
1C08
1C08
1C28
1C60
1FE0
3CC0
3840
3848
3818
3830
7870
FFF0
0100
0600
0680
0300
ENDCHAR
STARTCHAR eogonek
ENCODING 281
SWIDTH 519 0
DWIDTH 10 0
BBX 9 13 0 -4
BITMAP
0F00
3180
7180
E380
E700
F800
E000
6300
3C00
0800
3000
3400
1800
ENDCHAR
STARTCHAR Ecaron
ENCODING 282
SWIDTH 741 0
DWIDTH 15 0
BBX 14 19 0 0
BITMAP
0660
06C0
0380
0300
0000
3FFC
1E1C
1C08
1C08
1C28
1C60
1FE0
3CC0
3840
3848
3818
3830
7870
FFF0
ENDCHAR
STARTCHAR ecaron
ENCODING 283
SWIDTH 519 0
DWIDTH 10 0
BBX 9 14 0 0
BITMAP
1980
1B00
0E00
0C00
0000
0F00
3180
7180
E380
E700
F800
E000
6300
3C00
ENDCHAR
STARTCHAR Gcircumflex
ENCODING 284
SWIDTH 815 0
DWIDTH 15 0
BBX 14 19 0 0
BITMAP
0180
0380
06C0
0CC0
0000
07F4
1E1C
3C0C
7808
7808
F000
F000
F000
F0FC
F038
7038
7870
38F0
0FD0
ENDCHAR
STARTCHAR gcircumflex
ENCODING 285
SWIDTH 611 0
DWIDTH 12 0
BBX 13 20 -1 -4
BITMAP
00C0
01C0
0360
0660
0000
0018
0038
07C0
18E0
38E0
38E0
38C0
0F00
1800
3800
3F80
7FC0
C0C0
C1C0
7F00
ENDCHAR
STARTCHAR Gbreve
ENCODING 286
SWIDTH 815 0
DWIDTH 15 0
BBX 14 18 0 0
BITMAP
0440
07C0
0380
0000
07F4
1E1C
3C0C
7808
7808
F000
F000
F000
F0FC
F038
7038
7870
38F0
0FD0
ENDCHAR
STARTCHAR gbreve
ENCODING 287
SWIDTH 611 0
DWIDTH 12 0
BBX 13 19 -1 -4
BITMAP
0220
03E0
01C0
0000
0018
0038
07C0
18E0
38E0
38E0
38C0
0F00
1800
3800
3F80
7FC0
C0C0
C1C0
7F00
ENDCHAR
STARTCHAR Gdotaccent
ENCODING 288
SWIDTH 815 0
DWIDTH 15 0
BBX 14 18 0 0
BITMAP
0300
0300
0300
0000
07F4
1E1C
3C0C
7808
7808
F000
F000
F000
F0FC
F038
7038
7870
38F0
0FD0
ENDCHAR
STARTCHAR gdotaccent
ENCODING 289
SWIDTH 611 0
DWIDTH 12 0
BBX 13 19 -1 -4
BITMAP
0180
0180
0180
0000
0018
0038
07C0
18E0
38E0
38E0
38C0
0F00
1800
3800
3F80
7FC0
C0C0
C1C0
7F00
ENDCHAR
STARTCHAR Gcommaaccent
ENCODING 290
SWIDTH 815 0
DWIDTH 15 0
BBX 14 22 0 -8
BITMAP
07F4
1E1C
3C0C
7808
7808
F000
F000
F000
F0FC
F038
7038
7870
38F0
0FD0
0000
0300
0780
0780
0380
0100
0200
0400
ENDCHAR
STARTCHAR gcommaaccent
ENCODING 291
SWIDTH 611 0
DWIDTH 12 0
BBX 13 23 -1 -4
BITMAP
0040
0080
0100
0380
03C0
03C0
0180
0000
0018
0038
07C0
18E0
38E0
38E0
38C0
0F00
1800
3800
3F80
7FC0
C0C0
C1C0
7F00
ENDCHAR
STARTCHAR Hcircumflex
ENCODING 292
SWIDTH 870 0
DWIDTH 17 0
BBX 16 19 0 0
BITMAP
00C0
01C0
0360
0660
0000
3F3F
1E1E
1C1C
1C1C
1C1C
1C1C
1FFC
3C38
3838
3838
3838
3838
7878
FCFC
ENDCHAR
STARTCHAR hcircumflex
ENCODING 293
SWIDTH 685 0
DWIDTH 12 0
BBX 11 19 0 0
BITMAP
0C00
1C00
3600
6600
0000
7800
3800
3800
3800
7000
7380
77C0
79C0
71C0
E1C0
E380
E380
E3A0
E3C0
ENDCHAR
STARTCHAR Hbar
ENCODING 294
SWIDTH 870 0
DWIDTH 17 0
BBX 16 14 0 0
BITMAP
3F3F
1E1E
1C1C
1C1C
FFFF
FFFF
1FFC
3C38
3838
3838
3838
3838
7878
FCFC
ENDCHAR
STARTCHAR hbar
ENCODING 295
SWIDTH 685 0
DWIDTH 12 0
BBX 12 14 -1 0
BITMAP
3C00
1C00
1C00
FF00
FF00
39C0
3BE0
3CE0
38E0
70E0
71C0
71C0
71D0
71E0
ENDCHAR
STARTCHAR Itilde
ENCODING 296
SWIDTH 444 0
DWIDTH 9 0
BBX 8 18 0 0
BITMAP
39
7F
4E
00
3F
1E
1C
1C
1C
1C
1C
3C
38
38
38
38
78
FC
ENDCHAR
STARTCHAR itilde
ENCODING 297
SWIDTH 389 0
DWIDTH 6 0
BBX 7 13 -1 0
BITMAP
72
FE
9C
00
78
38
38
38
70
70
70
74
38
ENDCHAR
STARTCHAR Imacron
ENCODING 298
SWIDTH 444 0
DWIDTH 9 0
BBX 8 17 0 0
BITMAP
3F
3F
00
3F
1E
1C
1C
1C
1C
1C
3C
38
38
38
38
78
FC
ENDCHAR
STARTCHAR imacron
ENCODING 299
SWIDTH 389 0
DWIDTH 6 0
BBX 6 12 -1 0
BITMAP
FC
FC
00
78
38
38
38
70
70
70
74
38
ENDCHAR
STARTCHAR Ibreve
ENCODING 300
SWIDTH 444 0
DWIDTH 9 0
BBX 8 18 0 0
BITMAP
22
3E
1C
00
3F
1E
1C
1C
1C
1C
1C
3C
38
38
38
38
78
FC
ENDCHAR
STARTCHAR ibreve
ENCODING 301
SWIDTH 389 0
DWIDTH 6 0
BBX 5 13 0 0
BITMAP
88
F8
70
00
F0
70
70
70
E0
E0
E0
E8
70
ENDCHAR
STARTCHAR Iogonek
ENCODING 302
SWIDTH 444 0
DWIDTH 9 0
BBX 8 18 0 -4
BITMAP
3F
1E
1C
1C
1C
1C
1C
3C
38
38
38
38
78
FC
08
30
34
18
ENDCHAR
STARTCHAR iogonek
ENCODING 303
SWIDTH 389 0
DWIDTH 6 0
BBX 5 17 0 -4
BITMAP
38
38
00
00
F0
70
70
70
E0
E0
E0
E8
F0
20
C0
D0
60
ENDCHAR
STARTCHAR Idotaccent
ENCODING 304
SWIDTH 444 0
DWIDTH 9 0
BBX 8 18 0 0
BITMAP
0C
0C
0C
00
3F
1E
1C
1C
1C
1C
1C
3C
38
38
38
38
78
FC
ENDCHAR
STARTCHAR dotlessi
ENCODING 305
SWIDTH 389 0
DWIDTH 6 0
BBX 5 9 0 0
BITMAP
F0
70
70
70
E0
E0
E0
E8
70
ENDCHAR
STARTCHAR IJ
ENCODING 306
SWIDTH 1089 0
DWIDTH 21 0
BBX 21 14 0 0
BITMAP
3F03F8
1E01F0
1C00E0
1C00E0
1C00E0
1C00E0
1C01E0
3C01E0
3801C0
3861C0
38F3C0
38F3C0
786780
FC3E00
ENDCHAR
STARTCHAR ij
ENCODING 307
SWIDTH 740 0
DWIDTH 11 0
BBX 11 17 0 -4
BITMAP
38E0
38E0
0000
0000
F3C0
71C0
71C0
7380
E380
E380
E380
EF00
F700
0700
6700
6600
3800
ENDCHAR
STARTCHAR Jcircumflex
ENCODING 308
SWIDTH 667 0
DWIDTH 12 0
BBX 13 19 -1 0
BITMAP
00C0
01C0
0360
0660
0000
03F8
01F0
00E0
00E0
00E0
00E0
01E0
01E0
01C0
61C0
F3C0
F3C0
6780
3E00
ENDCHAR
STARTCHAR jcircumflex
ENCODING 309
SWIDTH 370 0
DWIDTH 5 0
BBX 10 18 -5 -4
BITMAP
0300
0700
0D80
1980
0000
0780
0380
0380
0700
0700
0700
0700
0E00
0E00
0E00
CE00
CC00
7000
ENDCHAR
STARTCHAR Kcommaaccent
ENCODING 310
SWIDTH 778 0
DWIDTH 16 0
BBX 16 22 0 -8
BITMAP
3F1F
1E0C
1C18
1C30
1C60
1CC0
1DC0
3FC0
3DE0
38E0
38F0
3870
7878
FCFC
0000
0300
0780
0780
0380
0100
0200
0400
ENDCHAR
STARTCHAR kcommaaccent
ENCODING 311
SWIDTH 648 0
DWIDTH 11 0
BBX 11 22 0 -8
BITMAP
7800
3800
3800
3800
7000
7380
77C0
79C0
7180
F600
E700
E720
E3C0
E380
0000
0C00
1E00
1E00
0E00
0400
0800
1000
ENDCHAR
STARTCHAR kgreenlandic
ENCODING 312
SWIDTH 648 0
DWIDTH 11 0
BBX 11 9 0 0
BITMAP
7380
77C0
79C0
7180
F600
E700
E720
E3C0
E380
ENDCHAR
STARTCHAR Lacute
ENCODING 313
SWIDTH 704 0
DWIDTH 14 0
BBX 13 19 0 0
BITMAP
0300
0700
0E00
1800
0000
3F00
1E00
1C00
1C00
1C00
1C00
3C00
3C00
3800
3808
3818
3830
7870
FFF0
ENDCHAR
STARTCHAR lacute
ENCODING 314
SWIDTH 389 0
DWIDTH 6 0
BBX 6 19 0 0
BITMAP
0C
1C
38
60
00
78
38
38
38
70
70
70
70
70
E0
E0
E0
E8
F0
ENDCHAR
STARTCHAR Lcommaaccent
ENCODING 315
SWIDTH 704 0
DWIDTH 14 0
BBX 13 22 0 -8
BITMAP
3F00
1E00
1C00
1C00
1C00
1C00
3C00
3C00
3800
3808
3818
3830
7870
FFF0
0000
0600
0F00
0F00
0700
0200
0400
0800
ENDCHAR
STARTCHAR lcommaaccent
ENCODING 316
SWIDTH 389 0
DWIDTH 6 0
BBX 5 22 0 -8
BITMAP
78
38
38
38
70
70
70
70
70
E0
E0
E0
E8
F0
00
60
F0
F0
70
20
40
80
ENDCHAR
STARTCHAR Lcaron
ENCODING 317
SWIDTH 928 0
DWIDTH 18 0
BBX 17 14 0 0
BITMAP
3F0300
1E0780
1C0780
1C0380
1C0100
1C0200
3C0400
3C0000
380000
380800
381800
383000
787000
FFF000
ENDCHAR
STARTCHAR lcaron
ENCODING 318
SWIDTH 629 0
DWIDTH 11 0
BBX 10 14 0 0
BITMAP
7980
3BC0
3BC0
39C0
7080
7100
7200
7000
7000
E000
E000
E000
E800
F000
ENDCHAR
STARTCHAR Ldot
ENCODING 319
SWIDTH 956 0
DWIDTH 20 0
BBX 18 14 0 0
BITMAP
3F0000
1E0000
1C0000
1C0000
1C0000
1C0000
3C0180
3C03C0
3803C0
380980
381800
383000
787000
FFF000
ENDCHAR
STARTCHAR ldot
ENCODING 320
SWIDTH 657 0
DWIDTH 13 0
BBX 11 14 0 0
BITMAP
7800
3800
3800
3800
7000
7000
70C0
71E0
71E0
E0C0
E000
E000
E800
F000
ENDCHAR
STARTCHAR Lslash
ENCODING 321
SWIDTH 704 0
DWIDTH 14 0
BBX 13 14 0 0
BITMAP
3F00
1E00
1E00
1E00
1E00
3C00
3F00
FC00
3C00
7808
7818
7830
7870
FFF0
ENDCHAR
STARTCHAR lslash
ENCODING 322
SWIDTH 389 0
DWIDTH 8 0
BBX 7 14 0 0
BITMAP
3C
1C
1C
1C
38
3E
F8
38
38
70
70
70
74
38
ENDCHAR
STARTCHAR Nacute
ENCODING 323
SWIDTH 852 0
DWIDTH 15 0
BBX 16 19 -1 0
BITMAP
0060
00E0
01C0
0300
0000
380F
1C06
1E06
1E04
1F04
1784
13CC
11C8
30E8
20F8
2078
2038
6030
F010
ENDCHAR
STARTCHAR nacute
ENCODING 324
SWIDTH 685 0
DWIDTH 12 0
BBX 11 14 0 0
BITMAP
0300
0700
0E00
1800
0000
F380
77C0
79C0
71C0
71C0
E380
E380
E3A0
E3C0
ENDCHAR
STARTCHAR Ncommaaccent
ENCODING 325
SWIDTH 852 0
DWIDTH 15 0
BBX 16 22 -1 -8
BITMAP
380F
1C06
1E06
1E04
1F04
1784
13CC
11C8
30E8
20F8
2078
2038
6030
F010
0000
0300
0780
0780
0380
0100
0200
0400
ENDCHAR
STARTCHAR ncommaaccent
ENCODING 326
SWIDTH 685 0
DWIDTH 12 0
BBX 11 17 0 -8
BITMAP
F380
77C0
79C0
71C0
71C0
E380
E380
E3A0
E3C0
0000
0C00
1E00
1E00
0E00
0400
0800
1000
ENDCHAR
STARTCHAR Ncaron
ENCODING 327
SWIDTH 852 0
DWIDTH 15 0
BBX 16 19 -1 0
BITMAP
0330
0360
01C0
0180
0000
380F
1C06
1E06
1E04
1F04
1784
13CC
11C8
30E8
20F8
2078
2038
6030
F010
ENDCHAR
STARTCHAR ncaron
ENCODING 328
SWIDTH 685 0
DWIDTH 12 0
BBX 11 14 0 0
BITMAP
1980
1B00
0E00
0C00
0000
F380
77C0
79C0
71C0
71C0
E380
E380
E3A0
E3C0
ENDCHAR
STARTCHAR napostrophe
ENCODING 329
SWIDTH 931 0
DWIDTH 17 0
BBX 16 14 0 0
BITMAP
6000
F000
F000
7000
2000
479C
83BE
03CE
038E
038E
071C
071C
071D
071E
ENDCHAR
STARTCHAR Eng
ENCODING 330
SWIDTH 852 0
DWIDTH 15 0
BBX 16 18 -1 -4
BITMAP
380F
1C06
1E06
1E04
1F04
1784
13CC
11C8
30E8
20F8
2078
2038
6070
F070
0070
0670
0660
0380
ENDCHAR
STARTCHAR eng
ENCODING 331
SWIDTH 685 0
DWIDTH 12 0
BBX 10 13 0 -4
BITMAP
F380
77C0
79C0
71C0
71C0
E380
E380
E700
E700
0700
6700
6600
3800
ENDCHAR
STARTCHAR Omacron
ENCODING 332
SWIDTH 833 0
DWIDTH 15 0
BBX 14 17 0 0
BITMAP
0FC0
0FC0
0000
07C0
1C70
3838
783C
701C
F01C
E01C
E01C
E03C
E038
F078
7070
38E0
0F80
ENDCHAR
STARTCHAR omacron
ENCODING 333
SWIDTH 574 0
DWIDTH 11 0
BBX 10 12 0 0
BITMAP
3F00
3F00
0000
0F00
3180
71C0
E1C0
E1C0
E1C0
E380
6300
3C00
ENDCHAR
STARTCHAR Obreve
ENCODING 334
SWIDTH 833 0
DWIDTH 15 0
BBX 14 18 0 0
BITMAP
0440
07C0
0380
0000
07C0
1C70
3838
783C
701C
F01C
E01C
E01C
E03C
E038
F078
7070
38E0
0F80
ENDCHAR
STARTCHAR obreve
ENCODING 335
SWIDTH 574 0
DWIDTH 11 0
BBX 10 13 0 0
BITMAP
1100
1F00
0E00
0000
0F00
3180
71C0
E1C0
E1C0
E1C0
E380
6300
3C00
ENDCHAR
STARTCHAR Ohungarumlaut
ENCODING 336
SWIDTH 833 0
DWIDTH 15 0
BBX 14 19 0 0
BITMAP
0318
0738
0E70
18C0
0000
07C0
1C70
3838
783C
701C
F01C
E01C
E01C
E03C
E038
F078
7070
38E0
0F80
ENDCHAR
STARTCHAR ohungarumlaut
ENCODING 337
SWIDTH 574 0
DWIDTH 11 0
BBX 11 14 0 0
BITMAP
0C60
1CE0
39C0
6300
0000
0F00
3180
71C0
E1C0
E1C0
E1C0
E380
6300
3C00
ENDCHAR
STARTCHAR OE
ENCODING 338
SWIDTH 963 0
DWIDTH 22 0
BBX 21 14 0 0
BITMAP
07FFF8
1E3C38
3C3C10
783C10
783C50
F078C0
F07FC0
F07980
F07880
F0F090
F0F030
70F060
38F0E0
0FFFE0
ENDCHAR
STARTCHAR oe
ENCODING 339
SWIDTH 852 0
DWIDTH 17 0
BBX 16 9 0 0
BITMAP
0F1E
31E3
71E3
E1C7
E1CE
E1F0
E3C0
63C6
3C78
ENDCHAR
STARTCHAR Racute
ENCODING 340
SWIDTH 796 0
DWIDTH 15 0
BBX 14 19 0 0
BITMAP
0060
00E0
01C0
0300
0000
3FF0
1E7C
1C3C
1C3C
1C38
1C70
1FC0
3CE0
38E0
38F0
3870
3874
787C
FC38
ENDCHAR
STARTCHAR racute
ENCODING 341
SWIDTH 519 0
DWIDTH 9 0
BBX 9 14 0 0
BITMAP
0600
0E00
1C00
3000
0000
F380
7780
7B00
7000
7000
E000
E000
E000
E000
ENDCHAR
STARTCHAR Rcommaaccent
ENCODING 342
SWIDTH 796 0
DWIDTH 15 0
BBX 14 22 0 -8
BITMAP
3FF0
1E7C
1C3C
1C3C
1C38
1C70
1FC0
3CE0
38E0
38F0
3870
3874
787C
FC38
0000
0300
0780
0780
0380
0100
0200
0400
ENDCHAR
STARTCHAR rcommaaccent
ENCODING 343
SWIDTH 519 0
DWIDTH 9 0
BBX 9 17 0 -8
BITMAP
F380
7780
7B00
7000
7000
E000
E000
E000
E000
0000
3000
7800
7800
3800
1000
2000
4000
ENDCHAR
STARTCHAR Rcaron
ENCODING 344
SWIDTH 796 0
DWIDTH 15 0
BBX 14 19 0 0
BITMAP
0660
06C0
0380
0300
0000
3FF0
1E7C
1C3C
1C3C
1C38
1C70
1FC0
3CE0
38E0
38F0
3870
3874
787C
FC38
ENDCHAR
STARTCHAR rcaron
ENCODING 345
SWIDTH 519 0
DWIDTH 9 0
BBX 9 14 0 0
BITMAP
3300
3600
1C00
1800
0000
F380
7780
7B00
7000
7000
E000
E000
E000
E000
ENDCHAR
STARTCHAR Sacute
ENCODING 346
SWIDTH 685 0
DWIDTH 13 0
BBX 12 19 0 0
BITMAP
0180
0380
0700
0C00
0000
0F90
1870
3030
7020
7820
7E00
3F80
1FC0
07E0
41E0
40E0
C0C0
E1C0
9F00
ENDCHAR
STARTCHAR sacute
ENCODING 347
SWIDTH 481 0
DWIDTH 10 0
BBX 9 14 0 0
BITMAP
0300
0700
0E00
1800
0000
0F00
3380
7300
7800
3E00
0F00
6700
E600
7800
ENDCHAR
STARTCHAR Scircumflex
ENCODING 348
SWIDTH 685 0
DWIDTH 13 0
BBX 12 19 0 0
BITMAP
0300
0700
0D80
1980
0000
0F90
1870
3030
7020
7820
7E00
3F80
1FC0
07E0
41E0
40E0
C0C0
E1C0
9F00
ENDCHAR
STARTCHAR scircumflex
ENCODING 349
SWIDTH 481 0
DWIDTH 10 0
BBX 9 14 0 0
BITMAP
0600
0E00
1B00
3300
0000
0F00
3380
7300
7800
3E00
0F00
6700
E600
7800
ENDCHAR
STARTCHAR Scedilla
ENCODING 350
SWIDTH 685 0
DWIDTH 13 0
BBX 12 18 0 -4
BITMAP
0F90
1870
3030
7020
7820
7E00
3F80
1FC0
07E0
41E0
40E0
C0C0
E1C0
9F00
0400
0E00
0600
1C00
ENDCHAR
STARTCHAR scedilla
ENCODING 351
SWIDTH 481 0
DWIDTH 10 0
BBX 9 13 0 -4
BITMAP
0F00
3380
7300
7800
3E00
0F00
6700
E600
7800
0800
1C00
0C00
3800
ENDCHAR
STARTCHAR Scaron
ENCODING 352
SWIDTH 685 0
DWIDTH 13 0
BBX 11 14 0 0
BITMAP
0660
06C0
0380
0300
0FE0
3C60
3820
7E00
7F80
3FC0
07E0
83E0
C7C0
FF80
ENDCHAR
STARTCHAR scaron
ENCODING 353
SWIDTH 481 0
DWIDTH 10 0
BBX 9 14 0 0
BITMAP
1980
1B00
0E00
0C00
0000
0F00
3380
7300
7800
3E00
0F00
6700
E600
7800
ENDCHAR
STARTCHAR Tcommaaccent
ENCODING 354
SWIDTH 722 0
DWIDTH 13 0
BBX 13 18 0 -4
BITMAP
7FF8
6738
C710
8710
8710
0700
0E00
0E00
0E00
0E00
0E00
0E00
1E00
3F00
0400
0E00
0600
1C00
ENDCHAR
STARTCHAR tcommaaccent
ENCODING 355
SWIDTH 407 0
DWIDTH 8 0
BBX 7 16 1 -4
BITMAP
38
38
38
FE
70
70
70
E0
E0
E0
E8
F0
20
70
30
E0
ENDCHAR
STARTCHAR Tcaron
ENCODING 356
SWIDTH 722 0
DWIDTH 13 0
BBX 13 19 0 0
BITMAP
0CC0
0D80
0700
0600
0000
7FF8
6738
C710
8710
8710
0700
0E00
0E00
0E00
0E00
0E00
0E00
1E00
3F00
ENDCHAR
STARTCHAR tcaron
ENCODING 357
SWIDTH 646 0
DWIDTH 13 0
BBX 11 14 1 0
BITMAP
00C0
01E0
39E0
38E0
3840
FE80
7100
7000
7000
E000
E000
E000
E800
F000
ENDCHAR
STARTCHAR Tbar
ENCODING 358
SWIDTH 722 0
DWIDTH 13 0
BBX 13 14 0 0
BITMAP
7FF8
6738
C710
8710
8710
0700
1FE0
1FE0
0E00
0E00
0E00
0E00
1E00
3F00
ENDCHAR
STARTCHAR tbar
ENCODING 359
SWIDTH 407 0
DWIDTH 8 0
BBX 8 12 1 0
BITMAP
38
38
38
FE
70
70
70
FF
FF
E0
E8
F0
ENDCHAR
STARTCHAR Utilde
ENCODING 360
SWIDTH 833 0
DWIDTH 15 0
BBX 15 18 0 0
BITMAP
0720
0FE0
09C0
0000
7E1E
3C0C
3C08
3808
3818
7810
7810
7010
7030
F020
F020
F060
78C0
3F80
ENDCHAR
STARTCHAR utilde
ENCODING 361
SWIDTH 685 0
DWIDTH 12 0
BBX 11 13 0 0
BITMAP
1C80
3F80
2700
0000
F1C0
71C0
71C0
71C0
E380
E380
E780
FBA0
73C0
ENDCHAR
STARTCHAR Umacron
ENCODING 362
SWIDTH 833 0
DWIDTH 15 0
BBX 15 17 0 0
BITMAP
0FC0
0FC0
0000
7E1E
3C0C
3C08
3808
3818
7810
7810
7010
7030
F020
F020
F060
78C0
3F80
ENDCHAR
STARTCHAR umacron
ENCODING 363
SWIDTH 685 0
DWIDTH 12 0
BBX 11 12 0 0
BITMAP
3F00
3F00
0000
F1C0
71C0
71C0
71C0
E380
E380
E780
FBA0
73C0
ENDCHAR
STARTCHAR Ubreve
ENCODING 364
SWIDTH 833 0
DWIDTH 15 0
BBX 15 18 0 0
BITMAP
0440
07C0
0380
0000
7E1E
3C0C
3C08
3808
3818
7810
7810
7010
7030
F020
F020
F060
78C0
3F80
ENDCHAR
STARTCHAR ubreve
ENCODING 365
SWIDTH 685 0
DWIDTH 12 0
BBX 11 13 0 0
BITMAP
1100
1F00
0E00
0000
F1C0
71C0
71C0
71C0
E380
E380
E780
FBA0
73C0
ENDCHAR
STARTCHAR Uring
ENCODING 366
SWIDTH 833 0
DWIDTH 15 0
BBX 15 19 0 0
BITMAP
0300
0480
0480
0300
0000
7E1E
3C0C
3C08
3808
3818
7810
7810
7010
7030
F020
F020
F060
78C0
3F80
ENDCHAR
STARTCHAR uring
ENCODING 367
SWIDTH 685 0
DWIDTH 12 0
BBX 11 14 0 0
BITMAP
0C00
1200
1200
0C00
0000
F1C0
71C0
71C0
71C0
E380
E380
E780
FBA0
73C0
ENDCHAR
STARTCHAR Uhungarumlaut
ENCODING 368
SWIDTH 833 0
DWIDTH 15 0
BBX 15 19 0 0
BITMAP
0630
0E70
1CE0
3180
0000
7E1E
3C0C
3C08
3808
3818
7810
7810
7010
7030
F020
F020
F060
78C0
3F80
ENDCHAR
STARTCHAR uhungarumlaut
ENCODING 369
SWIDTH 685 0
DWIDTH 12 0
BBX 11 14 0 0
BITMAP
0C60
1CE0
39C0
6300
0000
F1C0
71C0
71C0
71C0
E380
E380
E780
FBA0
73C0
ENDCHAR
STARTCHAR Uogonek
ENCODING 370
SWIDTH 833 0
DWIDTH 15 0
BBX 15 18 0 -4
BITMAP
7E1E
3C0C
3C08
3808
3818
7810
7810
7010
7030
F020
F020
F060
78C0
3F80
0200
0C00
0D00
0600
ENDCHAR
STARTCHAR uogonek
ENCODING 371
SWIDTH 685 0
DWIDTH 12 0
BBX 11 13 0 -4
BITMAP
F1C0
71C0
71C0
71C0
E380
E380
E780
FBA0
73C0
0200
0C00
0D00
0600
ENDCHAR
STARTCHAR Wcircumflex
ENCODING 372
SWIDTH 944 0
DWIDTH 20 0
BBX 20 19 0 0
BITMAP
006000
00E000
01B000
033000
000000
FCFCF0
787860
787840
787840
38F8C0
38B880
3DBD80
3D3D00
1D1D00
1E1E00
1E1E00
1C1C00
0C0C00
080800
ENDCHAR
STARTCHAR wcircumflex
ENCODING 373
SWIDTH 833 0
DWIDTH 16 0
BBX 15 14 0 0
BITMAP
0180
0380
06C0
0CC0
0000
F1CC
71CE
71C6
71C2
E382
E384
E38C
7DF8
38E0
ENDCHAR
STARTCHAR Ycircumflex
ENCODING 374
SWIDTH 704 0
DWIDTH 13 0
BBX 13 19 0 0
BITMAP
0300
0700
0D80
1980
0000
FC78
7830
3860
3CC0
1C80
1D80
0F00
0F00
0E00
0E00
0E00
1E00
1E00
3F00
ENDCHAR
STARTCHAR ycircumflex
ENCODING 375
SWIDTH 519 0
DWIDTH 10 0
BBX 10 18 -1 -4
BITMAP
0600
0E00
1B00
3300
0000
30C0
78C0
B840
1C80
1C80
0F00
0F00
0600
0600
0400
C800
F000
6000
ENDCHAR
STARTCHAR Ydieresis
ENCODING 376
SWIDTH 704 0
DWIDTH 13 0
BBX 12 14 0 0
BITMAP
0CC0
0CC0
0CC0
0000
FC70
7820
3840
1C80
0F00
0E00
0E00
0E00
1E00
3F00
ENDCHAR
STARTCHAR Zacute
ENCODING 377
SWIDTH 704 0
DWIDTH 14 0
BBX 13 19 0 0
BITMAP
00C0
01C0
0380
0600
0000
3FF8
30F8
61F0
41E0
03C0
0780
0700
0F00
1E00
3C00
3C10
7830
F060
FFE0
ENDCHAR
STARTCHAR zacute
ENCODING 378
SWIDTH 519 0
DWIDTH 11 0
BBX 10 14 0 0
BITMAP
0300
0700
0E00
1800
0000
1EC0
3F80
4300
0600
0C00
1800
3080
7F00
DE00
ENDCHAR
STARTCHAR Zdotaccent
ENCODING 379
SWIDTH 704 0
DWIDTH 14 0
BBX 13 18 0 0
BITMAP
0300
0300
0300
0000
3FF8
30F8
61F0
41E0
03C0
0780
0700
0F00
1E00
3C00
3C10
7830
F060
FFE0
ENDCHAR
STARTCHAR zdotaccent
ENCODING 380
SWIDTH 519 0
DWIDTH 11 0
BBX 10 13 0 0
BITMAP
0600
0600
0600
0000
1EC0
3F80
4300
0600
0C00
1800
3080
7F00
DE00
ENDCHAR
STARTCHAR Zcaron
ENCODING 381
SWIDTH 704 0
DWIDTH 14 0
BBX 13 14 0 0
BITMAP
0660
06C0
0380
0300
7FF8
61F0
43E0
07C0
0F80
1F10
3E10
7C30
F870
FFF0
ENDCHAR
STARTCHAR zcaron
ENCODING 382
SWIDTH 519 0
DWIDTH 11 0
BBX 11 14 0 0
BITMAP
0CC0
0D80
0700
0600
0000
1EC0
3F80
4300
0600
0C00
1800
3080
7F00
DE00
ENDCHAR
STARTCHAR uni0186
ENCODING 390
SWIDTH 759 0
DWIDTH 14 0
BBX 13 14 0 0
BITMAP
1F80
31E0
40F0
40F0
0078
0078
0078
0078
00F8
40F0
40F0
C1E0
E3C0
BF00
ENDCHAR
STARTCHAR uni0189
ENCODING 393
SWIDTH 833 0
DWIDTH 16 0
BBX 15 14 0 0
BITMAP
3FE0
1E78
1C1C
1C1C
1C1E
1C1E
7F1E
3C1E
381E
383C
383C
3878
78F0
FFC0
ENDCHAR
STARTCHAR uni018E
ENCODING 398
SWIDTH 741 0
DWIDTH 15 0
BBX 14 14 0 0
BITMAP
3FFC
3878
3070
6070
4870
0870
0CF0
1FE0
18E0
50E0
40E0
40E0
E1E0
FFF0
ENDCHAR
STARTCHAR florin
ENCODING 402
SWIDTH 574 0
DWIDTH 12 0
BBX 11 18 0 -4
BITMAP
01C0
0360
0360
0700
0700
0700
3FC0
0E00
0E00
0E00
0E00
1C00
1C00
1C00
1C00
D800
D800
7000
ENDCHAR
STARTCHAR uni0197
ENCODING 407
SWIDTH 444 0
DWIDTH 9 0
BBX 8 14 0 0
BITMAP
3F
1E
1C
1C
1C
1C
FF
FF
38
38
38
38
78
FC
ENDCHAR
STARTCHAR uni019A
ENCODING 410
SWIDTH 389 0
DWIDTH 6 0
BBX 8 14 -1 0
BITMAP
3C
1C
1C
1C
38
38
FF
FF
38
70
70
70
74
78
ENDCHAR
STARTCHAR uni019D
ENCODING 413
SWIDTH 852 0
DWIDTH 15 0
BBX 19 18 -4 -4
BITMAP
0701E0
0380C0
03C0C0
03C080
03E080
02F080
027980
023900
061D00
041F00
070F00
070700
0E0600
0E0200
0E0000
CE0000
CC0000
700000
ENDCHAR
STARTCHAR uni019F
ENCODING 415
SWIDTH 833 0
DWIDTH 15 0
BBX 14 14 0 0
BITMAP
07C0
1C70
3838
783C
701C
F01C
FFFC
FFFC
E03C
E038
F078
7070
38E0
0F80
ENDCHAR
STARTCHAR Ohorn
ENCODING 416
SWIDTH 833 0
DWIDTH 15 0
BBX 17 14 0 0
BITMAP
07C300
1C7780
383F80
783F80
701D00
F01E00
E01C00
E01C00
E03C00
E03800
F07800
707000
38E000
0F8000
ENDCHAR
STARTCHAR ohorn
ENCODING 417
SWIDTH 574 0
DWIDTH 11 0
BBX 13 9 0 0
BITMAP
0F30
31F8
71F8
E1F8
E1D0
E1E0
E3C0
6300
3C00
ENDCHAR
STARTCHAR Uhorn
ENCODING 431
SWIDTH 833 0
DWIDTH 15 0
BBX 18 14 0 0
BITMAP
7E1F80
3C0FC0
3C0BC0
3809C0
381880
781100
781200
701000
703000
F02000
F02000
F06000
78C000
3F8000
ENDCHAR
STARTCHAR uhorn
ENCODING 432
SWIDTH 685 0
DWIDTH 12 0
BBX 14 9 0 0
BITMAP
F1D8
71FC
71FC
71DC
E388
E390
E7A0
FBA0
73C0
ENDCHAR
STARTCHAR uni01B5
ENCODING 437
SWIDTH 704 0
DWIDTH 14 0
BBX 13 14 0 0
BITMAP
3FF8
30F8
61F0
41E0
03C0
0780
1FE0
1FE0
1E00
3C00
3C10
7830
F060
FFE0
ENDCHAR
STARTCHAR uni01B6
ENCODING 438
SWIDTH 519 0
DWIDTH 11 0
BBX 10 9 0 0
BITMAP
1EC0
3F80
4300
7F80
7F80
1800
3080
7F00
DE00
ENDCHAR
STARTCHAR uni01BB
ENCODING 443
SWIDTH 574 0
DWIDTH 10 0
BBX 9 14 -1 0
BITMAP
1F00
2780
7380
7380
3380
0380
FF80
FF80
0C00
1800
3080
7F80
FF00
FF00
ENDCHAR
STARTCHAR uni01BC
ENCODING 444
SWIDTH 574 0
DWIDTH 10 0
BBX 10 14 -1 0
BITMAP
1FC0
1F80
1F00
3000
2000
3F00
2780
0380
0380
6380
E300
C700
C600
7800
ENDCHAR
STARTCHAR uni01C0
ENCODING 448
SWIDTH 606 0
DWIDTH 11 0
BBX 2 14 4 0
BITMAP
C0
C0
C0
C0
C0
C0
C0
C0
C0
C0
C0
C0
C0
C0
ENDCHAR
STARTCHAR uni01C2
ENCODING 450
SWIDTH 606 0
DWIDTH 10 0
BBX 9 14 0 -1
BITMAP
0C00
0C00
0C00
0C00
FF80
FF80
0C00
0C00
FF80
FF80
0C00
0C00
0C00
0C00
ENDCHAR
STARTCHAR uni01C3
ENCODING 451
SWIDTH 333 0
DWIDTH 8 0
BBX 7 14 0 0
BITMAP
0C
1E
1E
1C
1C
38
38
30
30
00
60
F0
F0
60
ENDCHAR
STARTCHAR uni01CD
ENCODING 461
SWIDTH 741 0
DWIDTH 13 0
BBX 14 19 -2 0
BITMAP
0660
06C0
0380
0300
0000
0080
0180
01C0
03C0
03C0
05E0
0CE0
08E0
18F0
1070
3FF0
2078
6078
F0FC
ENDCHAR
STARTCHAR uni01CE
ENCODING 462
SWIDTH 667 0
DWIDTH 12 0
BBX 11 14 0 0
BITMAP
1980
1B00
0E00
0C00
0000
0DC0
33C0
71C0
E1C0
E1C0
E380
E380
67A0
39C0
ENDCHAR
STARTCHAR uni01CF
ENCODING 463
SWIDTH 444 0
DWIDTH 9 0
BBX 8 19 0 0
BITMAP
33
36
1C
18
00
3F
1E
1C
1C
1C
1C
1C
3C
38
38
38
38
78
FC
ENDCHAR
STARTCHAR uni01D0
ENCODING 464
SWIDTH 389 0
DWIDTH 6 0
BBX 6 14 0 0
BITMAP
CC
D8
70
60
00
F0
70
70
70
E0
E0
E0
E8
70
ENDCHAR
STARTCHAR uni01D1
ENCODING 465
SWIDTH 833 0
DWIDTH 15 0
BBX 14 19 0 0
BITMAP
0660
06C0
0380
0300
0000
07C0
1C70
3838
783C
701C
F01C
E01C
E01C
E03C
E038
F078
7070
38E0
0F80
ENDCHAR
STARTCHAR uni01D2
ENCODING 466
SWIDTH 574 0
DWIDTH 11 0
BBX 10 14 0 0
BITMAP
1980
1B00
0E00
0C00
0000
0F00
3180
71C0
E1C0
E1C0
E1C0
E380
6300
3C00
ENDCHAR
STARTCHAR uni01D3
ENCODING 467
SWIDTH 833 0
DWIDTH 15 0
BBX 15 19 0 0
BITMAP
0CC0
0D80
0700
0600
0000
7E1E
3C0C
3C08
3808
3818
7810
7810
7010
7030
F020
F020
F060
78C0
3F80
ENDCHAR
STARTCHAR uni01D4
ENCODING 468
SWIDTH 685 0
DWIDTH 12 0
BBX 11 14 0 0
BITMAP
1980
1B00
0E00
0C00
0000
F1C0
71C0
71C0
71C0
E380
E380
E780
FBA0
73C0
ENDCHAR
STARTCHAR uni01D5
ENCODING 469
SWIDTH 833 0
DWIDTH 15 0
BBX 15 20 0 0
BITMAP
07E0
07E0
0000
0330
0330
0000
7E1E
3C0C
3C08
3808
3818
7810
7810
7010
7030
F020
F020
F060
78C0
3F80
ENDCHAR
STARTCHAR uni01D6
ENCODING 470
SWIDTH 685 0
DWIDTH 12 0
BBX 11 15 0 0
BITMAP
3F00
3F00
0000
1980
1980
0000
F1C0
71C0
71C0
71C0
E380
E380
E780
FBA0
73C0
ENDCHAR
STARTCHAR uni01D7
ENCODING 471
SWIDTH 833 0
DWIDTH 15 0
BBX 15 22 0 0
BITMAP
0060
00E0
01C0
0300
0000
0330
0330
0000
7E1E
3C0C
3C08
3808
3818
7810
7810
7010
7030
F020
F020
F060
78C0
3F80
ENDCHAR
STARTCHAR uni01D8
ENCODING 472
SWIDTH 685 0
DWIDTH 12 0
BBX 11 17 0 0
BITMAP
0300
0700
0E00
1800
0000
1980
1980
0000
F1C0
71C0
71C0
71C0
E380
E380
E780
FBA0
73C0
ENDCHAR
STARTCHAR uni01D9
ENCODING 473
SWIDTH 833 0
DWIDTH 15 0
BBX 15 22 0 0
BITMAP
0660
06C0
0380
0300
0000
0330
0330
0000
7E1E
3C0C
3C08
3808
3818
7810
7810
7010
7030
F020
F020
F060
78C0
3F80
ENDCHAR
STARTCHAR uni01DA
ENCODING 474
SWIDTH 685 0
DWIDTH 12 0
BBX 11 17 0 0
BITMAP
1980
1B00
0E00
0C00
0000
1980
1980
0000
F1C0
71C0
71C0
71C0
E380
E380
E780
FBA0
73C0
ENDCHAR
STARTCHAR uni01DB
ENCODING 475
SWIDTH 833 0
DWIDTH 15 0
BBX 15 22 0 0
BITMAP
0600
0700
0380
00C0
0000
0330
0330
0000
7E1E
3C0C
3C08
3808
3818
7810
7810
7010
7030
F020
F020
F060
78C0
3F80
ENDCHAR
STARTCHAR uni01DC
ENCODING 476
SWIDTH 685 0
DWIDTH 12 0
BBX 11 17 0 0
BITMAP
1800
1C00
0E00
0300
0000
1980
1980
0000
F1C0
71C0
71C0
71C0
E380
E380
E780
FBA0
73C0
ENDCHAR
STARTCHAR uni01DD
ENCODING 477
SWIDTH 519 0
DWIDTH 10 0
BBX 9 9 0 0
BITMAP
1E00
6300
0380
0F80
7380
E380
C700
C600
7800
ENDCHAR
STARTCHAR uni01DE
ENCODING 478
SWIDTH 741 0
DWIDTH 13 0
BBX 14 20 -2 0
BITMAP
07E0
07E0
0000
0330
0330
0000
0080
0180
01C0
03C0
03C0
05E0
0CE0
08E0
18F0
1070
3FF0
2078
6078
F0FC
ENDCHAR
STARTCHAR uni01DF
ENCODING 479
SWIDTH 667 0
DWIDTH 12 0
BBX 11 15 0 0
BITMAP
1F80
1F80
0000
1980
1980
0000
0DC0
33C0
71C0
E1C0
E1C0
E380
E380
67A0
39C0
ENDCHAR
STARTCHAR uni01E0
ENCODING 480
SWIDTH 741 0
DWIDTH 13 0
BBX 14 21 -2 0
BITMAP
07E0
07E0
0000
0180
0180
0180
0000
0080
0180
01C0
03C0
03C0
05E0
0CE0
08E0
18F0
1070
3FF0
2078
6078
F0FC
ENDCHAR
STARTCHAR uni01E1
ENCODING 481
SWIDTH 667 0
DWIDTH 12 0
BBX 11 16 0 0
BITMAP
1F80
1F80
0000
0600
0600
0600
0000
0DC0
33C0
71C0
E1C0
E1C0
E380
E380
67A0
39C0
ENDCHAR
STARTCHAR uni01E2
ENCODING 482
SWIDTH 889 0
DWIDTH 21 0
BBX 21 17 -1 0
BITMAP
007E00
007E00
000000
03FFF8
009C38
019C10
011C10
023850
0638C0
043FC0
083980
1FF880
107090
307030
207060
60F0E0
F1FFE0
ENDCHAR
STARTCHAR uni01E3
ENCODING 483
SWIDTH 815 0
DWIDTH 16 0
BBX 15 12 0 0
BITMAP
07E0
07E0
0000
3E3C
7346
63C6
038E
0F9C
73E0
E380
E58C
78F0
ENDCHAR
STARTCHAR uni01E4
ENCODING 484
SWIDTH 815 0
DWIDTH 15 0
BBX 16 14 0 0
BITMAP
07F4
1E1C
3C0C
7808
7808
F000
F000
F000
F0FC
F038
7038
78FF
38FF
0FD0
ENDCHAR
STARTCHAR uni01E5
ENCODING 485
SWIDTH 611 0
DWIDTH 12 0
BBX 13 15 -1 -4
BITMAP
0018
0038
07C0
18E0
38E0
38E0
38C0
0F00
1800
3800
FFF8
FFF8
C0C0
C1C0
7F00
ENDCHAR
STARTCHAR Gcaron
ENCODING 486
SWIDTH 815 0
DWIDTH 15 0
BBX 14 19 0 0
BITMAP
0660
06C0
0380
0300
0000
07F4
1E1C
3C0C
7808
7808
F000
F000
F000
F0FC
F038
7038
7870
38F0
0FD0
ENDCHAR
STARTCHAR gcaron
ENCODING 487
SWIDTH 611 0
DWIDTH 12 0
BBX 13 20 -1 -4
BITMAP
0330
0360
01C0
0180
0000
0018
0038
07C0
18E0
38E0
38E0
38C0
0F00
1800
3800
3F80
7FC0
C0C0
C1C0
7F00
ENDCHAR
STARTCHAR uni01E8
ENCODING 488
SWIDTH 778 0
DWIDTH 16 0
BBX 16 19 0 0
BITMAP
0660
06C0
0380
0300
0000
3F1F
1E0C
1C18
1C30
1C60
1CC0
1DC0
3FC0
3DE0
38E0
38F0
3870
7878
FCFC
ENDCHAR
STARTCHAR uni01E9
ENCODING 489
SWIDTH 648 0
DWIDTH 11 0
BBX 11 19 0 0
BITMAP
3300
3600
1C00
1800
0000
7800
3800
3800
3800
7000
7380
77C0
79C0
7180
F600
E700
E720
E3C0
E380
ENDCHAR
STARTCHAR uni01EA
ENCODING 490
SWIDTH 833 0
DWIDTH 15 0
BBX 14 18 0 -4
BITMAP
07C0
1C70
3838
783C
701C
F01C
E01C
E01C
E03C
E038
F078
7070
38E0
0F80
0100
0600
0680
0300
ENDCHAR
STARTCHAR uni01EB
ENCODING 491
SWIDTH 574 0
DWIDTH 11 0
BBX 10 13 0 -4
BITMAP
0F00
3180
71C0
E1C0
E1C0
E1C0
E380
6300
3C00
0400
1800
1A00
0C00
ENDCHAR
STARTCHAR uni01EC
ENCODING 492
SWIDTH 833 0
DWIDTH 15 0
BBX 14 21 0 -4
BITMAP
0FC0
0FC0
0000
07C0
1C70
3838
783C
701C
F01C
E01C
E01C
E03C
E038
F078
7070
38E0
0F80
0100
0600
0680
0300
ENDCHAR
STARTCHAR uni01ED
ENCODING 493
SWIDTH 574 0
DWIDTH 11 0
BBX 10 16 0 -4
BITMAP
3F00
3F00
0000
0F00
3180
71C0
E1C0
E1C0
E1C0
E380
6300
3C00
0400
1800
1A00
0C00
ENDCHAR
STARTCHAR uni01F0
ENCODING 496
SWIDTH 370 0
DWIDTH 5 0
BBX 10 18 -5 -4
BITMAP
0CC0
0D80
0700
0600
0000
0780
0380
0380
0700
0700
0700
0700
0E00
0E00
0E00
CE00
CC00
7000
ENDCHAR
STARTCHAR uni01F4
ENCODING 500
SWIDTH 815 0
DWIDTH 15 0
BBX 14 19 0 0
BITMAP
00C0
01C0
0380
0600
0000
07F4
1E1C
3C0C
7808
7808
F000
F000
F000
F0FC
F038
7038
7870
38F0
0FD0
ENDCHAR
STARTCHAR uni01F5
ENCODING 501
SWIDTH 611 0
DWIDTH 12 0
BBX 13 20 -1 -4
BITMAP
0060
00E0
01C0
0300
0000
0018
0038
07C0
18E0
38E0
38E0
38C0
0F00
1800
3800
3F80
7FC0
C0C0
C1C0
7F00
ENDCHAR
STARTCHAR uni01F8
ENCODING 504
SWIDTH 852 0
DWIDTH 15 0
BBX 16 19 -1 0
BITMAP
0600
0700
0380
00C0
0000
380F
1C06
1E06
1E04
1F04
1784
13CC
11C8
30E8
20F8
2078
2038
6030
F010
ENDCHAR
STARTCHAR uni01F9
ENCODING 505
SWIDTH 685 0
DWIDTH 12 0
BBX 11 14 0 0
BITMAP
3000
3800
1C00
0600
0000
F380
77C0
79C0
71C0
71C0
E380
E380
E3A0
E3C0
ENDCHAR
STARTCHAR Aringacute
ENCODING 506
SWIDTH 741 0
DWIDTH 13 0
BBX 14 24 -2 0
BITMAP
0060
00E0
01C0
0300
0000
00C0
0120
0120
00C0
0000
0080
0180
01C0
03C0
03C0
05E0
0CE0
08E0
18F0
1070
3FF0
2078
6078
F0FC
ENDCHAR
STARTCHAR aringacute
ENCODING 507
SWIDTH 667 0
DWIDTH 12 0
BBX 11 19 0 0
BITMAP
0180
0380
0700
0C00
0000
0600
0900
0900
0600
0000
0DC0
33C0
71C0
E1C0
E1C0
E380
E380
67A0
39C0
ENDCHAR
STARTCHAR AEacute
ENCODING 508
SWIDTH 889 0
DWIDTH 21 0
BBX 21 19 -1 0
BITMAP
000600
000E00
001C00
003000
000000
03FFF8
009C38
019C10
011C10
023850
0638C0
043FC0
083980
1FF880
107090
307030
207060
60F0E0
F1FFE0
ENDCHAR
STARTCHAR aeacute
ENCODING 509
SWIDTH 815 0
DWIDTH 16 0
BBX 15 14 0 0
BITMAP
0060
00E0
01C0
0300
0000
3E3C
7346
63C6
038E
0F9C
73E0
E380
E58C
78F0
ENDCHAR
STARTCHAR Oslashacute
ENCODING 510
SWIDTH 833 0
DWIDTH 15 0
BBX 16 20 -1 0
BITMAP
0030
0070
00E0
0180
0000
0001
03F3
0E3E
1C1C
383E
386E
70CE
718E
730E
760E
7C1C
381C
7838
DC70
87C0
ENDCHAR
STARTCHAR oslashacute
ENCODING 511
SWIDTH 574 0
DWIDTH 11 0
BBX 10 16 0 -1
BITMAP
0180
0380
0700
0C00
0000
0100
0F00
3380
75C0
E5C0
E9C0
E9C0
F380
7300
3C00
2000
ENDCHAR
STARTCHAR Scommaaccent
ENCODING 536
SWIDTH 685 0
DWIDTH 13 0
BBX 12 22 0 -8
BITMAP
0F90
1870
3030
7020
7820
7E00
3F80
1FC0
07E0
41E0
40E0
C0C0
E1C0
9F00
0000
0600
0F00
0F00
0700
0200
0400
0800
ENDCHAR
STARTCHAR scommaaccent
ENCODING 537
SWIDTH 481 0
DWIDTH 10 0
BBX 9 17 0 -8
BITMAP
0F00
3380
7300
7800
3E00
0F00
6700
E600
7800
0000
1800
3C00
3C00
1C00
0800
1000
2000
ENDCHAR
STARTCHAR Tcommaaccent
ENCODING 538
SWIDTH 722 0
DWIDTH 13 0
BBX 13 22 0 -8
BITMAP
7FF8
6738
C710
8710
8710
0700
0E00
0E00
0E00
0E00
0E00
0E00
1E00
3F00
0000
0600
0F00
0F00
0700
0200
0400
0800
ENDCHAR
STARTCHAR tcommaaccent
ENCODING 539
SWIDTH 407 0
DWIDTH 8 0
BBX 7 20 1 -8
BITMAP
38
38
38
FE
70
70
70
E0
E0
E0
E8
F0
00
60
F0
F0
70
20
40
80
ENDCHAR
STARTCHAR uni021E
ENCODING 542
SWIDTH 870 0
DWIDTH 17 0
BBX 16 19 0 0
BITMAP
0330
0360
01C0
0180
0000
3F3F
1E1E
1C1C
1C1C
1C1C
1C1C
1FFC
3C38
3838
3838
3838
3838
7878
FCFC
ENDCHAR
STARTCHAR uni021F
ENCODING 543
SWIDTH 685 0
DWIDTH 12 0
BBX 11 19 0 0
BITMAP
3300
3600
1C00
1800
0000
7800
3800
3800
3800
7000
7380
77C0
79C0
71C0
E1C0
E380
E380
E3A0
E3C0
ENDCHAR
STARTCHAR uni0226
ENCODING 550
SWIDTH 741 0
DWIDTH 13 0
BBX 14 18 -2 0
BITMAP
0180
0180
0180
0000
0080
0180
01C0
03C0
03C0
05E0
0CE0
08E0
18F0
1070
3FF0
2078
6078
F0FC
ENDCHAR
STARTCHAR uni0227
ENCODING 551
SWIDTH 667 0
DWIDTH 12 0
BBX 11 13 0 0
BITMAP
0600
0600
0600
0000
0DC0
33C0
71C0
E1C0
E1C0
E380
E380
67A0
39C0
ENDCHAR
STARTCHAR uni0228
ENCODING 552
SWIDTH 741 0
DWIDTH 15 0
BBX 14 18 0 -4
BITMAP
3FFC
1E1C
1C08
1C08
1C28
1C60
1FE0
3CC0
3840
3848
3818
3830
7870
FFF0
0200
0700
0300
0E00
ENDCHAR
STARTCHAR uni0229
ENCODING 553
SWIDTH 519 0
DWIDTH 10 0
BBX 9 13 0 -4
BITMAP
0F00
3180
7180
E380
E700
F800
E000
6300
3C00
0800
1C00
0C00
3800
ENDCHAR
STARTCHAR uni022A
ENCODING 554
SWIDTH 833 0
DWIDTH 15 0
BBX 14 20 0 0
BITMAP
0FC0
0FC0
0000
0660
0660
0000
07C0
1C70
3838
783C
701C
F01C
E01C
E01C
E03C
E038
F078
7070
38E0
0F80
ENDCHAR
STARTCHAR uni022B
ENCODING 555
SWIDTH 574 0
DWIDTH 11 0
BBX 10 15 0 0
BITMAP
1F80
1F80
0000
1980
1980
0000
0F00
3180
71C0
E1C0
E1C0
E1C0
E380
6300
3C00
ENDCHAR
STARTCHAR uni022C
ENCODING 556
SWIDTH 833 0
DWIDTH 15 0
BBX 14 21 0 0
BITMAP
07E0
07E0
0000
0310
07E0
08C0
0000
07C0
1C70
3838
783C
701C
F01C
E01C
E01C
E03C
E038
F078
7070
38E0
0F80
ENDCHAR
STARTCHAR uni022D
ENCODING 557
SWIDTH 574 0
DWIDTH 11 0
BBX 10 15 0 0
BITMAP
1F80
1F80
0000
0E80
1700
0000
0F00
3180
71C0
E1C0
E1C0
E1C0
E380
6300
3C00
ENDCHAR
STARTCHAR uni022E
ENCODING 558
SWIDTH 833 0
DWIDTH 15 0
BBX 14 18 0 0
BITMAP
0300
0300
0300
0000
07C0
1C70
3838
783C
701C
F01C
E01C
E01C
E03C
E038
F078
7070
38E0
0F80
ENDCHAR
STARTCHAR uni022F
ENCODING 559
SWIDTH 574 0
DWIDTH 11 0
BBX 10 13 0 0
BITMAP
0C00
0C00
0C00
0000
0F00
3180
71C0
E1C0
E1C0
E1C0
E380
6300
3C00
ENDCHAR
STARTCHAR uni0230
ENCODING 560
SWIDTH 833 0
DWIDTH 15 0
BBX 14 21 0 0
BITMAP
0FC0
0FC0
0000
0300
0300
0300
0000
07C0
1C70
3838
783C
701C
F01C
E01C
E01C
E03C
E038
F078
7070
38E0
0F80
ENDCHAR
STARTCHAR uni0231
ENCODING 561
SWIDTH 574 0
DWIDTH 11 0
BBX 10 16 0 0
BITMAP
3F00
3F00
0000
0C00
0C00
0C00
0000
0F00
3180
71C0
E1C0
E1C0
E1C0
E380
6300
3C00
ENDCHAR
STARTCHAR uni0232
ENCODING 562
SWIDTH 704 0
DWIDTH 13 0
BBX 13 17 0 0
BITMAP
1F80
1F80
0000
FC78
7830
3860
3CC0
1C80
1D80
0F00
0F00
0E00
0E00
0E00
1E00
1E00
3F00
ENDCHAR
STARTCHAR uni0233
ENCODING 563
SWIDTH 519 0
DWIDTH 10 0
BBX 10 16 -1 -4
BITMAP
3F00
3F00
0000
30C0
78C0
B840
1C80
1C80
0F00
0F00
0600
0600
0400
C800
F000
6000
ENDCHAR
STARTCHAR uni0250
ENCODING 592
SWIDTH 667 0
DWIDTH 12 0
BBX 11 9 0 0
BITMAP
7380
BCC0
38E0
38E0
70E0
70E0
71C0
7980
7600
ENDCHAR
STARTCHAR uni0259
ENCODING 601
SWIDTH 519 0
DWIDTH 10 0
BBX 9 9 0 0
BITMAP
1E00
6300
0380
0F80
7380
E380
C700
C600
7800
ENDCHAR
STARTCHAR uni025F
ENCODING 607
SWIDTH 389 0
DWIDTH 7 0
BBX 9 18 0 -9
BITMAP
0180
0380
0380
0380
0380
0380
0380
0700
0700
0700
0700
0700
3F80
0E00
0E00
CC00
DC00
7000
ENDCHAR
STARTCHAR uni0265
ENCODING 613
SWIDTH 685 0
DWIDTH 12 0
BBX 11 14 0 -5
BITMAP
78E0
B8E0
38E0
38E0
70E0
71C0
73C0
7DC0
39C0
01C0
0380
0380
0380
03C0
ENDCHAR
STARTCHAR uni0275
ENCODING 629
SWIDTH 574 0
DWIDTH 11 0
BBX 10 9 0 0
BITMAP
0F00
3180
71C0
FFC0
FFC0
E1C0
E380
6300
3C00
ENDCHAR
STARTCHAR uni0279
ENCODING 633
SWIDTH 519 0
DWIDTH 9 0
BBX 9 9 0 0
BITMAP
0380
0380
0380
0380
0700
0700
6F00
F700
E780
ENDCHAR
STARTCHAR uni0287
ENCODING 647
SWIDTH 407 0
DWIDTH 8 0
BBX 7 12 1 0
BITMAP
1E
2E
0E
0E
0E
1C
1C
1C
FE
38
38
38
ENDCHAR
STARTCHAR uni0289
ENCODING 649
SWIDTH 685 0
DWIDTH 12 0
BBX 11 9 0 0
BITMAP
F1C0
71C0
71C0
FFE0
FFE0
E380
E780
FBA0
73C0
ENDCHAR
STARTCHAR uni028C
ENCODING 652
SWIDTH 556 0
DWIDTH 10 0
BBX 9 9 0 0
BITMAP
0E00
3F00
6380
4380
8380
8700
C700
E700
6780
ENDCHAR
STARTCHAR uni028D
ENCODING 653
SWIDTH 833 0
DWIDTH 16 0
BBX 15 9 0 0
BITMAP
0E38
3F7C
638E
438E
838E
871C
C71C
E71C
671E
ENDCHAR
STARTCHAR uni028E
ENCODING 654
SWIDTH 519 0
DWIDTH 10 0
BBX 10 13 -1 0
BITMAP
0180
03C0
04C0
0800
1800
1800
3C00
3C00
4E00
4E00
8740
C780
C300
ENDCHAR
STARTCHAR uni029E
ENCODING 670
SWIDTH 648 0
DWIDTH 11 0
BBX 11 14 0 -5
BITMAP
38E0
78E0
9CE0
1CE0
0DE0
31C0
73C0
7DC0
39C0
01C0
0380
0380
0380
03C0
ENDCHAR
STARTCHAR uni02BB
ENCODING 699
SWIDTH 259 0
DWIDTH 5 0
BBX 4 7 0 7
BITMAP
10
20
40
E0
F0
F0
60
ENDCHAR
STARTCHAR afii57929
ENCODING 700
SWIDTH 259 0
DWIDTH 5 0
BBX 4 7 0 7
BITMAP
60
F0
F0
70
20
40
80
ENDCHAR
STARTCHAR afii64937
ENCODING 701
SWIDTH 259 0
DWIDTH 5 0
BBX 4 7 0 7
BITMAP
60
F0
F0
E0
40
20
10
ENDCHAR
STARTCHAR circumflex
ENCODING 710
SWIDTH 333 0
DWIDTH 7 0
BBX 6 4 0 10
BITMAP
18
38
6C
CC
ENDCHAR
STARTCHAR caron
ENCODING 711
SWIDTH 333 0
DWIDTH 7 0
BBX 6 4 0 10
BITMAP
CC
D8
70
60
ENDCHAR
STARTCHAR uni02C8
ENCODING 712
SWIDTH 287 0
DWIDTH 5 0
BBX 2 6 1 8
BITMAP
C0
C0
C0
C0
C0
C0
ENDCHAR
STARTCHAR macron
ENCODING 713
SWIDTH 333 0
DWIDTH 7 0
BBX 6 2 1 11
BITMAP
FC
FC
ENDCHAR
STARTCHAR uni02CA
ENCODING 714
SWIDTH 333 0
DWIDTH 6 0
BBX 5 4 1 11
BITMAP
18
38
70
C0
ENDCHAR
STARTCHAR uni02CB
ENCODING 715
SWIDTH 333 0
DWIDTH 6 0
BBX 5 4 0 10
BITMAP
C0
E0
70
18
ENDCHAR
STARTCHAR uni02CD
ENCODING 717
SWIDTH 333 0
DWIDTH 7 0
BBX 6 2 1 -3
BITMAP
FC
FC
ENDCHAR
STARTCHAR uni02CE
ENCODING 718
SWIDTH 333 0
DWIDTH 6 0
BBX 5 4 0 -5
BITMAP
C0
E0
70
18
ENDCHAR
STARTCHAR uni02CF
ENCODING 719
SWIDTH 333 0
DWIDTH 6 0
BBX 5 4 1 -5
BITMAP
18
38
70
C0
ENDCHAR
STARTCHAR breve
ENCODING 728
SWIDTH 333 0
DWIDTH 6 0
BBX 5 3 0 10
BITMAP
88
F8
70
ENDCHAR
STARTCHAR dotaccent
ENCODING 729
SWIDTH 333 0
DWIDTH 5 0
BBX 2 3 1 10
BITMAP
C0
C0
C0
ENDCHAR
STARTCHAR ring
ENCODING 730
SWIDTH 333 0
DWIDTH 5 0
BBX 4 4 0 10
BITMAP
60
90
90
60
ENDCHAR
STARTCHAR ogonek
ENCODING 731
SWIDTH 333 0
DWIDTH 5 0
BBX 4 4 0 -4
BITMAP
20
C0
D0
60
ENDCHAR
STARTCHAR tilde
ENCODING 732
SWIDTH 333 0
DWIDTH 8 0
BBX 7 3 0 10
BITMAP
72
FE
9C
ENDCHAR
STARTCHAR hungarumlaut
ENCODING 733
SWIDTH 333 0
DWIDTH 11 0
BBX 10 4 0 10
BITMAP
18C0
39C0
7380
C600
ENDCHAR
STARTCHAR uni02EE
ENCODING 750
SWIDTH 481 0
DWIDTH 10 0
BBX 9 7 0 7
BITMAP
6300
F780
F780
7380
2100
4200
8400
ENDCHAR
STARTCHAR uni037E
ENCODING 894
SWIDTH 287 0
DWIDTH 5 0
BBX 5 12 -1 -3
BITMAP
30
78
78
30
00
60
F0
F0
70
20
40
80
ENDCHAR
STARTCHAR tonos
ENCODING 900
SWIDTH 333 0
DWIDTH 6 0
BBX 5 4 1 11
BITMAP
18
38
70
C0
ENDCHAR
STARTCHAR dieresistonos
ENCODING 901
SWIDTH 333 0
DWIDTH 7 0
BBX 6 7 1 11
BITMAP
0C
1C
38
60
00
CC
CC
ENDCHAR
STARTCHAR anoteleia
ENCODING 903
SWIDTH 287 0
DWIDTH 7 0
BBX 4 4 1 4
BITMAP
60
F0
F0
60
ENDCHAR
STARTCHAR mu
ENCODING 956
SWIDTH 576 0
DWIDTH 12 0
BBX 13 13 -2 -4
BITMAP
3C70
1C70
1C70
1C70
38E0
38E0
39E0
7EE8
7CF0
6000
E000
F000
6000
ENDCHAR
STARTCHAR uni1E00
ENCODING 7680
SWIDTH 741 0
DWIDTH 13 0
BBX 14 19 -2 -5
BITMAP
0080
0180
01C0
03C0
03C0
05E0
0CE0
08E0
18F0
1070
3FF0
2078
6078
F0FC
0000
0300
0480
0480
0300
ENDCHAR
STARTCHAR uni1E01
ENCODING 7681
SWIDTH 667 0
DWIDTH 12 0
BBX 11 14 0 -5
BITMAP
0DC0
33C0
71C0
E1C0
E1C0
E380
E380
67A0
39C0
0000
0600
0900
0900
0600
ENDCHAR
STARTCHAR uni1E02
ENCODING 7682
SWIDTH 759 0
DWIDTH 15 0
BBX 14 18 0 0
BITMAP
0180
0180
0180
0000
3FF8
1E3C
1C3C
1C3C
1C38
1C70
1FC0
3CF0
3878
3878
3878
3878
78F0
FFC0
ENDCHAR
STARTCHAR uni1E03
ENCODING 7683
SWIDTH 611 0
DWIDTH 11 0
BBX 10 18 0 0
BITMAP
1800
1800
1800
0000
7800
3800
3800
3800
7000
7700
7980
71C0
F1C0
E1C0
E1C0
E380
6300
3C00
ENDCHAR
STARTCHAR uni1E04
ENCODING 7684
SWIDTH 759 0
DWIDTH 15 0
BBX 14 18 0 -4
BITMAP
3FF8
1E3C
1C3C
1C3C
1C38
1C70
1FC0
3CF0
3878
3878
3878
3878
78F0
FFC0
0000
0300
0300
0300
ENDCHAR
STARTCHAR uni1E05
ENCODING 7685
SWIDTH 611 0
DWIDTH 11 0
BBX 10 18 0 -4
BITMAP
7800
3800
3800
3800
7000
7700
7980
71C0
F1C0
E1C0
E1C0
E380
6300
3C00
0000
0C00
0C00
0C00
ENDCHAR
STARTCHAR uni1E06
ENCODING 7686
SWIDTH 759 0
DWIDTH 15 0
BBX 14 17 0 -3
BITMAP
3FF8
1E3C
1C3C
1C3C
1C38
1C70
1FC0
3CF0
3878
3878
3878
3878
78F0
FFC0
0000
0FC0
0FC0
ENDCHAR
STARTCHAR uni1E07
ENCODING 7687
SWIDTH 611 0
DWIDTH 11 0
BBX 10 17 0 -3
BITMAP
7800
3800
3800
3800
7000
7700
7980
71C0
F1C0
E1C0
E1C0
E380
6300
3C00
0000
3F00
3F00
ENDCHAR
STARTCHAR uni1E08
ENCODING 7688
SWIDTH 759 0
DWIDTH 14 0
BBX 13 23 0 -4
BITMAP
00C0
01C0
0380
0600
0000
07E8
1E38
3C18
7810
7810
F800
F000
F000
F000
F000
7810
7810
3C60
0FC0
0200
0700
0300
0E00
ENDCHAR
STARTCHAR uni1E09
ENCODING 7689
SWIDTH 537 0
DWIDTH 10 0
BBX 9 18 0 -4
BITMAP
0300
0700
0E00
1800
0000
0F00
3180
7380
E300
E000
E000
E000
6300
3C00
0800
1C00
0C00
3800
ENDCHAR
STARTCHAR uni1E0A
ENCODING 7690
SWIDTH 833 0
DWIDTH 16 0
BBX 15 18 0 0
BITMAP
0180
0180
0180
0000
3FE0
1E78
1C1C
1C1C
1C1E
1C1E
1C1E
3C1E
381E
383C
383C
3878
78F0
FFC0
ENDCHAR
STARTCHAR uni1E0B
ENCODING 7691
SWIDTH 667 0
DWIDTH 13 0
BBX 12 18 0 0
BITMAP
00C0
00C0
00C0
0000
00F0
0070
0070
0070
00E0
0EE0
31E0
70E0
E0E0
E1C0
E1C0
E1C0
63D0
3CE0
ENDCHAR
STARTCHAR uni1E0C
ENCODING 7692
SWIDTH 833 0
DWIDTH 16 0
BBX 15 18 0 -4
BITMAP
3FE0
1E78
1C1C
1C1C
1C1E
1C1E
1C1E
3C1E
381E
383C
383C
3878
78F0
FFC0
0000
0300
0300
0300
ENDCHAR
STARTCHAR uni1E0D
ENCODING 7693
SWIDTH 667 0
DWIDTH 13 0
BBX 12 18 0 -4
BITMAP
00F0
0070
0070
0070
00E0
0EE0
31E0
70E0
E0E0
E1C0
E1C0
E1C0
63D0
3CE0
0000
0600
0600
0600
ENDCHAR
STARTCHAR uni1E0E
ENCODING 7694
SWIDTH 833 0
DWIDTH 16 0
BBX 15 17 0 -3
BITMAP
3FE0
1E78
1C1C
1C1C
1C1E
1C1E
1C1E
3C1E
381E
383C
383C
3878
78F0
FFC0
0000
0FC0
0FC0
ENDCHAR
STARTCHAR uni1E0F
ENCODING 7695
SWIDTH 667 0
DWIDTH 13 0
BBX 12 17 0 -3
BITMAP
00F0
0070
0070
0070
00E0
0EE0
31E0
70E0
E0E0
E1C0
E1C0
E1C0
63D0
3CE0
0000
1F80
1F80
ENDCHAR
STARTCHAR uni1E10
ENCODING 7696
SWIDTH 833 0
DWIDTH 16 0
BBX 15 18 0 -4
BITMAP
3FE0
1E78
1C1C
1C1C
1C1E
1C1E
1C1E
3C1E
381E
383C
383C
3878
78F0
FFC0
0100
0380
0180
0700
ENDCHAR
STARTCHAR uni1E11
ENCODING 7697
SWIDTH 667 0
DWIDTH 13 0
BBX 12 18 0 -4
BITMAP
00F0
0070
0070
0070
00E0
0EE0
31E0
70E0
E0E0
E1C0
E1C0
E1C0
63D0
3CE0
0200
0700
0300
0E00
ENDCHAR
STARTCHAR uni1E12
ENCODING 7698
SWIDTH 833 0
DWIDTH 16 0
BBX 15 19 0 -5
BITMAP
3FE0
1E78
1C1C
1C1C
1C1E
1C1E
1C1E
3C1E
381E
383C
383C
3878
78F0
FFC0
0000
0180
0380
06C0
0CC0
ENDCHAR
STARTCHAR uni1E13
ENCODING 7699
SWIDTH 667 0
DWIDTH 13 0
BBX 12 19 0 -5
BITMAP
00F0
0070
0070
0070
00E0
0EE0
31E0
70E0
E0E0
E1C0
E1C0
E1C0
63D0
3CE0
0000
0600
0E00
1B00
3300
ENDCHAR
STARTCHAR uni1E14
ENCODING 7700
SWIDTH 741 0
DWIDTH 15 0
BBX 14 22 0 0
BITMAP
0600
0700
0380
00C0
0000
0FC0
0FC0
0000
3FFC
1E1C
1C08
1C08
1C28
1C60
1FE0
3CC0
3840
3848
3818
3830
7870
FFF0
ENDCHAR
STARTCHAR uni1E15
ENCODING 7701
SWIDTH 519 0
DWIDTH 10 0
BBX 9 17 0 0
BITMAP
3000
3800
1C00
0600
0000
3F00
3F00
0000
0F00
3180
7180
E380
E700
F800
E000
6300
3C00
ENDCHAR
STARTCHAR uni1E16
ENCODING 7702
SWIDTH 741 0
DWIDTH 15 0
BBX 14 22 0 0
BITMAP
00C0
01C0
0380
0600
0000
0FC0
0FC0
0000
3FFC
1E1C
1C08
1C08
1C28
1C60
1FE0
3CC0
3840
3848
3818
3830
7870
FFF0
ENDCHAR
STARTCHAR uni1E17
ENCODING 7703
SWIDTH 519 0
DWIDTH 10 0
BBX 9 17 0 0
BITMAP
0300
0700
0E00
1800
0000
3F00
3F00
0000
0F00
3180
7180
E380
E700
F800
E000
6300
3C00
ENDCHAR
STARTCHAR uni1E18
ENCODING 7704
SWIDTH 741 0
DWIDTH 15 0
BBX 14 19 0 -5
BITMAP
3FFC
1E1C
1C08
1C08
1C28
1C60
1FE0
3CC0
3840
3848
3818
3830
7870
FFF0
0000
0300
0700
0D80
1980
ENDCHAR
STARTCHAR uni1E19
ENCODING 7705
SWIDTH 519 0
DWIDTH 10 0
BBX 9 14 0 -5
BITMAP
0F00
3180
7180
E380
E700
F800
E000
6300
3C00
0000
1800
3800
6C00
CC00
ENDCHAR
STARTCHAR uni1E1A
ENCODING 7706
SWIDTH 741 0
DWIDTH 15 0
BBX 14 18 0 -4
BITMAP
3FFC
1E1C
1C08
1C08
1C28
1C60
1FE0
3CC0
3840
3848
3818
3830
7870
FFF0
0000
0E40
1FC0
1380
ENDCHAR
STARTCHAR uni1E1B
ENCODING 7707
SWIDTH 519 0
DWIDTH 10 0
BBX 9 13 0 -4
BITMAP
0F00
3180
7180
E380
E700
F800
E000
6300
3C00
0000
7200
FE00
9C00
ENDCHAR
STARTCHAR uni1E1C
ENCODING 7708
SWIDTH 741 0
DWIDTH 15 0
BBX 14 22 0 -4
BITMAP
0440
07C0
0380
0000
3FFC
1E1C
1C08
1C08
1C28
1C60
1FE0
3CC0
3840
3848
3818
3830
7870
FFF0
0200
0700
0300
0E00
ENDCHAR
STARTCHAR uni1E1D
ENCODING 7709
SWIDTH 519 0
DWIDTH 10 0
BBX 9 17 0 -4
BITMAP
2200
3E00
1C00
0000
0F00
3180
7180
E380
E700
F800
E000
6300
3C00
0800
1C00
0C00
3800
ENDCHAR
STARTCHAR uni1E1E
ENCODING 7710
SWIDTH 704 0
DWIDTH 15 0
BBX 14 18 0 0
BITMAP
0300
0300
0300
0000
3FFC
1E1C
1C08
1C08
1C28
1C60
1FE0
3CC0
3840
3840
3800
3800
7800
FC00
ENDCHAR
STARTCHAR uni1E1F
ENCODING 7711
SWIDTH 389 0
DWIDTH 7 0
BBX 9 22 0 -4
BITMAP
0C00
0C00
0C00
0000
0700
1D80
1980
3800
3800
FE00
7000
7000
7000
7000
7000
E000
E000
E000
E000
E000
E000
C000
ENDCHAR
STARTCHAR uni1E20
ENCODING 7712
SWIDTH 815 0
DWIDTH 15 0
BBX 14 17 0 0
BITMAP
0FC0
0FC0
0000
07F4
1E1C
3C0C
7808
7808
F000
F000
F000
F0FC
F038
7038
7870
38F0
0FD0
ENDCHAR
STARTCHAR uni1E21
ENCODING 7713
SWIDTH 611 0
DWIDTH 12 0
BBX 13 18 -1 -4
BITMAP
07E0
07E0
0000
0018
0038
07C0
18E0
38E0
38E0
38C0
0F00
1800
3800
3F80
7FC0
C0C0
C1C0
7F00
ENDCHAR
STARTCHAR uni1E22
ENCODING 7714
SWIDTH 870 0
DWIDTH 17 0
BBX 16 18 0 0
BITMAP
00C0
00C0
00C0
0000
3F3F
1E1E
1C1C
1C1C
1C1C
1C1C
1FFC
3C38
3838
3838
3838
3838
7878
FCFC
ENDCHAR
STARTCHAR uni1E23
ENCODING 7715
SWIDTH 685 0
DWIDTH 12 0
BBX 11 18 0 0
BITMAP
1800
1800
1800
0000
7800
3800
3800
3800
7000
7380
77C0
79C0
71C0
E1C0
E380
E380
E3A0
E3C0
ENDCHAR
STARTCHAR uni1E24
ENCODING 7716
SWIDTH 870 0
DWIDTH 17 0
BBX 16 18 0 -4
BITMAP
3F3F
1E1E
1C1C
1C1C
1C1C
1C1C
1FFC
3C38
3838
3838
3838
3838
7878
FCFC
0000
0300
0300
0300
ENDCHAR
STARTCHAR uni1E25
ENCODING 7717
SWIDTH 685 0
DWIDTH 12 0
BBX 11 18 0 -4
BITMAP
7800
3800
3800
3800
7000
7380
77C0
79C0
71C0
E1C0
E380
E380
E3A0
E3C0
0000
0C00
0C00
0C00
ENDCHAR
STARTCHAR uni1E26
ENCODING 7718
SWIDTH 870 0
DWIDTH 17 0
BBX 16 17 0 0
BITMAP
0330
0330
0000
3F3F
1E1E
1C1C
1C1C
1C1C
1C1C
1FFC
3C38
3838
3838
3838
3838
7878
FCFC
ENDCHAR
STARTCHAR uni1E27
ENCODING 7719
SWIDTH 685 0
DWIDTH 12 0
BBX 11 17 0 0
BITMAP
6600
6600
0000
7800
3800
3800
3800
7000
7380
77C0
79C0
71C0
E1C0
E380
E380
E3A0
E3C0
ENDCHAR
STARTCHAR uni1E28
ENCODING 7720
SWIDTH 870 0
DWIDTH 17 0
BBX 16 18 0 -4
BITMAP
3F3F
1E1E
1C1C
1C1C
1C1C
1C1C
1FFC
3C38
3838
3838
3838
3838
7878
FCFC
0100
0380
0180
0700
ENDCHAR
STARTCHAR uni1E29
ENCODING 7721
SWIDTH 685 0
DWIDTH 12 0
BBX 11 18 0 -4
BITMAP
7800
3800
3800
3800
7000
7380
77C0
79C0
71C0
E1C0
E380
E380
E3A0
E3C0
0400
0E00
0600
1C00
ENDCHAR
STARTCHAR uni1E2A
ENCODING 7722
SWIDTH 870 0
DWIDTH 17 0
BBX 16 18 0 -4
BITMAP
3F3F
1E1E
1C1C
1C1C
1C1C
1C1C
1FFC
3C38
3838
3838
3838
3838
7878
FCFC
0000
0440
07C0
0380
ENDCHAR
STARTCHAR uni1E2B
ENCODING 7723
SWIDTH 685 0
DWIDTH 12 0
BBX 11 18 0 -4
BITMAP
7800
3800
3800
3800
7000
7380
77C0
79C0
71C0
E1C0
E380
E380
E3A0
E3C0
0000
1100
1F00
0E00
ENDCHAR
STARTCHAR uni1E2C
ENCODING 7724
SWIDTH 444 0
DWIDTH 9 0
BBX 8 18 0 -4
BITMAP
3F
1E
1C
1C
1C
1C
1C
3C
38
38
38
38
78
FC
00
72
FE
9C
ENDCHAR
STARTCHAR uni1E2D
ENCODING 7725
SWIDTH 389 0
DWIDTH 6 0
BBX 7 17 -1 -4
BITMAP
1C
1C
00
00
78
38
38
38
70
70
70
74
78
00
72
FE
9C
ENDCHAR
STARTCHAR uni1E2E
ENCODING 7726
SWIDTH 444 0
DWIDTH 9 0
BBX 8 22 0 0
BITMAP
03
07
0E
18
00
33
33
00
3F
1E
1C
1C
1C
1C
1C
3C
38
38
38
38
78
FC
ENDCHAR
STARTCHAR uni1E2F
ENCODING 7727
SWIDTH 389 0
DWIDTH 6 0
BBX 6 17 0 0
BITMAP
0C
1C
38
60
00
CC
CC
00
F0
70
70
70
E0
E0
E0
E8
70
ENDCHAR
STARTCHAR uni1E30
ENCODING 7728
SWIDTH 778 0
DWIDTH 16 0
BBX 16 19 0 0
BITMAP
0060
00E0
01C0
0300
0000
3F1F
1E0C
1C18
1C30
1C60
1CC0
1DC0
3FC0
3DE0
38E0
38F0
3870
7878
FCFC
ENDCHAR
STARTCHAR uni1E31
ENCODING 7729
SWIDTH 648 0
DWIDTH 11 0
BBX 11 19 0 0
BITMAP
0600
0E00
1C00
3000
0000
7800
3800
3800
3800
7000
7380
77C0
79C0
7180
F600
E700
E720
E3C0
E380
ENDCHAR
STARTCHAR uni1E32
ENCODING 7730
SWIDTH 778 0
DWIDTH 16 0
BBX 16 18 0 -4
BITMAP
3F1F
1E0C
1C18
1C30
1C60
1CC0
1DC0
3FC0
3DE0
38E0
38F0
3870
7878
FCFC
0000
0300
0300
0300
ENDCHAR
STARTCHAR uni1E33
ENCODING 7731
SWIDTH 648 0
DWIDTH 11 0
BBX 11 18 0 -4
BITMAP
7800
3800
3800
3800
7000
7380
77C0
79C0
7180
F600
E700
E720
E3C0
E380
0000
0C00
0C00
0C00
ENDCHAR
STARTCHAR uni1E34
ENCODING 7732
SWIDTH 778 0
DWIDTH 16 0
BBX 16 17 0 -3
BITMAP
3F1F
1E0C
1C18
1C30
1C60
1CC0
1DC0
3FC0
3DE0
38E0
38F0
3870
7878
FCFC
0000
0FC0
0FC0
ENDCHAR
STARTCHAR uni1E35
ENCODING 7733
SWIDTH 648 0
DWIDTH 11 0
BBX 11 17 0 -3
BITMAP
7800
3800
3800
3800
7000
7380
77C0
79C0
7180
F600
E700
E720
E3C0
E380
0000
3F00
3F00
ENDCHAR
STARTCHAR uni1E36
ENCODING 7734
SWIDTH 704 0
DWIDTH 14 0
BBX 13 18 0 -4
BITMAP
3F00
1E00
1C00
1C00
1C00
1C00
3C00
3C00
3800
3808
3818
3830
7870
FFF0
0000
0600
0600
0600
ENDCHAR
STARTCHAR uni1E37
ENCODING 7735
SWIDTH 389 0
DWIDTH 6 0
BBX 5 18 0 -4
BITMAP
78
38
38
38
70
70
70
70
70
E0
E0
E0
E8
F0
00
60
60
60
ENDCHAR
STARTCHAR uni1E38
ENCODING 7736
SWIDTH 704 0
DWIDTH 14 0
BBX 13 21 0 -4
BITMAP
3F00
3F00
0000
3F00
1E00
1C00
1C00
1C00
1C00
3C00
3C00
3800
3808
3818
3830
7870
FFF0
0000
0600
0600
0600
ENDCHAR
STARTCHAR uni1E39
ENCODING 7737
SWIDTH 389 0
DWIDTH 6 0
BBX 6 21 0 -4
BITMAP
FC
FC
00
78
38
38
38
70
70
70
70
70
E0
E0
E0
E8
F0
00
60
60
60
ENDCHAR
STARTCHAR uni1E3A
ENCODING 7738
SWIDTH 704 0
DWIDTH 14 0
BBX 13 17 0 -3
BITMAP
3F00
1E00
1C00
1C00
1C00
1C00
3C00
3C00
3800
3808
3818
3830
7870
FFF0
0000
1F80
1F80
ENDCHAR
STARTCHAR uni1E3B
ENCODING 7739
SWIDTH 389 0
DWIDTH 6 0
BBX 6 17 -1 -3
BITMAP
3C
1C
1C
1C
38
38
38
38
38
70
70
70
74
78
00
FC
FC
ENDCHAR
STARTCHAR uni1E3C
ENCODING 7740
SWIDTH 704 0
DWIDTH 14 0
BBX 13 19 0 -5
BITMAP
3F00
1E00
1C00
1C00
1C00
1C00
3C00
3C00
3800
3808
3818
3830
7870
FFF0
0000
0300
0700
0D80
1980
ENDCHAR
STARTCHAR uni1E3D
ENCODING 7741
SWIDTH 389 0
DWIDTH 6 0
BBX 6 19 -1 -5
BITMAP
3C
1C
1C
1C
38
38
38
38
38
70
70
70
74
78
00
18
38
6C
CC
ENDCHAR
STARTCHAR uni1E3E
ENCODING 7742
SWIDTH 944 0
DWIDTH 19 0
BBX 19 19 -1 0
BITMAP
001800
003800
007000
00C000
000000
3C03E0
1E03C0
1E07C0
1E07C0
1F0F80
170B80
171B80
139380
33B380
23E380
21C380
21C780
618780
F18FC0
ENDCHAR
STARTCHAR uni1E3F
ENCODING 7743
SWIDTH 944 0
DWIDTH 18 0
BBX 17 14 0 0
BITMAP
006000
00E000
01C000
030000
000000
F38E00
77DF00
79E700
71C700
71C700
E38E00
E38E00
E38E80
E38F00
ENDCHAR
STARTCHAR uni1E40
ENCODING 7744
SWIDTH 944 0
DWIDTH 19 0
BBX 19 18 -1 0
BITMAP
006000
006000
006000
000000
3C03E0
1E03C0
1E07C0
1E07C0
1F0F80
170B80
171B80
139380
33B380
23E380
21C380
21C780
618780
F18FC0
ENDCHAR
STARTCHAR uni1E41
ENCODING 7745
SWIDTH 944 0
DWIDTH 18 0
BBX 17 13 0 0
BITMAP
018000
018000
018000
000000
F38E00
77DF00
79E700
71C700
71C700
E38E00
E38E00
E38E80
E38F00
ENDCHAR
STARTCHAR uni1E42
ENCODING 7746
SWIDTH 944 0
DWIDTH 19 0
BBX 19 18 -1 -4
BITMAP
3C03E0
1E03C0
1E07C0
1E07C0
1F0F80
170B80
171B80
139380
33B380
23E380
21C380
21C780
618780
F18FC0
000000
006000
006000
006000
ENDCHAR
STARTCHAR uni1E43
ENCODING 7747
SWIDTH 944 0
DWIDTH 18 0
BBX 17 13 0 -4
BITMAP
F38E00
77DF00
79E700
71C700
71C700
E38E00
E38E00
E38E80
E38F00
000000
018000
018000
018000
ENDCHAR
STARTCHAR uni1E44
ENCODING 7748
SWIDTH 852 0
DWIDTH 15 0
BBX 16 18 -1 0
BITMAP
0180
0180
0180
0000
380F
1C06
1E06
1E04
1F04
1784
13CC
11C8
30E8
20F8
2078
2038
6030
F010
ENDCHAR
STARTCHAR uni1E45
ENCODING 7749
SWIDTH 685 0
DWIDTH 12 0
BBX 11 13 0 0
BITMAP
0C00
0C00
0C00
0000
F380
77C0
79C0
71C0
71C0
E380
E380
E3A0
E3C0
ENDCHAR
STARTCHAR uni1E46
ENCODING 7750
SWIDTH 852 0
DWIDTH 15 0
BBX 16 18 -1 -4
BITMAP
380F
1C06
1E06
1E04
1F04
1784
13CC
11C8
30E8
20F8
2078
2038
6030
F010
0000
0300
0300
0300
ENDCHAR
STARTCHAR uni1E47
ENCODING 7751
SWIDTH 685 0
DWIDTH 12 0
BBX 11 13 0 -4
BITMAP
F380
77C0
79C0
71C0
71C0
E380
E380
E3A0
E3C0
0000
0C00
0C00
0C00
ENDCHAR
STARTCHAR uni1E48
ENCODING 7752
SWIDTH 852 0
DWIDTH 15 0
BBX 16 17 -1 -3
BITMAP
380F
1C06
1E06
1E04
1F04
1784
13CC
11C8
30E8
20F8
2078
2038
6030
F010
0000
0FC0
0FC0
ENDCHAR
STARTCHAR uni1E49
ENCODING 7753
SWIDTH 685 0
DWIDTH 12 0
BBX 11 12 0 -3
BITMAP
F380
77C0
79C0
71C0
71C0
E380
E380
E3A0
E3C0
0000
3F00
3F00
ENDCHAR
STARTCHAR uni1E4A
ENCODING 7754
SWIDTH 852 0
DWIDTH 15 0
BBX 16 19 -1 -5
BITMAP
380F
1C06
1E06
1E04
1F04
1784
13CC
11C8
30E8
20F8
2078
2038
6030
F010
0000
0180
0380
06C0
0CC0
ENDCHAR
STARTCHAR uni1E4B
ENCODING 7755
SWIDTH 685 0
DWIDTH 12 0
BBX 11 14 0 -5
BITMAP
F380
77C0
79C0
71C0
71C0
E380
E380
E3A0
E3C0
0000
0600
0E00
1B00
3300
ENDCHAR
STARTCHAR uni1E4C
ENCODING 7756
SWIDTH 833 0
DWIDTH 15 0
BBX 14 23 0 0
BITMAP
00C0
01C0
0380
0600
0000
0310
07E0
08C0
0000
07C0
1C70
3838
783C
701C
F01C
E01C
E01C
E03C
E038
F078
7070
38E0
0F80
ENDCHAR
STARTCHAR uni1E4D
ENCODING 7757
SWIDTH 574 0
DWIDTH 11 0
BBX 10 17 0 0
BITMAP
0180
0380
0700
0C00
0000
0E80
1700
0000
0F00
3180
71C0
E1C0
E1C0
E1C0
E380
6300
3C00
ENDCHAR
STARTCHAR uni1E4E
ENCODING 7758
SWIDTH 833 0
DWIDTH 15 0
BBX 14 21 0 0
BITMAP
0660
0660
0000
0310
07E0
08C0
0000
07C0
1C70
3838
783C
701C
F01C
E01C
E01C
E03C
E038
F078
7070
38E0
0F80
ENDCHAR
STARTCHAR uni1E4F
ENCODING 7759
SWIDTH 574 0
DWIDTH 11 0
BBX 10 15 0 0
BITMAP
1980
1980
0000
0E80
1700
0000
0F00
3180
71C0
E1C0
E1C0
E1C0
E380
6300
3C00
ENDCHAR
STARTCHAR uni1E50
ENCODING 7760
SWIDTH 833 0
DWIDTH 15 0
BBX 14 22 0 0
BITMAP
0C00
0E00
0700
0180
0000
0FC0
0FC0
0000
07C0
1C70
3838
783C
701C
F01C
E01C
E01C
E03C
E038
F078
7070
38E0
0F80
ENDCHAR
STARTCHAR uni1E51
ENCODING 7761
SWIDTH 574 0
DWIDTH 11 0
BBX 10 17 0 0
BITMAP
3000
3800
1C00
0600
0000
3F00
3F00
0000
0F00
3180
71C0
E1C0
E1C0
E1C0
E380
6300
3C00
ENDCHAR
STARTCHAR uni1E52
ENCODING 7762
SWIDTH 833 0
DWIDTH 15 0
BBX 14 22 0 0
BITMAP
00C0
01C0
0380
0600
0000
0FC0
0FC0
0000
07C0
1C70
3838
783C
701C
F01C
E01C
E01C
E03C
E038
F078
7070
38E0
0F80
ENDCHAR
STARTCHAR uni1E53
ENCODING 7763
SWIDTH 574 0
DWIDTH 11 0
BBX 10 17 0 0
BITMAP
0300
0700
0E00
1800
0000
3F00
3F00
0000
0F00
3180
71C0
E1C0
E1C0
E1C0
E380
6300
3C00
ENDCHAR
STARTCHAR uni1E54
ENCODING 7764
SWIDTH 741 0
DWIDTH 14 0
BBX 13 19 0 0
BITMAP
00C0
01C0
0380
0600
0000
3FF0
1E78
1C38
1C38
1C38
1C38
1C70
3FC0
3C00
3800
3800
3800
7800
FC00
ENDCHAR
STARTCHAR uni1E55
ENCODING 7765
SWIDTH 648 0
DWIDTH 12 0
BBX 12 18 -1 -4
BITMAP
0180
0380
0700
0C00
0000
3DC0
1E60
1C70
1C70
3870
3870
38E0
38C0
3F00
7000
7000
7000
F800
ENDCHAR
STARTCHAR uni1E56
ENCODING 7766
SWIDTH 741 0
DWIDTH 14 0
BBX 13 18 0 0
BITMAP
0300
0300
0300
0000
3FF0
1E78
1C38
1C38
1C38
1C38
1C70
3FC0
3C00
3800
3800
3800
7800
FC00
ENDCHAR
STARTCHAR uni1E57
ENCODING 7767
SWIDTH 648 0
DWIDTH 12 0
BBX 12 17 -1 -4
BITMAP
0300
0300
0300
0000
3DC0
1E60
1C70
1C70
3870
3870
38E0
38C0
3F00
7000
7000
7000
F800
ENDCHAR
STARTCHAR uni1E58
ENCODING 7768
SWIDTH 796 0
DWIDTH 15 0
BBX 14 18 0 0
BITMAP
0180
0180
0180
0000
3FF0
1E7C
1C3C
1C3C
1C38
1C70
1FC0
3CE0
38E0
38F0
3870
3874
787C
FC38
ENDCHAR
STARTCHAR uni1E59
ENCODING 7769
SWIDTH 519 0
DWIDTH 9 0
BBX 9 13 0 0
BITMAP
0C00
0C00
0C00
0000
F380
7780
7B00
7000
7000
E000
E000
E000
E000
ENDCHAR
STARTCHAR uni1E5A
ENCODING 7770
SWIDTH 796 0
DWIDTH 15 0
BBX 14 18 0 -4
BITMAP
3FF0
1E7C
1C3C
1C3C
1C38
1C70
1FC0
3CE0
38E0
38F0
3870
3874
787C
FC38
0000
0300
0300
0300
ENDCHAR
STARTCHAR uni1E5B
ENCODING 7771
SWIDTH 519 0
DWIDTH 9 0
BBX 9 13 0 -4
BITMAP
F380
7780
7B00
7000
7000
E000
E000
E000
E000
0000
3000
3000
3000
ENDCHAR
STARTCHAR uni1E5C
ENCODING 7772
SWIDTH 796 0
DWIDTH 15 0
BBX 14 21 0 -4
BITMAP
07E0
07E0
0000
3FF0
1E7C
1C3C
1C3C
1C38
1C70
1FC0
3CE0
38E0
38F0
3870
3874
787C
FC38
0000
0300
0300
0300
ENDCHAR
STARTCHAR uni1E5D
ENCODING 7773
SWIDTH 519 0
DWIDTH 9 0
BBX 9 16 0 -4
BITMAP
7E00
7E00
0000
F380
7780
7B00
7000
7000
E000
E000
E000
E000
0000
3000
3000
3000
ENDCHAR
STARTCHAR uni1E5E
ENCODING 7774
SWIDTH 796 0
DWIDTH 15 0
BBX 14 17 0 -3
BITMAP
3FF0
1E7C
1C3C
1C3C
1C38
1C70
1FC0
3CE0
38E0
38F0
3870
3874
787C
FC38
0000
0FC0
0FC0
ENDCHAR
STARTCHAR uni1E5F
ENCODING 7775
SWIDTH 519 0
DWIDTH 9 0
BBX 9 12 0 -3
BITMAP
F380
7780
7B00
7000
7000
E000
E000
E000
E000
0000
FC00
FC00
ENDCHAR
STARTCHAR uni1E60
ENCODING 7776
SWIDTH 685 0
DWIDTH 13 0
BBX 12 18 0 0
BITMAP
0300
0300
0300
0000
0F90
1870
3030
7020
7820
7E00
3F80
1FC0
07E0
41E0
40E0
C0C0
E1C0
9F00
ENDCHAR
STARTCHAR uni1E61
ENCODING 7777
SWIDTH 481 0
DWIDTH 10 0
BBX 9 13 0 0
BITMAP
0C00
0C00
0C00
0000
0F00
3380
7300
7800
3E00
0F00
6700
E600
7800
ENDCHAR
STARTCHAR uni1E62
ENCODING 7778
SWIDTH 685 0
DWIDTH 13 0
BBX 12 18 0 -4
BITMAP
0F90
1870
3030
7020
7820
7E00
3F80
1FC0
07E0
41E0
40E0
C0C0
E1C0
9F00
0000
0600
0600
0600
ENDCHAR
STARTCHAR uni1E63
ENCODING 7779
SWIDTH 481 0
DWIDTH 10 0
BBX 9 13 0 -4
BITMAP
0F00
3380
7300
7800
3E00
0F00
6700
E600
7800
0000
1800
1800
1800
ENDCHAR
STARTCHAR uni1E64
ENCODING 7780
SWIDTH 685 0
DWIDTH 13 0
BBX 12 23 0 0
BITMAP
0300
0300
0300
0000
0180
0380
0700
0C00
0000
0F90
1870
3030
7020
7820
7E00
3F80
1FC0
07E0
41E0
40E0
C0C0
E1C0
9F00
ENDCHAR
STARTCHAR uni1E65
ENCODING 7781
SWIDTH 481 0
DWIDTH 10 0
BBX 9 18 0 0
BITMAP
0C00
0C00
0C00
0000
0300
0700
0E00
1800
0000
0F00
3380
7300
7800
3E00
0F00
6700
E600
7800
ENDCHAR
STARTCHAR uni1E66
ENCODING 7782
SWIDTH 685 0
DWIDTH 13 0
BBX 11 18 0 0
BITMAP
0300
0300
0300
0000
0660
06C0
0380
0300
0FE0
3C60
3820
7E00
7F80
3FC0
07E0
83E0
C7C0
FF80
ENDCHAR
STARTCHAR uni1E67
ENCODING 7783
SWIDTH 481 0
DWIDTH 10 0
BBX 9 18 0 0
BITMAP
0C00
0C00
0C00
0000
1980
1B00
0E00
0C00
0000
0F00
3380
7300
7800
3E00
0F00
6700
E600
7800
ENDCHAR
STARTCHAR uni1E68
ENCODING 7784
SWIDTH 685 0
DWIDTH 13 0
BBX 12 22 0 -4
BITMAP
0600
0600
0600
0000
0F90
1870
3030
7020
7820
7E00
3F80
1FC0
07E0
41E0
40E0
C0C0
E1C0
9F00
0000
0600
0600
0600
ENDCHAR
STARTCHAR uni1E69
ENCODING 7785
SWIDTH 481 0
DWIDTH 10 0
BBX 9 17 0 -4
BITMAP
0C00
0C00
0C00
0000
0F00
3380
7300
7800
3E00
0F00
6700
E600
7800
0000
1800
1800
1800
ENDCHAR
STARTCHAR uni1E6A
ENCODING 7786
SWIDTH 722 0
DWIDTH 13 0
BBX 13 18 0 0
BITMAP
0300
0300
0300
0000
7FF8
6738
C710
8710
8710
0700
0E00
0E00
0E00
0E00
0E00
0E00
1E00
3F00
ENDCHAR
STARTCHAR uni1E6B
ENCODING 7787
SWIDTH 407 0
DWIDTH 8 0
BBX 7 16 1 0
BITMAP
18
18
18
00
38
38
38
FE
70
70
70
E0
E0
E0
E8
F0
ENDCHAR
STARTCHAR uni1E6C
ENCODING 7788
SWIDTH 722 0
DWIDTH 13 0
BBX 13 18 0 -4
BITMAP
7FF8
6738
C710
8710
8710
0700
0E00
0E00
0E00
0E00
0E00
0E00
1E00
3F00
0000
0600
0600
0600
ENDCHAR
STARTCHAR uni1E6D
ENCODING 7789
SWIDTH 407 0
DWIDTH 8 0
BBX 7 16 1 -4
BITMAP
38
38
38
FE
70
70
70
E0
E0
E0
E8
F0
00
60
60
60
ENDCHAR
STARTCHAR uni1E6E
ENCODING 7790
SWIDTH 722 0
DWIDTH 13 0
BBX 13 17 0 -3
BITMAP
7FF8
6738
C710
8710
8710
0700
0E00
0E00
0E00
0E00
0E00
0E00
1E00
3F00
0000
1F80
1F80
ENDCHAR
STARTCHAR uni1E6F
ENCODING 7791
SWIDTH 407 0
DWIDTH 8 0
BBX 8 15 0 -3
BITMAP
1C
1C
1C
7F
38
38
38
70
70
70
74
78
00
FC
FC
ENDCHAR
STARTCHAR uni1E70
ENCODING 7792
SWIDTH 722 0
DWIDTH 13 0
BBX 13 19 0 -5
BITMAP
7FF8
6738
C710
8710
8710
0700
0E00
0E00
0E00
0E00
0E00
0E00
1E00
3F00
0000
0600
0E00
1B00
3300
ENDCHAR
STARTCHAR uni1E71
ENCODING 7793
SWIDTH 407 0
DWIDTH 8 0
BBX 8 17 0 -5
BITMAP
1C
1C
1C
7F
38
38
38
70
70
70
74
78
00
18
38
6C
CC
ENDCHAR
STARTCHAR uni1E72
ENCODING 7794
SWIDTH 833 0
DWIDTH 15 0
BBX 15 17 0 -3
BITMAP
7E1E
3C0C
3C08
3808
3818
7810
7810
7010
7030
F020
F020
F060
78C0
3F80
0000
1980
1980
ENDCHAR
STARTCHAR uni1E73
ENCODING 7795
SWIDTH 685 0
DWIDTH 12 0
BBX 11 12 0 -3
BITMAP
F1C0
71C0
71C0
71C0
E380
E380
E780
FBA0
73C0
0000
3300
3300
ENDCHAR
STARTCHAR uni1E74
ENCODING 7796
SWIDTH 833 0
DWIDTH 15 0
BBX 15 18 0 -4
BITMAP
7E1E
3C0C
3C08
3808
3818
7810
7810
7010
7030
F020
F020
F060
78C0
3F80
0000
1C80
3F80
2700
ENDCHAR
STARTCHAR uni1E75
ENCODING 7797
SWIDTH 685 0
DWIDTH 12 0
BBX 11 13 0 -4
BITMAP
F1C0
71C0
71C0
71C0
E380
E380
E780
FBA0
73C0
0000
1C80
3F80
2700
ENDCHAR
STARTCHAR uni1E76
ENCODING 7798
SWIDTH 833 0
DWIDTH 15 0
BBX 15 19 0 -5
BITMAP
7E1E
3C0C
3C08
3808
3818
7810
7810
7010
7030
F020
F020
F060
78C0
3F80
0000
0600
0E00
1B00
3300
ENDCHAR
STARTCHAR uni1E77
ENCODING 7799
SWIDTH 685 0
DWIDTH 12 0
BBX 11 14 0 -5
BITMAP
F1C0
71C0
71C0
71C0
E380
E380
E780
FBA0
73C0
0000
0600
0E00
1B00
3300
ENDCHAR
STARTCHAR uni1E78
ENCODING 7800
SWIDTH 833 0
DWIDTH 15 0
BBX 15 23 0 0
BITMAP
00C0
01C0
0380
0600
0000
0720
0FE0
09C0
0000
7E1E
3C0C
3C08
3808
3818
7810
7810
7010
7030
F020
F020
F060
78C0
3F80
ENDCHAR
STARTCHAR uni1E79
ENCODING 7801
SWIDTH 685 0
DWIDTH 12 0
BBX 11 18 0 0
BITMAP
0300
0700
0E00
1800
0000
1C80
3F80
2700
0000
F1C0
71C0
71C0
71C0
E380
E380
E780
FBA0
73C0
ENDCHAR
STARTCHAR uni1E7A
ENCODING 7802
SWIDTH 833 0
DWIDTH 15 0
BBX 15 20 0 0
BITMAP
0CC0
0CC0
0000
0FC0
0FC0
0000
7E1E
3C0C
3C08
3808
3818
7810
7810
7010
7030
F020
F020
F060
78C0
3F80
ENDCHAR
STARTCHAR uni1E7B
ENCODING 7803
SWIDTH 685 0
DWIDTH 12 0
BBX 11 15 0 0
BITMAP
3300
3300
0000
3F00
3F00
0000
F1C0
71C0
71C0
71C0
E380
E380
E780
FBA0
73C0
ENDCHAR
STARTCHAR uni1E7C
ENCODING 7804
SWIDTH 741 0
DWIDTH 14 0
BBX 14 18 0 0
BITMAP
0E40
1FC0
1380
0000
FC3C
7818
7810
3830
3820
3C60
3C40
1CC0
1C80
1D80
1F00
0E00
0E00
0C00
ENDCHAR
STARTCHAR uni1E7D
ENCODING 7805
SWIDTH 556 0
DWIDTH 10 0
BBX 9 13 0 0
BITMAP
3900
7F00
4E00
0000
F300
7380
7180
7080
E080
E100
E300
7E00
3800
ENDCHAR
STARTCHAR uni1E7E
ENCODING 7806
SWIDTH 741 0
DWIDTH 14 0
BBX 14 18 0 -4
BITMAP
FC3C
7818
7810
3830
3820
3C60
3C40
1CC0
1C80
1D80
1F00
0E00
0E00
0C00
0000
0600
0600
0600
ENDCHAR
STARTCHAR uni1E7F
ENCODING 7807
SWIDTH 556 0
DWIDTH 10 0
BBX 9 13 0 -4
BITMAP
F300
7380
7180
7080
E080
E100
E300
7E00
3800
0000
1800
1800
1800
ENDCHAR
STARTCHAR Wgrave
ENCODING 7808
SWIDTH 944 0
DWIDTH 20 0
BBX 20 19 0 0
BITMAP
030000
038000
01C000
006000
000000
FCFCF0
787860
787840
787840
38F8C0
38B880
3DBD80
3D3D00
1D1D00
1E1E00
1E1E00
1C1C00
0C0C00
080800
ENDCHAR
STARTCHAR wgrave
ENCODING 7809
SWIDTH 833 0
DWIDTH 16 0
BBX 15 14 0 0
BITMAP
0600
0700
0380
00C0
0000
F1CC
71CE
71C6
71C2
E382
E384
E38C
7DF8
38E0
ENDCHAR
STARTCHAR Wacute
ENCODING 7810
SWIDTH 944 0
DWIDTH 20 0
BBX 20 19 0 0
BITMAP
003000
007000
00E000
018000
000000
FCFCF0
787860
787840
787840
38F8C0
38B880
3DBD80
3D3D00
1D1D00
1E1E00
1E1E00
1C1C00
0C0C00
080800
ENDCHAR
STARTCHAR wacute
ENCODING 7811
SWIDTH 833 0
DWIDTH 16 0
BBX 15 14 0 0
BITMAP
00C0
01C0
0380
0600
0000
F1CC
71CE
71C6
71C2
E382
E384
E38C
7DF8
38E0
ENDCHAR
STARTCHAR Wdieresis
ENCODING 7812
SWIDTH 944 0
DWIDTH 20 0
BBX 20 17 0 0
BITMAP
033000
033000
000000
FCFCF0
787860
787840
787840
38F8C0
38B880
3DBD80
3D3D00
1D1D00
1E1E00
1E1E00
1C1C00
0C0C00
080800
ENDCHAR
STARTCHAR wdieresis
ENCODING 7813
SWIDTH 833 0
DWIDTH 16 0
BBX 15 12 0 0
BITMAP
0CC0
0CC0
0000
F1CC
71CE
71C6
71C2
E382
E384
E38C
7DF8
38E0
ENDCHAR
STARTCHAR uni1E86
ENCODING 7814
SWIDTH 944 0
DWIDTH 20 0
BBX 20 18 0 0
BITMAP
00C000
00C000
00C000
000000
FCFCF0
787860
787840
787840
38F8C0
38B880
3DBD80
3D3D00
1D1D00
1E1E00
1E1E00
1C1C00
0C0C00
080800
ENDCHAR
STARTCHAR uni1E87
ENCODING 7815
SWIDTH 833 0
DWIDTH 16 0
BBX 15 13 0 0
BITMAP
0300
0300
0300
0000
F1CC
71CE
71C6
71C2
E382
E384
E38C
7DF8
38E0
ENDCHAR
STARTCHAR uni1E88
ENCODING 7816
SWIDTH 944 0
DWIDTH 20 0
BBX 20 18 0 -4
BITMAP
FCFCF0
787860
787840
787840
38F8C0
38B880
3DBD80
3D3D00
1D1D00
1E1E00
1E1E00
1C1C00
0C0C00
080800
000000
00C000
00C000
00C000
ENDCHAR
STARTCHAR uni1E89
ENCODING 7817
SWIDTH 833 0
DWIDTH 16 0
BBX 15 13 0 -4
BITMAP
F1CC
71CE
71C6
71C2
E382
E384
E38C
7DF8
38E0
0000
0300
0300
0300
ENDCHAR
STARTCHAR uni1E8A
ENCODING 7818
SWIDTH 741 0
DWIDTH 14 0
BBX 16 18 -2 0
BITMAP
00C0
00C0
00C0
0000
1F9F
0F0E
070C
0798
03B0
03E0
01C0
03C0
07E0
0CE0
18F0
3070
7078
F8FC
ENDCHAR
STARTCHAR uni1E8B
ENCODING 7819
SWIDTH 574 0
DWIDTH 11 0
BBX 10 13 0 0
BITMAP
0C00
0C00
0C00
0000
38C0
79C0
1E00
1C00
0E00
1E00
3740
E780
C300
ENDCHAR
STARTCHAR uni1E8C
ENCODING 7820
SWIDTH 741 0
DWIDTH 14 0
BBX 16 17 -2 0
BITMAP
0330
0330
0000
1F9F
0F0E
070C
0798
03B0
03E0
01C0
03C0
07E0
0CE0
18F0
3070
7078
F8FC
ENDCHAR
STARTCHAR uni1E8D
ENCODING 7821
SWIDTH 574 0
DWIDTH 11 0
BBX 10 12 0 0
BITMAP
3300
3300
0000
38C0
79C0
1E00
1C00
0E00
1E00
3740
E780
C300
ENDCHAR
STARTCHAR uni1E8E
ENCODING 7822
SWIDTH 704 0
DWIDTH 13 0
BBX 13 18 0 0
BITMAP
0600
0600
0600
0000
FC78
7830
3860
3CC0
1C80
1D80
0F00
0F00
0E00
0E00
0E00
1E00
1E00
3F00
ENDCHAR
STARTCHAR uni1E8F
ENCODING 7823
SWIDTH 519 0
DWIDTH 10 0
BBX 10 17 -1 -4
BITMAP
0C00
0C00
0C00
0000
30C0
78C0
B840
1C80
1C80
0F00
0F00
0600
0600
0400
C800
F000
6000
ENDCHAR
STARTCHAR uni1E90
ENCODING 7824
SWIDTH 704 0
DWIDTH 14 0
BBX 13 19 0 0
BITMAP
0180
0380
06C0
0CC0
0000
3FF8
30F8
61F0
41E0
03C0
0780
0700
0F00
1E00
3C00
3C10
7830
F060
FFE0
ENDCHAR
STARTCHAR uni1E91
ENCODING 7825
SWIDTH 519 0
DWIDTH 11 0
BBX 10 14 0 0
BITMAP
0600
0E00
1B00
3300
0000
1EC0
3F80
4300
0600
0C00
1800
3080
7F00
DE00
ENDCHAR
STARTCHAR uni1E92
ENCODING 7826
SWIDTH 704 0
DWIDTH 14 0
BBX 13 18 0 -4
BITMAP
3FF8
30F8
61F0
41E0
03C0
0780
0700
0F00
1E00
3C00
3C10
7830
F060
FFE0
0000
0600
0600
0600
ENDCHAR
STARTCHAR uni1E93
ENCODING 7827
SWIDTH 519 0
DWIDTH 11 0
BBX 10 13 0 -4
BITMAP
1EC0
3F80
4300
0600
0C00
1800
3080
7F00
DE00
0000
0C00
0C00
0C00
ENDCHAR
STARTCHAR uni1E94
ENCODING 7828
SWIDTH 704 0
DWIDTH 14 0
BBX 13 17 0 -3
BITMAP
3FF8
30F8
61F0
41E0
03C0
0780
0700
0F00
1E00
3C00
3C10
7830
F060
FFE0
0000
1F80
1F80
ENDCHAR
STARTCHAR uni1E95
ENCODING 7829
SWIDTH 519 0
DWIDTH 11 0
BBX 10 12 0 -3
BITMAP
1EC0
3F80
4300
0600
0C00
1800
3080
7F00
DE00
0000
3F00
3F00
ENDCHAR
STARTCHAR uni1E96
ENCODING 7830
SWIDTH 685 0
DWIDTH 12 0
BBX 11 17 0 -3
BITMAP
7800
3800
3800
3800
7000
7380
77C0
79C0
71C0
E1C0
E380
E380
E3A0
E3C0
0000
3F00
3F00
ENDCHAR
STARTCHAR uni1E97
ENCODING 7831
SWIDTH 407 0
DWIDTH 8 0
BBX 7 15 1 0
BITMAP
66
66
00
38
38
38
FE
70
70
70
E0
E0
E0
E8
F0
ENDCHAR
STARTCHAR uni1E98
ENCODING 7832
SWIDTH 833 0
DWIDTH 16 0
BBX 15 14 0 0
BITMAP
0300
0480
0480
0300
0000
F1CC
71CE
71C6
71C2
E382
E384
E38C
7DF8
38E0
ENDCHAR
STARTCHAR uni1E99
ENCODING 7833
SWIDTH 519 0
DWIDTH 10 0
BBX 10 18 -1 -4
BITMAP
0C00
1200
1200
0C00
0000
30C0
78C0
B840
1C80
1C80
0F00
0F00
0600
0600
0400
C800
F000
6000
ENDCHAR
STARTCHAR uni1EA0
ENCODING 7840
SWIDTH 741 0
DWIDTH 13 0
BBX 14 18 -2 -4
BITMAP
0080
0180
01C0
03C0
03C0
05E0
0CE0
08E0
18F0
1070
3FF0
2078
6078
F0FC
0000
0300
0300
0300
ENDCHAR
STARTCHAR uni1EA1
ENCODING 7841
SWIDTH 667 0
DWIDTH 12 0
BBX 11 13 0 -4
BITMAP
0DC0
33C0
71C0
E1C0
E1C0
E380
E380
67A0
39C0
0000
0600
0600
0600
ENDCHAR
STARTCHAR uni1EA4
ENCODING 7844
SWIDTH 741 0
DWIDTH 13 0
BBX 14 24 -2 0
BITMAP
0060
00E0
01C0
0300
0000
00E0
01E0
0330
0630
0000
0080
0180
01C0
03C0
03C0
05E0
0CE0
08E0
18F0
1070
3FF0
2078
6078
F0FC
ENDCHAR
STARTCHAR uni1EA5
ENCODING 7845
SWIDTH 667 0
DWIDTH 12 0
BBX 11 19 0 0
BITMAP
0180
0380
0700
0C00
0000
0300
0700
0D80
1980
0000
0DC0
33C0
71C0
E1C0
E1C0
E380
E380
67A0
39C0
ENDCHAR
STARTCHAR uni1EA6
ENCODING 7846
SWIDTH 741 0
DWIDTH 13 0
BBX 14 24 -2 0
BITMAP
0600
0700
0380
00C0
0000
00E0
01E0
0330
0630
0000
0080
0180
01C0
03C0
03C0
05E0
0CE0
08E0
18F0
1070
3FF0
2078
6078
F0FC
ENDCHAR
STARTCHAR uni1EA7
ENCODING 7847
SWIDTH 667 0
DWIDTH 12 0
BBX 11 19 0 0
BITMAP
1800
1C00
0E00
0300
0000
0300
0700
0D80
1980
0000
0DC0
33C0
71C0
E1C0
E1C0
E380
E380
67A0
39C0
ENDCHAR
STARTCHAR uni1EAA
ENCODING 7850
SWIDTH 741 0
DWIDTH 13 0
BBX 14 23 -2 0
BITMAP
0390
07F0
04E0
0000
00E0
01E0
0330
0630
0000
0080
0180
01C0
03C0
03C0
05E0
0CE0
08E0
18F0
1070
3FF0
2078
6078
F0FC
ENDCHAR
STARTCHAR uni1EAB
ENCODING 7851
SWIDTH 667 0
DWIDTH 12 0
BBX 11 18 0 0
BITMAP
0E40
1FC0
1380
0000
0300
0700
0D80
1980
0000
0DC0
33C0
71C0
E1C0
E1C0
E380
E380
67A0
39C0
ENDCHAR
STARTCHAR uni1EAC
ENCODING 7852
SWIDTH 741 0
DWIDTH 13 0
BBX 14 23 -2 -4
BITMAP
00C0
01C0
0360
0660
0000
0080
0180
01C0
03C0
03C0
05E0
0CE0
08E0
18F0
1070
3FF0
2078
6078
F0FC
0000
0300
0300
0300
ENDCHAR
STARTCHAR uni1EAD
ENCODING 7853
SWIDTH 667 0
DWIDTH 12 0
BBX 11 18 0 -4
BITMAP
0300
0700
0D80
1980
0000
0DC0
33C0
71C0
E1C0
E1C0
E380
E380
67A0
39C0
0000
0600
0600
0600
ENDCHAR
STARTCHAR uni1EAE
ENCODING 7854
SWIDTH 741 0
DWIDTH 13 0
BBX 14 23 -2 0
BITMAP
00C0
01C0
0380
0600
0000
0440
07C0
0380
0000
0080
0180
01C0
03C0
03C0
05E0
0CE0
08E0
18F0
1070
3FF0
2078
6078
F0FC
ENDCHAR
STARTCHAR uni1EAF
ENCODING 7855
SWIDTH 667 0
DWIDTH 12 0
BBX 11 18 0 0
BITMAP
0180
0380
0700
0C00
0000
0880
0F80
0700
0000
0DC0
33C0
71C0
E1C0
E1C0
E380
E380
67A0
39C0
ENDCHAR
STARTCHAR uni1EB0
ENCODING 7856
SWIDTH 741 0
DWIDTH 13 0
BBX 14 23 -2 0
BITMAP
0C00
0E00
0700
0180
0000
0440
07C0
0380
0000
0080
0180
01C0
03C0
03C0
05E0
0CE0
08E0
18F0
1070
3FF0
2078
6078
F0FC
ENDCHAR
STARTCHAR uni1EB1
ENCODING 7857
SWIDTH 667 0
DWIDTH 12 0
BBX 11 18 0 0
BITMAP
1800
1C00
0E00
0300
0000
0880
0F80
0700
0000
0DC0
33C0
71C0
E1C0
E1C0
E380
E380
67A0
39C0
ENDCHAR
STARTCHAR uni1EB4
ENCODING 7860
SWIDTH 741 0
DWIDTH 13 0
BBX 14 22 -2 0
BITMAP
0720
0FE0
09C0
0000
0440
07C0
0380
0000
0080
0180
01C0
03C0
03C0
05E0
0CE0
08E0
18F0
1070
3FF0
2078
6078
F0FC
ENDCHAR
STARTCHAR uni1EB5
ENCODING 7861
SWIDTH 667 0
DWIDTH 12 0
BBX 11 17 0 0
BITMAP
0E40
1FC0
1380
0000
0880
0F80
0700
0000
0DC0
33C0
71C0
E1C0
E1C0
E380
E380
67A0
39C0
ENDCHAR
STARTCHAR uni1EB6
ENCODING 7862
SWIDTH 741 0
DWIDTH 13 0
BBX 14 22 -2 -4
BITMAP
0440
07C0
0380
0000
0080
0180
01C0
03C0
03C0
05E0
0CE0
08E0
18F0
1070
3FF0
2078
6078
F0FC
0000
0300
0300
0300
ENDCHAR
STARTCHAR uni1EB7
ENCODING 7863
SWIDTH 667 0
DWIDTH 12 0
BBX 11 17 0 -4
BITMAP
1100
1F00
0E00
0000
0DC0
33C0
71C0
E1C0
E1C0
E380
E380
67A0
39C0
0000
0600
0600
0600
ENDCHAR
STARTCHAR uni1EB8
ENCODING 7864
SWIDTH 741 0
DWIDTH 15 0
BBX 14 18 0 -4
BITMAP
3FFC
1E1C
1C08
1C08
1C28
1C60
1FE0
3CC0
3840
3848
3818
3830
7870
FFF0
0000
0300
0300
0300
ENDCHAR
STARTCHAR uni1EB9
ENCODING 7865
SWIDTH 519 0
DWIDTH 10 0
BBX 9 13 0 -4
BITMAP
0F00
3180
7180
E380
E700
F800
E000
6300
3C00
0000
1800
1800
1800
ENDCHAR
STARTCHAR uni1EBC
ENCODING 7868
SWIDTH 741 0
DWIDTH 15 0
BBX 14 18 0 0
BITMAP
0720
0FE0
09C0
0000
3FFC
1E1C
1C08
1C08
1C28
1C60
1FE0
3CC0
3840
3848
3818
3830
7870
FFF0
ENDCHAR
STARTCHAR uni1EBD
ENCODING 7869
SWIDTH 519 0
DWIDTH 10 0
BBX 9 13 0 0
BITMAP
1C80
3F80
2700
0000
0F00
3180
7180
E380
E700
F800
E000
6300
3C00
ENDCHAR
STARTCHAR uni1EBE
ENCODING 7870
SWIDTH 741 0
DWIDTH 15 0
BBX 14 24 0 0
BITMAP
0060
00E0
01C0
0300
0000
00E0
01E0
0330
0630
0000
3FFC
1E1C
1C08
1C08
1C28
1C60
1FE0
3CC0
3840
3848
3818
3830
7870
FFF0
ENDCHAR
STARTCHAR uni1EBF
ENCODING 7871
SWIDTH 519 0
DWIDTH 10 0
BBX 9 19 0 0
BITMAP
0180
0380
0700
0C00
0000
0300
0700
0D80
1980
0000
0F00
3180
7180
E380
E700
F800
E000
6300
3C00
ENDCHAR
STARTCHAR uni1EC0
ENCODING 7872
SWIDTH 741 0
DWIDTH 15 0
BBX 14 24 0 0
BITMAP
0600
0700
0380
00C0
0000
00E0
01E0
0330
0630
0000
3FFC
1E1C
1C08
1C08
1C28
1C60
1FE0
3CC0
3840
3848
3818
3830
7870
FFF0
ENDCHAR
STARTCHAR uni1EC1
ENCODING 7873
SWIDTH 519 0
DWIDTH 10 0
BBX 9 19 0 0
BITMAP
1800
1C00
0E00
0300
0000
0300
0700
0D80
1980
0000
0F00
3180
7180
E380
E700
F800
E000
6300
3C00
ENDCHAR
STARTCHAR uni1EC4
ENCODING 7876
SWIDTH 741 0
DWIDTH 15 0
BBX 14 23 0 0
BITMAP
0390
07F0
04E0
0000
00E0
01E0
0330
0630
0000
3FFC
1E1C
1C08
1C08
1C28
1C60
1FE0
3CC0
3840
3848
3818
3830
7870
FFF0
ENDCHAR
STARTCHAR uni1EC5
ENCODING 7877
SWIDTH 519 0
DWIDTH 10 0
BBX 9 18 0 0
BITMAP
1C80
3F80
2700
0000
0300
0700
0D80
1980
0000
0F00
3180
7180
E380
E700
F800
E000
6300
3C00
ENDCHAR
STARTCHAR uni1EC6
ENCODING 7878
SWIDTH 741 0
DWIDTH 15 0
BBX 14 23 0 -4
BITMAP
0180
0380
06C0
0CC0
0000
3FFC
1E1C
1C08
1C08
1C28
1C60
1FE0
3CC0
3840
3848
3818
3830
7870
FFF0
0000
0300
0300
0300
ENDCHAR
STARTCHAR uni1EC7
ENCODING 7879
SWIDTH 519 0
DWIDTH 10 0
BBX 9 18 0 -4
BITMAP
0600
0E00
1B00
3300
0000
0F00
3180
7180
E380
E700
F800
E000
6300
3C00
0000
1800
1800
1800
ENDCHAR
STARTCHAR uni1ECA
ENCODING 7882
SWIDTH 444 0
DWIDTH 9 0
BBX 8 18 0 -4
BITMAP
3F
1E
1C
1C
1C
1C
1C
3C
38
38
38
38
78
FC
00
30
30
30
ENDCHAR
STARTCHAR uni1ECB
ENCODING 7883
SWIDTH 389 0
DWIDTH 6 0
BBX 5 17 0 -4
BITMAP
38
38
00
00
F0
70
70
70
E0
E0
E0
E8
F0
00
60
60
60
ENDCHAR
STARTCHAR uni1ECC
ENCODING 7884
SWIDTH 833 0
DWIDTH 15 0
BBX 14 18 0 -4
BITMAP
07C0
1C70
3838
783C
701C
F01C
E01C
E01C
E03C
E038
F078
7070
38E0
0F80
0000
0300
0300
0300
ENDCHAR
STARTCHAR uni1ECD
ENCODING 7885
SWIDTH 574 0
DWIDTH 11 0
BBX 10 13 0 -4
BITMAP
0F00
3180
71C0
E1C0
E1C0
E1C0
E380
6300
3C00
0000
0C00
0C00
0C00
ENDCHAR
STARTCHAR uni1ED0
ENCODING 7888
SWIDTH 833 0
DWIDTH 15 0
BBX 14 24 0 0
BITMAP
0060
00E0
01C0
0300
0000
00E0
01E0
0330
0630
0000
07C0
1C70
3838
783C
701C
F01C
E01C
E01C
E03C
E038
F078
7070
38E0
0F80
ENDCHAR
STARTCHAR uni1ED1
ENCODING 7889
SWIDTH 574 0
DWIDTH 11 0
BBX 10 19 0 0
BITMAP
0180
0380
0700
0C00
0000
0300
0700
0D80
1980
0000
0F00
3180
71C0
E1C0
E1C0
E1C0
E380
6300
3C00
ENDCHAR
STARTCHAR uni1ED2
ENCODING 7890
SWIDTH 833 0
DWIDTH 15 0
BBX 14 24 0 0
BITMAP
0600
0700
0380
00C0
0000
00E0
01E0
0330
0630
0000
07C0
1C70
3838
783C
701C
F01C
E01C
E01C
E03C
E038
F078
7070
38E0
0F80
ENDCHAR
STARTCHAR uni1ED3
ENCODING 7891
SWIDTH 574 0
DWIDTH 11 0
BBX 10 19 0 0
BITMAP
1800
1C00
0E00
0300
0000
0300
0700
0D80
1980
0000
0F00
3180
71C0
E1C0
E1C0
E1C0
E380
6300
3C00
ENDCHAR
STARTCHAR uni1ED6
ENCODING 7894
SWIDTH 833 0
DWIDTH 15 0
BBX 14 23 0 0
BITMAP
0390
07F0
04E0
0000
00E0
01E0
0330
0630
0000
07C0
1C70
3838
783C
701C
F01C
E01C
E01C
E03C
E038
F078
7070
38E0
0F80
ENDCHAR
STARTCHAR uni1ED7
ENCODING 7895
SWIDTH 574 0
DWIDTH 11 0
BBX 10 18 0 0
BITMAP
1C80
3F80
2700
0000
0300
0700
0D80
1980
0000
0F00
3180
71C0
E1C0
E1C0
E1C0
E380
6300
3C00
ENDCHAR
STARTCHAR uni1ED8
ENCODING 7896
SWIDTH 833 0
DWIDTH 15 0
BBX 14 23 0 -4
BITMAP
0180
0380
06C0
0CC0
0000
07C0
1C70
3838
783C
701C
F01C
E01C
E01C
E03C
E038
F078
7070
38E0
0F80
0000
0300
0300
0300
ENDCHAR
STARTCHAR uni1ED9
ENCODING 7897
SWIDTH 574 0
DWIDTH 11 0
BBX 10 18 0 -4
BITMAP
0600
0E00
1B00
3300
0000
0F00
3180
71C0
E1C0
E1C0
E1C0
E380
6300
3C00
0000
0C00
0C00
0C00
ENDCHAR
STARTCHAR uni1EDA
ENCODING 7898
SWIDTH 833 0
DWIDTH 15 0
BBX 17 19 0 0
BITMAP
003000
007000
00E000
018000
000000
07C300
1C7780
383F80
783F80
701D00
F01E00
E01C00
E01C00
E03C00
E03800
F07800
707000
38E000
0F8000
ENDCHAR
STARTCHAR uni1EDB
ENCODING 7899
SWIDTH 574 0
DWIDTH 11 0
BBX 13 14 0 0
BITMAP
00C0
01C0
0380
0600
0000
0F30
31F8
71F8
E1F8
E1D0
E1E0
E3C0
6300
3C00
ENDCHAR
STARTCHAR uni1EDC
ENCODING 7900
SWIDTH 833 0
DWIDTH 15 0
BBX 17 19 0 0
BITMAP
018000
01C000
00E000
003000
000000
07C300
1C7780
383F80
783F80
701D00
F01E00
E01C00
E01C00
E03C00
E03800
F07800
707000
38E000
0F8000
ENDCHAR
STARTCHAR uni1EDD
ENCODING 7901
SWIDTH 574 0
DWIDTH 11 0
BBX 13 14 0 0
BITMAP
0C00
0E00
0700
0180
0000
0F30
31F8
71F8
E1F8
E1D0
E1E0
E3C0
6300
3C00
ENDCHAR
STARTCHAR uni1EE0
ENCODING 7904
SWIDTH 833 0
DWIDTH 15 0
BBX 17 18 0 0
BITMAP
01C800
03F800
027000
000000
07C300
1C7780
383F80
783F80
701D00
F01E00
E01C00
E01C00
E03C00
E03800
F07800
707000
38E000
0F8000
ENDCHAR
STARTCHAR uni1EE1
ENCODING 7905
SWIDTH 574 0
DWIDTH 11 0
BBX 13 13 0 0
BITMAP
0720
0FE0
09C0
0000
0F30
31F8
71F8
E1F8
E1D0
E1E0
E3C0
6300
3C00
ENDCHAR
STARTCHAR uni1EE2
ENCODING 7906
SWIDTH 833 0
DWIDTH 15 0
BBX 17 18 0 -4
BITMAP
07C300
1C7780
383F80
783F80
701D00
F01E00
E01C00
E01C00
E03C00
E03800
F07800
707000
38E000
0F8000
000000
030000
030000
030000
ENDCHAR
STARTCHAR uni1EE3
ENCODING 7907
SWIDTH 574 0
DWIDTH 11 0
BBX 13 13 0 -4
BITMAP
0F30
31F8
71F8
E1F8
E1D0
E1E0
E3C0
6300
3C00
0000
0C00
0C00
0C00
ENDCHAR
STARTCHAR uni1EE4
ENCODING 7908
SWIDTH 833 0
DWIDTH 15 0
BBX 15 18 0 -4
BITMAP
7E1E
3C0C
3C08
3808
3818
7810
7810
7010
7030
F020
F020
F060
78C0
3F80
0000
0600
0600
0600
ENDCHAR
STARTCHAR uni1EE5
ENCODING 7909
SWIDTH 685 0
DWIDTH 12 0
BBX 11 13 0 -4
BITMAP
F1C0
71C0
71C0
71C0
E380
E380
E780
FBA0
73C0
0000
0C00
0C00
0C00
ENDCHAR
STARTCHAR uni1EE8
ENCODING 7912
SWIDTH 833 0
DWIDTH 15 0
BBX 18 19 0 0
BITMAP
001800
003800
007000
00C000
000000
7E1F80
3C0FC0
3C0BC0
3809C0
381880
781100
781200
701000
703000
F02000
F02000
F06000
78C000
3F8000
ENDCHAR
STARTCHAR uni1EE9
ENCODING 7913
SWIDTH 685 0
DWIDTH 12 0
BBX 14 14 0 0
BITMAP
00C0
01C0
0380
0600
0000
F1D8
71FC
71FC
71DC
E388
E390
E7A0
FBA0
73C0
ENDCHAR
STARTCHAR uni1EEA
ENCODING 7914
SWIDTH 833 0
DWIDTH 15 0
BBX 18 19 0 0
BITMAP
018000
01C000
00E000
003000
000000
7E1F80
3C0FC0
3C0BC0
3809C0
381880
781100
781200
701000
703000
F02000
F02000
F06000
78C000
3F8000
ENDCHAR
STARTCHAR uni1EEB
ENCODING 7915
SWIDTH 685 0
DWIDTH 12 0
BBX 14 14 0 0
BITMAP
0C00
0E00
0700
0180
0000
F1D8
71FC
71FC
71DC
E388
E390
E7A0
FBA0
73C0
ENDCHAR
STARTCHAR uni1EEE
ENCODING 7918
SWIDTH 833 0
DWIDTH 15 0
BBX 18 18 0 0
BITMAP
01C800
03F800
027000
000000
7E1F80
3C0FC0
3C0BC0
3809C0
381880
781100
781200
701000
703000
F02000
F02000
F06000
78C000
3F8000
ENDCHAR
STARTCHAR uni1EEF
ENCODING 7919
SWIDTH 685 0
DWIDTH 12 0
BBX 14 13 0 0
BITMAP
0720
0FE0
09C0
0000
F1D8
71FC
71FC
71DC
E388
E390
E7A0
FBA0
73C0
ENDCHAR
STARTCHAR uni1EF0
ENCODING 7920
SWIDTH 833 0
DWIDTH 15 0
BBX 18 18 0 -4
BITMAP
7E1F80
3C0FC0
3C0BC0
3809C0
381880
781100
781200
701000
703000
F02000
F02000
F06000
78C000
3F8000
000000
060000
060000
060000
ENDCHAR
STARTCHAR uni1EF1
ENCODING 7921
SWIDTH 685 0
DWIDTH 12 0
BBX 14 13 0 -4
BITMAP
F1D8
71FC
71FC
71DC
E388
E390
E7A0
FBA0
73C0
0000
0600
0600
0600
ENDCHAR
STARTCHAR Ygrave
ENCODING 7922
SWIDTH 704 0
DWIDTH 13 0
BBX 13 19 0 0
BITMAP
1800
1C00
0E00
0300
0000
FC78
7830
3860
3CC0
1C80
1D80
0F00
0F00
0E00
0E00
0E00
1E00
1E00
3F00
ENDCHAR
STARTCHAR ygrave
ENCODING 7923
SWIDTH 519 0
DWIDTH 10 0
BBX 10 18 -1 -4
BITMAP
3000
3800
1C00
0600
0000
30C0
78C0
B840
1C80
1C80
0F00
0F00
0600
0600
0400
C800
F000
6000
ENDCHAR
STARTCHAR uni1EF4
ENCODING 7924
SWIDTH 704 0
DWIDTH 13 0
BBX 13 18 0 -4
BITMAP
FC78
7830
3860
3CC0
1C80
1D80
0F00
0F00
0E00
0E00
0E00
1E00
1E00
3F00
0000
0600
0600
0600
ENDCHAR
STARTCHAR uni1EF5
ENCODING 7925
SWIDTH 519 0
DWIDTH 10 0
BBX 10 17 -1 -8
BITMAP
30C0
78C0
B840
1C80
1C80
0F00
0F00
0600
0600
0400
C800
F000
6000
0000
3000
3000
3000
ENDCHAR
STARTCHAR uni1EF8
ENCODING 7928
SWIDTH 704 0
DWIDTH 13 0
BBX 13 18 0 0
BITMAP
0E40
1FC0
1380
0000
FC78
7830
3860
3CC0
1C80
1D80
0F00
0F00
0E00
0E00
0E00
1E00
1E00
3F00
ENDCHAR
STARTCHAR uni1EF9
ENCODING 7929
SWIDTH 519 0
DWIDTH 10 0
BBX 10 17 -1 -4
BITMAP
1C80
3F80
2700
0000
30C0
78C0
B840
1C80
1C80
0F00
0F00
0600
0600
0400
C800
F000
6000
ENDCHAR
STARTCHAR uni2000
ENCODING 8192
SWIDTH 500 0
DWIDTH 10 0
BBX 1 1 0 0
BITMAP
00
ENDCHAR
STARTCHAR uni2001
ENCODING 8193
SWIDTH 1000 0
DWIDTH 19 0
BBX 1 1 0 0
BITMAP
00
ENDCHAR
STARTCHAR uni2002
ENCODING 8194
SWIDTH 500 0
DWIDTH 10 0
BBX 1 1 0 0
BITMAP
00
ENDCHAR
STARTCHAR uni2003
ENCODING 8195
SWIDTH 1000 0
DWIDTH 19 0
BBX 1 1 0 0
BITMAP
00
ENDCHAR
STARTCHAR uni2004
ENCODING 8196
SWIDTH 333 0
DWIDTH 6 0
BBX 1 1 0 0
BITMAP
00
ENDCHAR
STARTCHAR uni2005
ENCODING 8197
SWIDTH 250 0
DWIDTH 5 0
BBX 1 1 0 0
BITMAP
00
ENDCHAR
STARTCHAR uni2006
ENCODING 8198
SWIDTH 167 0
DWIDTH 3 0
BBX 1 1 0 0
BITMAP
00
ENDCHAR
STARTCHAR uni2007
ENCODING 8199
SWIDTH 574 0
DWIDTH 10 0
BBX 1 1 0 0
BITMAP
00
ENDCHAR
STARTCHAR uni2008
ENCODING 8200
SWIDTH 287 0
DWIDTH 5 0
BBX 1 1 0 0
BITMAP
00
ENDCHAR
STARTCHAR uni2009
ENCODING 8201
SWIDTH 200 0
DWIDTH 4 0
BBX 1 1 0 0
BITMAP
00
ENDCHAR
STARTCHAR uni200A
ENCODING 8202
SWIDTH 100 0
DWIDTH 2 0
BBX 1 1 0 0
BITMAP
00
ENDCHAR
STARTCHAR uni200B
ENCODING 8203
SWIDTH 0 0
DWIDTH 0 0
BBX 1 1 0 0
BITMAP
00
ENDCHAR
STARTCHAR uni2010
ENCODING 8208
SWIDTH 333 0
DWIDTH 6 0
BBX 5 2 0 5
BITMAP
F8
F8
ENDCHAR
STARTCHAR uni2011
ENCODING 8209
SWIDTH 333 0
DWIDTH 6 0
BBX 5 2 0 5
BITMAP
F8
F8
ENDCHAR
STARTCHAR figuredash
ENCODING 8210
SWIDTH 500 0
DWIDTH 9 0
BBX 9 2 0 5
BITMAP
FF80
FF80
ENDCHAR
STARTCHAR endash
ENCODING 8211
SWIDTH 500 0
DWIDTH 9 0
BBX 9 2 0 5
BITMAP
FF80
FF80
ENDCHAR
STARTCHAR emdash
ENCODING 8212
SWIDTH 1000 0
DWIDTH 19 0
BBX 19 2 0 5
BITMAP
FFFFE0
FFFFE0
ENDCHAR
STARTCHAR afii00208
ENCODING 8213
SWIDTH 1000 0
DWIDTH 19 0
BBX 19 2 0 5
BITMAP
FFFFE0
FFFFE0
ENDCHAR
STARTCHAR quoteleft
ENCODING 8216
SWIDTH 259 0
DWIDTH 5 0
BBX 4 7 0 7
BITMAP
10
20
40
E0
F0
F0
60
ENDCHAR
STARTCHAR quoteright
ENCODING 8217
SWIDTH 259 0
DWIDTH 5 0
BBX 4 7 0 7
BITMAP
60
F0
F0
70
20
40
80
ENDCHAR
STARTCHAR quotesinglbase
ENCODING 8218
SWIDTH 259 0
DWIDTH 5 0
BBX 4 7 0 -3
BITMAP
60
F0
F0
70
20
40
80
ENDCHAR
STARTCHAR quotereversed
ENCODING 8219
SWIDTH 259 0
DWIDTH 5 0
BBX 4 7 0 7
BITMAP
60
F0
F0
E0
40
20
10
ENDCHAR
STARTCHAR quotedblleft
ENCODING 8220
SWIDTH 481 0
DWIDTH 10 0
BBX 9 7 0 7
BITMAP
1080
2100
4200
E700
F780
F780
6300
ENDCHAR
STARTCHAR quotedblright
ENCODING 8221
SWIDTH 481 0
DWIDTH 10 0
BBX 9 7 0 7
BITMAP
6300
F780
F780
7380
2100
4200
8400
ENDCHAR
STARTCHAR quotedblbase
ENCODING 8222
SWIDTH 481 0
DWIDTH 9 0
BBX 9 7 -1 -3
BITMAP
6300
F780
F780
7380
2100
4200
8400
ENDCHAR
STARTCHAR uni201F
ENCODING 8223
SWIDTH 481 0
DWIDTH 10 0
BBX 9 7 0 7
BITMAP
6300
F780
F780
E700
4200
2100
1080
ENDCHAR
STARTCHAR dagger
ENCODING 8224
SWIDTH 500 0
DWIDTH 11 0
BBX 10 17 0 -3
BITMAP
0E00
0E00
0400
0400
C4C0
FFC0
C8C0
0800
0800
1800
1800
1000
1000
1000
1000
1000
1000
ENDCHAR
STARTCHAR daggerdbl
ENCODING 8225
SWIDTH 500 0
DWIDTH 11 0
BBX 11 17 -1 -3
BITMAP
0700
0700
0200
0200
6260
7FE0
6460
0400
0C00
0800
C980
FF80
C980
0800
0800
1C00
1C00
ENDCHAR
STARTCHAR bullet
ENCODING 8226
SWIDTH 606 0
DWIDTH 11 0
BBX 6 6 2 3
BITMAP
78
FC
FC
FC
FC
78
ENDCHAR
STARTCHAR ellipsis
ENCODING 8230
SWIDTH 1000 0
DWIDTH 18 0
BBX 16 4 0 0
BITMAP
6186
F3CF
F3CF
6186
ENDCHAR
STARTCHAR perthousand
ENCODING 8240
SWIDTH 1167 0
DWIDTH 22 0
BBX 21 15 0 -1
BITMAP
38C000
674000
64C000
C48000
C58000
C90000
CB3870
7264C8
0664C8
04C588
0CC588
08C990
18C990
1070E0
100000
ENDCHAR
STARTCHAR guilsinglleft
ENCODING 8249
SWIDTH 278 0
DWIDTH 6 0
BBX 5 6 0 2
BITMAP
18
30
60
C0
60
30
ENDCHAR
STARTCHAR guilsinglright
ENCODING 8250
SWIDTH 278 0
DWIDTH 5 0
BBX 5 6 0 2
BITMAP
60
30
18
30
60
C0
ENDCHAR
STARTCHAR fraction
ENCODING 8260
SWIDTH 167 0
DWIDTH 4 0
BBX 7 15 -2 -1
BITMAP
02
02
06
04
0C
08
18
10
30
20
60
40
C0
80
80
ENDCHAR
STARTCHAR oneinferior
ENCODING 8321
SWIDTH 344 0
DWIDTH 6 0
BBX 4 8 0 -4
BITMAP
10
70
30
30
60
60
60
F0
ENDCHAR
STARTCHAR twoinferior
ENCODING 8322
SWIDTH 344 0
DWIDTH 6 0
BBX 7 8 -1 -4
BITMAP
3C
66
66
0C
18
30
7C
FC
ENDCHAR
STARTCHAR threeinferior
ENCODING 8323
SWIDTH 344 0
DWIDTH 6 0
BBX 7 8 -1 -4
BITMAP
3C
66
06
38
0C
8C
CC
78
ENDCHAR
STARTCHAR uni20A5
ENCODING 8357
SWIDTH 944 0
DWIDTH 18 0
BBX 17 14 0 -2
BITMAP
003000
003000
003000
F3EE00
77FF00
79E700
71C700
71C700
E3CE00
E38E00
E38E80
E38F00
030000
030000
ENDCHAR
STARTCHAR uni20A6
ENCODING 8358
SWIDTH 852 0
DWIDTH 15 0
BBX 16 14 -1 0
BITMAP
380F
1C06
1E06
1E04
1FFC
1FFC
13CC
11C8
3FF8
2FF8
2078
2038
6030
F010
ENDCHAR
STARTCHAR uni20A9
ENCODING 8361
SWIDTH 944 0
DWIDTH 20 0
BBX 20 14 0 0
BITMAP
FCFCF0
787860
787840
787840
3BFEC0
3BFE80
3DBD80
3D3D00
1FFF00
1FFE00
1E1E00
1C1C00
0C0C00
080800
ENDCHAR
STARTCHAR Euro
ENCODING 8364
SWIDTH 759 0
DWIDTH 14 0
BBX 14 14 -1 0
BITMAP
03F4
0F1C
1E0C
3C08
FF88
FF80
7800
7800
FF80
FF80
3C08
3C08
1E30
07E0
ENDCHAR
STARTCHAR uni20AD
ENCODING 8365
SWIDTH 778 0
DWIDTH 16 0
BBX 16 14 0 0
BITMAP
3F1F
1E0C
1C18
1C30
1C60
1CC0
FFFF
FFFF
3DE0
38E0
38F0
3870
7878
FCFC
ENDCHAR
STARTCHAR uni2103
ENCODING 8451
SWIDTH 1139 0
DWIDTH 21 0
BBX 20 14 0 0
BITMAP
780FD0
CC3C70
847830
84F020
CCF020
79F000
01E000
01E000
01E000
01E000
00F020
00F020
0078C0
001F80
ENDCHAR
STARTCHAR uni2109
ENCODING 8457
SWIDTH 1084 0
DWIDTH 22 0
BBX 21 14 0 0
BITMAP
787FF8
CC3C38
843810
843810
CC3850
7838C0
003FC0
007980
007080
007080
007000
007000
00F000
01F800
ENDCHAR
STARTCHAR trademark
ENCODING 8482
SWIDTH 950 0
DWIDTH 19 0
BBX 18 7 0 7
BITMAP
FDE3C0
B4E380
30B580
30B580
30B580
309980
79DBC0
ENDCHAR
STARTCHAR uni212A
ENCODING 8490
SWIDTH 778 0
DWIDTH 16 0
BBX 16 14 0 0
BITMAP
3F1F
1E0C
1C18
1C30
1C60
1CC0
1DC0
3FC0
3DE0
38E0
38F0
3870
7878
FCFC
ENDCHAR
STARTCHAR uni212B
ENCODING 8491
SWIDTH 741 0
DWIDTH 13 0
BBX 14 19 -2 0
BITMAP
00C0
0120
0120
00C0
0000
0080
0180
01C0
03C0
03C0
05E0
0CE0
08E0
18F0
1070
3FF0
2078
6078
F0FC
ENDCHAR
STARTCHAR uni2132
ENCODING 8498
SWIDTH 704 0
DWIDTH 15 0
BBX 14 14 0 0
BITMAP
00FC
0078
0070
0070
0870
0870
0CF0
1FE0
18E0
50E0
40E0
40E0
E1E0
FFF0
ENDCHAR
STARTCHAR minus
ENCODING 8722
SWIDTH 606 0
DWIDTH 11 0
BBX 10 2 0 5
BITMAP
FFC0
FFC0
ENDCHAR
STARTCHAR fraction
ENCODING 8725
SWIDTH 167 0
DWIDTH 4 0
BBX 7 15 -2 -1
BITMAP
02
02
06
04
0C
08
18
10
30
20
60
40
C0
80
80
ENDCHAR
STARTCHAR periodcentered
ENCODING 8729
SWIDTH 287 0
DWIDTH 7 0
BBX 4 4 1 4
BITMAP
60
F0
F0
60
ENDCHAR
STARTCHAR uni2236
ENCODING 8758
SWIDTH 287 0
DWIDTH 5 0
BBX 5 9 -1 0
BITMAP
30
78
78
30
00
60
F0
F0
60
ENDCHAR
STARTCHAR uni2259
ENCODING 8793
SWIDTH 606 0
DWIDTH 10 0
BBX 9 11 0 3
BITMAP
0600
0E00
1B00
3300
0000
FF80
FF80
0000
0000
FF80
FF80
ENDCHAR
STARTCHAR uni225A
ENCODING 8794
SWIDTH 606 0
DWIDTH 10 0
BBX 9 11 0 3
BITMAP
3300
3600
1C00
1800
0000
FF80
FF80
0000
0000
FF80
FF80
ENDCHAR
STARTCHAR notequal
ENCODING 8800
SWIDTH 606 0
DWIDTH 10 0
BBX 9 14 0 -1
BITMAP
0300
0300
0300
0600
FF80
FF80
0C00
0C00
FF80
FF80
1800
1800
3000
3000
ENDCHAR
STARTCHAR equivalence
ENCODING 8801
SWIDTH 606 0
DWIDTH 10 0
BBX 9 8 0 2
BITMAP
FF80
FF80
0000
FF80
FF80
0000
FF80
FF80
ENDCHAR
STARTCHAR uni2262
ENCODING 8802
SWIDTH 606 0
DWIDTH 10 0
BBX 9 14 0 -1
BITMAP
0300
0300
0300
FF80
FF80
0600
FF80
FF80
0C00
FF80
FF80
1800
3000
3000
ENDCHAR
STARTCHAR lessequal
ENCODING 8804
SWIDTH 606 0
DWIDTH 10 0
BBX 9 12 0 -2
BITMAP
0180
0780
1E00
7800
E000
7800
1E00
0780
0180
0000
FF80
FF80
ENDCHAR
STARTCHAR greaterequal
ENCODING 8805
SWIDTH 606 0
DWIDTH 10 0
BBX 9 12 0 -2
BITMAP
C000
F000
3C00
0F00
0380
0F00
3C00
F000
C000
0000
FF80
FF80
ENDCHAR
STARTCHAR uni226E
ENCODING 8814
SWIDTH 606 0
DWIDTH 10 0
BBX 9 14 0 -1
BITMAP
0300
0300
0300
0780
0780
1E00
7C00
EC00
7C00
1E00
1F80
1980
3000
3000
ENDCHAR
STARTCHAR uni226F
ENCODING 8815
SWIDTH 606 0
DWIDTH 10 0
BBX 9 14 0 -1
BITMAP
0300
0300
0300
C600
F600
3E00
0F00
0F80
0F00
3C00
F800
D800
3000
3000
ENDCHAR
STARTCHAR uni2270
ENCODING 8816
SWIDTH 606 0
DWIDTH 10 0
BBX 9 14 0 -3
BITMAP
0300
0380
0780
1E00
7E00
E600
7C00
1E00
0F80
1980
1800
FF80
FF80
3000
ENDCHAR
STARTCHAR uni2271
ENCODING 8817
SWIDTH 606 0
DWIDTH 10 0
BBX 9 14 0 -3
BITMAP
0300
C300
F300
3E00
0F00
0780
0F00
3C00
FC00
D800
1800
FF80
FF80
3000
ENDCHAR
STARTCHAR fi
ENCODING -1
SWIDTH 685 0
DWIDTH 12 0
BBX 12 18 -1 -4
BITMAP
03E0
0E70
0C70
1C00
1C00
7FE0
38E0
38E0
38E0
39C0
71C0
71C0
71D0
71E0
E000
E000
E000
C000
ENDCHAR
STARTCHAR fl
ENCODING -1
SWIDTH 685 0
DWIDTH 13 0
BBX 13 18 -1 -4
BITMAP
03F8
0E78
0C38
1C38
1C70
7E70
3870
3870
3870
38E0
70E0
70E0
70E8
70F0
E000
E000
E000
C000
ENDCHAR
ENDFONT
